<svg width="50" height="60" viewBox="0 0 120 140" fill="none" xmlns="http://www.w3.org/2000/svg">
<path d="M64.483 70.8217H53.5818C53.0999 70.8217 52.6378 70.6306 52.297 70.2906C51.9563 69.9506 51.7649 69.4894 51.7649 69.0085V62.2037C51.5033 62.1004 51.2507 61.9952 51.0036 61.8882L46.1816 66.7004C45.841 67.0404 45.3789 67.2315 44.8971 67.2316C44.4153 67.2315 43.9532 67.0404 43.6126 66.7004L35.909 59.0126C35.5684 58.6725 35.3771 58.2114 35.3771 57.7307C35.3771 57.2499 35.5684 56.7888 35.909 56.4487L40.731 51.6348C40.622 51.39 40.5185 51.138 40.4149 50.8769H33.5962C33.1143 50.8769 32.6522 50.6859 32.3114 50.3458C31.9707 50.0058 31.7793 49.5446 31.7793 49.0637V38.1848C31.7793 37.7039 31.9707 37.2427 32.3114 36.9027C32.6522 36.5626 33.1143 36.3716 33.5962 36.3716H40.4149C40.5185 36.1105 40.622 35.8585 40.731 35.6119L35.909 30.7998C35.5684 30.4598 35.3771 29.9987 35.3771 29.5179C35.3771 29.0371 35.5684 28.576 35.909 28.236L43.6126 20.5482C43.9597 20.2206 44.4194 20.038 44.8971 20.038C45.3749 20.038 45.8345 20.2206 46.1816 20.5482L51.0036 25.3603C51.2507 25.2533 51.5033 25.1482 51.7649 25.0448V18.24C51.7649 17.7591 51.9563 17.2979 52.297 16.9579C52.6378 16.6179 53.0999 16.4268 53.5818 16.4268H64.483C64.9649 16.4268 65.427 16.6179 65.7677 16.9579C66.1085 17.2979 66.2999 17.7591 66.2999 18.24V25.0448C66.5615 25.1482 66.814 25.2533 67.0611 25.3603L71.8831 20.5482C72.2238 20.2081 72.6858 20.017 73.1676 20.0169C73.6495 20.017 74.1115 20.2081 74.4522 20.5482L82.1557 28.236C82.4963 28.576 82.6877 29.0371 82.6877 29.5179C82.6877 29.9987 82.4963 30.4598 82.1557 30.7998L77.3337 35.6119C77.4428 35.8585 77.5463 36.1105 77.6499 36.3716H84.4686C84.9505 36.3716 85.4126 36.5626 85.7533 36.9027C86.094 37.2427 86.2855 37.7039 86.2855 38.1848V49.0637C86.2855 49.5446 86.094 50.0058 85.7533 50.3458C85.4126 50.6859 84.9505 50.8769 84.4686 50.8769H77.6499C77.5463 51.138 77.4428 51.39 77.3337 51.6348L82.1557 56.4487C82.4963 56.7888 82.6877 57.2499 82.6877 57.7307C82.6877 58.2114 82.4963 58.6725 82.1557 59.0126L74.4522 66.7004C74.105 67.0279 73.6454 67.2105 73.1676 67.2105C72.6899 67.2105 72.2303 67.0279 71.8831 66.7004L67.0611 61.8882C66.814 61.9952 66.5615 62.1004 66.2999 62.2037V69.0085C66.2999 69.4894 66.1085 69.9506 65.7677 70.2906C65.427 70.6306 64.9649 70.8217 64.483 70.8217ZM55.3986 67.1953H62.6661V60.9218C62.666 60.5382 62.7878 60.1644 63.0141 59.8542C63.2403 59.544 63.5594 59.3135 63.9252 59.1957C64.8344 58.9155 65.7142 58.5481 66.5524 58.0987C66.8972 57.9101 67.2939 57.8382 67.6831 57.8938C68.0723 57.9494 68.4329 58.1294 68.7109 58.407L73.1676 62.8546L78.3003 57.7307L73.8453 53.283C73.5677 53.0057 73.3875 52.6462 73.3318 52.2582C73.2761 51.8702 73.3479 51.4746 73.5365 51.1307C73.9857 50.2937 74.3538 49.4158 74.6357 48.5089C74.7534 48.1435 74.9843 47.8247 75.2951 47.5986C75.6059 47.3724 75.9807 47.2506 76.3653 47.2506H82.6517V39.9979H76.3653C75.9807 39.9979 75.6059 39.8761 75.2951 39.6499C74.9843 39.4238 74.7534 39.1051 74.6357 38.7396C74.3538 37.8327 73.9857 36.9548 73.5365 36.1178C73.3479 35.7739 73.2761 35.3783 73.3318 34.9903C73.3875 34.6023 73.5677 34.2428 73.8453 33.9656L78.3003 29.5179L73.1676 24.3939L68.7109 28.8416C68.4329 29.1191 68.0723 29.2991 67.6831 29.3547C67.2939 29.4103 66.8972 29.3384 66.5524 29.1498C65.7139 28.7035 64.8341 28.3392 63.9252 28.0619C63.5579 27.9436 63.2378 27.7117 63.0114 27.3997C62.785 27.0877 62.6641 26.7119 62.6661 26.3267V20.0532H55.3986V26.3267C55.3987 26.7104 55.2769 27.0842 55.0507 27.3943C54.8244 27.7045 54.5054 27.9351 54.1395 28.0528C53.2307 28.3301 52.3509 28.6944 51.5123 29.1407C51.1676 29.3293 50.7708 29.4012 50.3816 29.3457C49.9924 29.2901 49.6318 29.11 49.3539 28.8325L44.8971 24.3939L39.7735 29.5179L44.2285 33.9656C44.5062 34.2428 44.6864 34.6023 44.742 34.9903C44.7977 35.3783 44.7259 35.7739 44.5374 36.1178C44.0882 36.9548 43.7201 37.8327 43.4382 38.7396C43.32 39.1065 43.0877 39.4264 42.7751 39.6526C42.4624 39.8789 42.0856 39.9999 41.6994 39.9979H35.413V47.2506H41.6994C42.0841 47.2506 42.4588 47.3724 42.7696 47.5986C43.0805 47.8247 43.3114 48.1435 43.4291 48.5089C43.711 49.4158 44.0791 50.2937 44.5283 51.1307C44.7168 51.4746 44.7886 51.8702 44.733 52.2582C44.6773 52.6462 44.4971 53.0057 44.2194 53.283L39.7735 57.7307L44.9062 62.8546L49.363 58.407C49.6409 58.1294 50.0015 57.9494 50.3907 57.8938C50.7799 57.8382 51.1767 57.9101 51.5214 58.0987C52.3596 58.5481 53.2395 58.9155 54.1486 59.1957C54.5128 59.315 54.8298 59.5463 55.0543 59.8563C55.2789 60.1663 55.3994 60.5393 55.3986 60.9218V67.1953Z" fill="#795AF1"/>
<path d="M59.0324 54.5032C56.8763 54.5032 54.7687 53.8652 52.976 52.6698C51.1833 51.4744 49.7861 49.7753 48.961 47.7875C48.1359 45.7996 47.92 43.6122 48.3406 41.5019C48.7613 39.3916 49.7995 37.4531 51.3241 35.9317C52.8486 34.4102 54.791 33.3741 56.9057 32.9543C59.0203 32.5346 61.2122 32.75 63.2041 33.5734C65.1961 34.3968 66.8986 35.7912 68.0965 37.5802C69.2943 39.3693 69.9336 41.4726 69.9336 43.6243C69.9308 46.5087 68.7813 49.2741 66.7376 51.3137C64.6938 53.3533 61.9227 54.5004 59.0324 54.5032ZM59.0324 36.3716C57.595 36.3716 56.1899 36.797 54.9948 37.5939C53.7997 38.3908 52.8682 39.5236 52.3181 40.8488C51.7681 42.1741 51.6241 43.6323 51.9046 45.0392C52.185 46.4461 52.8771 47.7384 53.8935 48.7527C54.9099 49.767 56.2048 50.4577 57.6146 50.7376C59.0243 51.0174 60.4856 50.8738 61.8136 50.3248C63.1415 49.7759 64.2765 48.8463 65.0751 47.6536C65.8737 46.4609 66.2999 45.0587 66.2999 43.6243C66.2999 41.7007 65.5342 39.856 64.1713 38.4959C62.8084 37.1357 60.9599 36.3716 59.0324 36.3716Z" fill="#795AF1"/>
<path d="M102.637 83.5138C103.119 83.5138 103.581 83.3228 103.922 82.9828C104.263 82.6427 104.454 82.1815 104.454 81.7007V5.5479C104.454 5.06702 104.263 4.60584 103.922 4.2658C103.581 3.92577 103.119 3.73474 102.637 3.73474H24.5118C21.6215 3.73762 18.8504 4.88472 16.8067 6.9243C14.7629 8.96387 13.6135 11.7293 13.6106 14.6137V90.7665C13.6135 93.6509 14.7629 96.4163 16.8067 98.4559C18.8504 100.495 21.6215 101.643 24.5118 101.645H29.9624V110.711C29.9625 111.07 30.0691 111.42 30.2688 111.718C30.4684 112.016 30.7521 112.249 31.0841 112.386C31.416 112.523 31.7813 112.559 32.1337 112.489C32.4861 112.419 32.8098 112.247 33.0638 111.993L39.0468 106.022L45.0298 111.993C45.2839 112.247 45.6076 112.419 45.9599 112.489C46.3123 112.559 46.6776 112.523 47.0095 112.386C47.3415 112.249 47.6252 112.016 47.8248 111.718C48.0245 111.42 48.1311 111.07 48.1312 110.711V101.645H102.637C103.119 101.645 103.581 101.454 103.922 101.114C104.263 100.774 104.454 100.313 104.454 99.8323C104.454 99.3514 104.263 98.8902 103.922 98.5502C103.581 98.2101 103.119 98.0191 102.637 98.0191C100.71 98.0191 98.8614 97.255 97.4985 95.8949C96.1355 94.5347 95.3699 92.69 95.3699 90.7665C95.3699 88.8429 96.1355 86.9982 97.4985 85.6381C98.8614 84.2779 100.71 83.5138 102.637 83.5138ZM44.4974 106.334L40.3313 102.177C39.9906 101.837 39.5286 101.646 39.0468 101.646C38.565 101.646 38.103 101.837 37.7623 102.177L33.5962 106.334V92.5796H44.4974V106.334ZM94.5341 98.0191H48.1312V92.5796H86.2855C86.7674 92.5796 87.2295 92.3886 87.5702 92.0486C87.9109 91.7085 88.1024 91.2473 88.1024 90.7665C88.1024 90.2856 87.9109 89.8244 87.5702 89.4844C87.2295 89.1443 86.7674 88.9533 86.2855 88.9533H22.695C22.2131 88.9533 21.751 89.1443 21.4102 89.4844C21.0695 89.8244 20.8781 90.2856 20.8781 90.7665C20.8781 91.2473 21.0695 91.7085 21.4102 92.0486C21.751 92.3886 22.2131 92.5796 22.695 92.5796H29.9624V98.0191H24.5118C22.5844 98.0191 20.7359 97.255 19.3729 95.8949C18.01 94.5347 17.2443 92.69 17.2443 90.7665C17.2443 88.8429 18.01 86.9982 19.3729 85.6381C20.7359 84.2779 22.5844 83.5138 24.5118 83.5138H94.5341C92.7333 85.5019 91.7362 88.0865 91.7362 90.7665C91.7362 93.4464 92.7333 96.031 94.5341 98.0191ZM24.5118 79.8875C21.8294 79.8877 19.2414 80.8762 17.2443 82.6634V14.6137C17.2443 12.6902 18.01 10.8454 19.3729 9.48531C20.7359 8.12518 22.5844 7.36106 24.5118 7.36106H100.82V79.8875H24.5118Z" fill="#795AF1"/>
</svg>
