<svg width="50" height="60" viewBox="0 0 120 130" fill="none" xmlns="http://www.w3.org/2000/svg">
<g clip-path="url(#clip0)">
<path d="M26.5871 74.7711C27.7718 72.8419 28.4638 70.5329 28.4638 68.0523C28.4638 61.3174 23.3717 55.8382 17.1125 55.8382C10.8533 55.8382 5.76132 61.3174 5.76132 68.0523C5.76132 70.533 6.4535 72.8421 7.63814 74.7714C3.13547 76.7792 0.00152588 81.5905 0.00152588 87.0035V94.4874C0.00152588 95.5208 0.779754 96.3586 1.73981 96.3586H32.4853C33.4454 96.3586 34.2236 95.5208 34.2236 94.4874V87.0035C34.2236 81.5898 31.0896 76.7785 26.5871 74.7711ZM17.1125 59.5805C21.4545 59.5805 24.9872 63.3809 24.9872 68.0523C24.9872 72.7264 21.4547 76.5292 17.1125 76.5292C12.7704 76.5292 9.23788 72.7264 9.23788 68.0523C9.23788 63.3809 12.7704 59.5805 17.1125 59.5805ZM30.747 92.6162H3.47809V87.0035C3.47809 82.6212 6.34278 78.7881 10.2513 77.7782C12.1585 79.3412 14.536 80.2715 17.1125 80.2715C19.689 80.2715 22.0666 79.3412 23.9738 77.7782C27.8823 78.7873 30.747 82.6206 30.747 87.0035V92.6162Z" fill="#3C84F0"/>
<path d="M81.3576 74.7709C82.542 72.8417 83.234 70.5329 83.234 68.0523C83.234 61.3174 78.1419 55.8382 71.8829 55.8382C65.6265 55.8382 60.5366 61.3174 60.5366 68.0523C60.5366 70.5323 61.2281 72.8409 62.4118 74.7699C57.9074 76.7768 54.7719 81.589 54.7719 87.0035V94.4874C54.7719 95.5208 55.5502 96.3586 56.5102 96.3586H87.2608C88.2208 96.3586 88.999 95.5208 88.999 94.4874V87.0035C88.9989 81.5898 85.863 76.7781 81.3576 74.7709ZM71.8829 59.5805C76.2249 59.5805 79.7575 63.3809 79.7575 68.0523C79.7575 72.7264 76.2249 76.5292 71.8829 76.5292C67.5434 76.5292 64.0132 72.7264 64.0132 68.0523C64.0132 63.3809 67.5434 59.5805 71.8829 59.5805ZM85.5223 92.6162H58.2483V87.0035C58.2483 82.6204 61.1142 78.7866 65.024 77.7777C66.9305 79.3408 69.3073 80.2715 71.8829 80.2715C74.4594 80.2715 76.837 79.341 78.7442 77.778C82.6555 78.7875 85.5221 82.6208 85.5221 87.0035V92.6162H85.5223Z" fill="#3C84F0"/>
<path d="M71.9311 49.9981C72.2159 50.1944 72.5416 50.2934 72.8684 50.2934C73.1497 50.2934 73.4314 50.22 73.6882 50.0722C74.2431 49.7528 74.5942 49.1353 74.6064 48.4581L74.7068 42.8117C79.3115 41.5964 82.7267 37.0644 82.7267 31.8313C82.7267 26.3559 79.0904 21.7788 74.2813 20.748C74.5286 19.5632 74.6559 18.3531 74.6559 17.1284C74.6557 7.98959 67.749 0.554688 59.2594 0.554688H47.3997C46.4396 0.554688 45.6614 1.39241 45.6614 2.42586C45.6614 3.4593 46.4396 4.29703 47.3997 4.29703H59.2594C65.832 4.29703 71.1793 10.0533 71.1793 17.1286C71.1793 18.2838 71.0342 19.4228 70.75 20.5296H47.0056C41.8088 20.5296 37.4843 24.6161 36.6532 29.9601H31.9827C31.5896 29.9601 31.2083 30.1035 30.9006 30.3667L20.6053 39.1809L20.4712 31.7364C20.454 30.7801 19.7695 29.9916 18.8842 29.9085C12.7842 29.3365 8.00586 23.7228 8.00586 17.1282C8.00586 10.0533 13.3552 4.29703 19.9306 4.29703H31.7904C32.7505 4.29703 33.5287 3.4593 33.5287 2.42586C33.5287 1.39241 32.7505 0.554688 31.7904 0.554688H19.9306C11.4383 0.554688 4.5293 7.98959 4.5293 17.1286C4.5293 21.2869 5.97972 25.27 8.61356 28.3447C10.8702 30.9792 13.8133 32.7394 17.0241 33.4036L17.1974 43.0377C17.2102 43.7495 17.597 44.3917 18.1953 44.6946C18.4312 44.8142 18.6838 44.8728 18.9351 44.8728C19.3212 44.8728 19.704 44.7345 20.0174 44.4662L32.5895 33.7026H36.6532C37.4843 39.0467 41.8088 43.1332 47.0056 43.1332H61.9682L71.9311 49.9981ZM39.9833 31.8313C39.9833 27.6631 43.1336 24.2719 47.0056 24.2719H72.2279C76.0999 24.2719 79.2502 27.6631 79.2502 31.8313C79.2502 35.7162 76.4369 39.0235 72.8455 39.3605C71.96 39.4436 71.2755 40.2323 71.2586 41.1888L71.1899 45.0438L63.4141 39.6857C63.1344 39.493 62.8092 39.3904 62.477 39.3904H47.0056C43.1334 39.3906 39.9833 35.9995 39.9833 31.8313Z" fill="#3C84F0"/>
<path d="M49.7549 29.9575C48.7948 29.9575 48.0166 30.7979 48.0166 31.8313C48.0166 32.8648 48.7948 33.7025 49.7549 33.7025C50.7149 33.7025 51.4931 32.8648 51.4931 31.8313V31.8261C51.4931 30.7926 50.7149 29.9575 49.7549 29.9575Z" fill="#3C84F0"/>
<path d="M59.619 29.9575C58.659 29.9575 57.8807 30.7979 57.8807 31.8313C57.8807 32.8648 58.659 33.7025 59.619 33.7025C60.5791 33.7025 61.3573 32.8648 61.3573 31.8313V31.8261C61.3573 30.7926 60.5791 29.9575 59.619 29.9575Z" fill="#3C84F0"/>
<path d="M69.4784 33.7025C70.4384 33.7025 71.2167 32.8648 71.2167 31.8313V31.8261C71.2167 30.7926 70.4384 29.9575 69.4784 29.9575C68.5183 29.9575 67.7401 30.7979 67.7401 31.8313C67.7401 32.8648 68.5183 33.7025 69.4784 33.7025Z" fill="#3C84F0"/>
<path d="M39.5949 4.29703H39.6048C40.5648 4.29703 41.3382 3.4593 41.3382 2.42586C41.3382 1.39241 40.5551 0.554688 39.5951 0.554688C38.635 0.554688 37.8568 1.39241 37.8568 2.42586C37.8568 3.4593 38.6348 4.29703 39.5949 4.29703Z" fill="#3C84F0"/>
</g>
<defs>
<clipPath id="clip0">
<rect width="89" height="95.8039" fill="white" transform="translate(0 0.554688)"/>
</clipPath>
</defs>
</svg>
