<svg width="60" height="60" viewBox="-120 0 340 30" fill="none" xmlns="http://www.w3.org/2000/svg">
<g clip-path="url(#clip0)">
<path d="M39.3029 13.3332C34.1638 13.3043 29.3006 15.2877 25.6402 18.9195C21.9794 22.5519 19.9634 27.3822 19.9634 32.5209V44.9767C19.9634 55.5692 28.5166 64.2572 39.0297 64.3435C39.0823 64.344 39.1338 64.3442 39.1864 64.3442C46.5559 64.3438 53.3589 60.0645 56.5482 53.4077C57.2307 51.9833 57.123 50.3386 56.2601 49.0077C55.3893 47.6647 53.9168 46.8851 52.3139 46.9233C50.5931 46.9642 49.0634 47.9458 48.3217 49.4848C47.8744 50.4128 47.335 51.2271 46.718 51.9051C44.7635 54.0531 41.9996 55.2702 39.1367 55.2582C39.0517 55.2578 38.9674 55.2543 38.883 55.2517C38.7938 55.249 38.7046 55.2472 38.616 55.2421C38.5486 55.2383 38.482 55.2319 38.4148 55.2269C38.3046 55.2183 38.1944 55.2102 38.0852 55.198C38.0546 55.1947 38.0245 55.1901 37.9939 55.1864C32.9812 54.5827 29.0667 50.2335 29.0667 45.0143V32.6693C29.0667 27.4259 33.0103 23.0605 38.0505 22.4828C38.0617 22.4816 38.0727 22.4801 38.084 22.4789C38.2202 22.4637 38.3577 22.4527 38.4954 22.4431C38.5449 22.4399 38.5944 22.4362 38.6441 22.4338C38.7498 22.4281 38.8562 22.4248 38.9629 22.4226C39.0379 22.421 39.113 22.4194 39.1882 22.4196C39.2695 22.4196 39.3505 22.4212 39.4316 22.423C39.5282 22.4253 39.6245 22.4281 39.7204 22.4332C39.7844 22.4364 39.8482 22.4409 39.9117 22.4454C40.0307 22.4539 40.1492 22.4635 40.2672 22.4763C40.2998 22.4797 40.3321 22.4836 40.3645 22.4873C45.3887 23.0802 49.3151 27.4375 49.3151 32.6693V42.1393C49.3151 42.9616 48.6448 43.6306 47.8208 43.6306C46.9969 43.6306 46.3265 42.9616 46.3265 42.1393V32.5209C46.3265 28.6613 43.181 25.4673 39.3147 25.4013C37.416 25.3696 35.6123 26.094 34.2372 27.443C32.8508 28.8029 32.0556 30.6902 32.0556 32.6203V45.1562C32.0556 49.0825 35.2564 52.2771 39.191 52.2771C41.0946 52.2771 42.8859 51.5357 44.2347 50.1896C44.8318 49.594 44.8318 48.628 44.2347 48.0322C43.6379 47.4366 42.67 47.4366 42.0729 48.0322C41.3015 48.802 40.278 49.2261 39.191 49.2261C36.9422 49.2261 35.1128 47.4004 35.1128 45.1562V32.6203C35.1128 31.5031 35.5748 30.4089 36.3802 29.6187C37.1659 28.8479 38.1903 28.4299 39.2623 28.4519C41.4718 28.4897 43.2692 30.3149 43.2692 32.5209V42.1393C43.2692 44.6439 45.3111 46.6816 47.8208 46.6816C50.3305 46.6816 52.3724 44.6439 52.3724 42.1393V32.6693C52.3724 32.6362 52.3702 32.6035 52.3699 32.5701C52.3706 32.5537 52.3724 32.5374 52.3724 32.5209C52.3724 28.9881 50.9836 25.67 48.4622 23.178C46.3326 21.0732 43.6249 19.7834 40.6957 19.4541C40.6684 19.4509 40.6409 19.4478 40.6136 19.4448C40.448 19.4273 40.2816 19.4129 40.1146 19.4015C40.0402 19.3962 39.9659 19.3913 39.8911 19.3872C39.7608 19.3805 39.63 19.3763 39.499 19.3734C39.4395 19.372 39.3807 19.3677 39.321 19.3671C39.2752 19.3665 39.2299 19.3689 39.1841 19.3689C39.143 19.3689 39.1024 19.3667 39.0613 19.3671C39.0112 19.3675 38.9619 19.3714 38.912 19.3724C38.7584 19.3752 38.6054 19.3805 38.4528 19.3887C38.4086 19.3911 38.3646 19.3939 38.3206 19.397C35.1564 19.5978 32.2018 20.9228 29.92 23.178C27.3985 25.6702 26.0099 28.9881 26.0099 32.5209V32.6693V45.0143V45.1562C26.0099 51.8784 31.0899 57.4353 37.6193 58.2136C37.6645 58.2191 37.7096 58.2259 37.7548 58.2309C37.8955 58.2462 38.0375 58.2572 38.1797 58.2679C38.2671 58.2746 38.354 58.283 38.442 58.2879C38.5592 58.2944 38.6773 58.297 38.7953 58.3005C38.8826 58.3031 38.969 58.309 39.0568 58.3098C39.0786 58.31 39.1 58.3086 39.1218 58.3088C39.1452 58.309 39.168 58.3106 39.1914 58.3106C39.2204 58.3106 39.2487 58.308 39.2774 58.3064C42.9484 58.2826 46.4803 56.7059 48.9819 53.9562C49.7971 53.0601 50.5021 52.0008 51.0773 50.8074C51.3187 50.3067 51.8206 49.9871 52.3873 49.9737C53.1589 49.9546 53.5553 50.4514 53.694 50.6655C53.8288 50.8734 54.1083 51.4288 53.7907 52.0917C51.107 57.6929 45.3854 61.2933 39.1872 61.2933C39.1434 61.2933 39.0994 61.2931 39.0556 61.2929C30.2142 61.2202 23.0213 53.9009 23.0213 44.9769V32.5211C23.0213 28.2008 24.717 24.1387 27.7965 21.0834C30.8754 18.0283 34.9627 16.3622 39.2862 16.3844C48.1502 16.4352 55.3618 23.7612 55.3618 32.7155V45.1564C55.3612 45.9988 56.0454 46.6816 56.8898 46.6816C57.7341 46.6816 58.4183 45.9986 58.4183 45.1562V32.7153C58.4183 22.0882 49.8431 13.3935 39.3029 13.3332Z" fill="#3C84F0"/>
<path d="M39.1909 33.5507C38.3468 33.5507 37.6624 34.2337 37.6624 35.0761V43.3175C37.6624 44.1601 38.3468 44.8429 39.1909 44.8429C40.0352 44.8429 40.7194 44.1599 40.7194 43.3175V35.0761C40.7194 34.2335 40.035 33.5507 39.1909 33.5507Z" fill="#9DC1F7"/>
<path d="M71.6006 35.4185C70.753 28.0862 67.5349 21.446 62.2942 16.2161C49.619 3.56679 28.995 3.56699 16.3198 16.2161C11.0763 21.4489 7.85771 28.0927 7.01216 35.429C6.91541 36.2662 7.51713 37.0226 8.35594 37.1189C8.41522 37.1258 8.47409 37.1291 8.53255 37.1291C9.29865 37.1291 9.95964 36.5554 10.0493 35.7779C10.8152 29.1327 13.7311 23.1144 18.4815 18.3735C29.9648 6.91399 48.6492 6.91379 60.1323 18.3735C64.8803 23.1117 67.7958 29.1268 68.5635 35.7681C68.6603 36.605 69.4184 37.2043 70.2572 37.1087C71.0961 37.0122 71.6974 36.2554 71.6006 35.4185Z" fill="#3C84F0"/>
<path d="M70.256 41.2176C69.4176 41.1203 68.6589 41.7205 68.5617 42.5574C67.7915 49.1937 64.8766 55.2043 60.1322 59.9391C54.5694 65.4904 47.1734 68.5478 39.3067 68.5478C31.4398 68.5478 24.0438 65.4904 18.4813 59.9391C13.7292 55.1966 10.8131 49.176 10.0485 42.5284C9.95211 41.6915 9.19497 41.0908 8.35534 41.1867C7.51652 41.2829 6.9148 42.0393 7.01094 42.8764C7.85526 50.2156 11.0741 56.8618 16.3194 62.0965C22.4594 68.2241 30.6232 71.5988 39.3067 71.5988C47.99 71.5988 56.1538 68.2241 62.2938 62.0965C67.5308 56.8702 70.7484 50.2351 71.5986 42.9085C71.6958 42.0716 71.0947 41.3146 70.256 41.2176Z" fill="#3C84F0"/>
<path d="M103.398 91.3089L84.2357 72.1862C83.3506 71.303 82.1737 70.8165 80.922 70.8165C79.9015 70.8165 78.9335 71.1448 78.1301 71.7429L69.6773 63.3074C75.1592 56.4691 78.1381 48.0419 78.1381 39.1565C78.1381 28.8055 74.0988 19.0741 66.7647 11.7549C59.4306 4.43558 49.6789 0.404541 39.3067 0.404541C28.9345 0.404541 19.1832 4.43558 11.8489 11.7547C4.51467 19.0737 0.475586 28.8053 0.475586 39.1563C0.475586 49.5073 4.51487 59.2387 11.8489 66.558C19.183 73.8773 28.9345 77.9081 39.3067 77.9081C48.2103 77.9081 56.6547 74.9354 63.507 69.4647L71.9598 77.9002C71.3603 78.7022 71.0315 79.6679 71.0315 80.6864C71.0315 81.9355 71.519 83.1101 72.404 83.9931L91.5659 103.116C92.4795 104.028 93.6794 104.483 94.8794 104.483C96.0796 104.483 97.2795 104.028 98.1931 103.116L103.397 97.9224C105.225 96.0992 105.225 93.1324 103.398 91.3089ZM62.6735 66.1915C62.6321 66.2232 62.592 66.2572 62.5533 66.2938C56.0792 71.8348 47.9261 74.8571 39.3067 74.8571C29.7511 74.8571 20.7676 71.1436 14.0108 64.4006C7.25397 57.6576 3.53286 48.6924 3.53286 39.1563C3.53286 29.6203 7.25397 20.6551 14.0108 13.9121C20.7676 7.16908 29.7511 3.45556 39.3067 3.45556C48.8623 3.45556 57.8459 7.16908 64.6027 13.9121C71.3595 20.6551 75.0806 29.6203 75.0806 39.1563C75.0806 47.7904 72.0298 55.9564 66.4376 62.4288C66.4323 62.4351 66.4268 62.4414 66.4215 62.4477C65.8422 63.1173 65.2358 63.7686 64.6025 64.4004C63.9781 65.0237 63.3345 65.6205 62.6735 66.1915ZM65.824 67.4624C66.1412 67.166 66.4557 66.866 66.7643 66.558C67.0729 66.2501 67.3736 65.9362 67.6705 65.6197L75.9294 73.8617L74.0827 75.7044L65.824 67.4624ZM101.236 95.7652L96.0315 100.959C95.3966 101.592 94.363 101.593 93.7277 100.959L74.5658 81.8357C74.2581 81.5288 74.0888 81.1206 74.0888 80.6864C74.0888 80.2522 74.2583 79.844 74.5658 79.5368L79.7701 74.3432C80.0776 74.0361 80.4867 73.8671 80.9218 73.8671C81.3569 73.8671 81.7659 74.0363 82.0737 74.3432L101.236 93.4659C101.871 94.1 101.871 95.1314 101.236 95.7652Z" fill="#3C84F0"/>
</g>
<defs>
<clipPath id="clip0">
<rect width="104.292" height="104.079" fill="white" transform="translate(0.475586 0.404541)"/>
</clipPath>
</defs>
</svg>
