<svg id="Calque_1" data-name="Calque 1" xmlns="http://www.w3.org/2000/svg" xmlns:xlink="http://www.w3.org/1999/xlink" width="705" height="588" viewBox="0 0 705 588">
  <defs>
    <clipPath id="clip-path55">
      <path d="M131.1,116.51H654.93V448.3a50.28,50.28,0,0,1-50.28,50.28H80.83V166.78a50.27,50.27,0,0,1,50.27-50.27Z" fill="none"/>
    </clipPath>
    <linearGradient id="Dégradé_sans_nom" data-name="Dégradé sans nom" x1="367.88" y1="473.49" x2="367.88" y2="91.42" gradientTransform="matrix(1, 0, 0, -1, 0, 590)" gradientUnits="userSpaceOnUse">
      <stop offset="0" stop-color="#3d85f1"/>
      <stop offset="1" stop-color="#8f4af1"/>
    </linearGradient>
    <linearGradient id="Dégradé_sans_nom_5" data-name="Dégradé sans nom 5" x1="78.49" y1="176.13" x2="78.49" y2="2" gradientTransform="matrix(1, 0, 0, -1, 0, 590)" gradientUnits="userSpaceOnUse">
      <stop offset="0" stop-color="#fff"/>
      <stop offset="1" stop-color="#fff" stop-opacity="0"/>
    </linearGradient>
    <linearGradient id="Dégradé_sans_nom_5-2" x1="628.02" y1="478.41" x2="628.02" y2="398.08" xlink:href="#Dégradé_sans_nom_5"/>
  </defs>
  <g>
    <g clip-path="url(#clip-path55)">
      <image width="505" height="462" transform="translate(51.25 46.55) scale(1.2)" xlink:href="images/bg-apropos.png"/>
    </g>
    <path d="M80.83,166.78a50.27,50.27,0,0,1,50.27-50.27H654.93V448.3a50.28,50.28,0,0,1-50.27,50.28H80.83Z" opacity="0.5" fill="url(#Dégradé_sans_nom)" style="isolation: isolate"/>
  </g>
  <rect y="413.87" width="156.99" height="174.13" fill="url(#Dégradé_sans_nom_5)"/>
  <g opacity="0.7">
    <ellipse cx="145.87" cy="584.66" rx="1.19" ry="1.16" fill="#7854f7"/>
    <ellipse cx="128.37" cy="584.66" rx="1.19" ry="1.16" fill="#7854f7"/>
    <ellipse cx="110.87" cy="584.66" rx="1.19" ry="1.16" fill="#7854f7"/>
    <ellipse cx="93.38" cy="584.66" rx="1.19" ry="1.16" fill="#7854f7"/>
    <ellipse cx="75.88" cy="584.66" rx="1.19" ry="1.16" fill="#7854f7"/>
    <ellipse cx="145.87" cy="567.54" rx="1.19" ry="1.16" fill="#7854f7"/>
    <ellipse cx="128.37" cy="567.54" rx="1.19" ry="1.16" fill="#7854f7"/>
    <ellipse cx="110.87" cy="567.54" rx="1.19" ry="1.16" fill="#7854f7"/>
    <ellipse cx="93.38" cy="567.54" rx="1.19" ry="1.16" fill="#7854f7"/>
    <ellipse cx="75.88" cy="567.54" rx="1.19" ry="1.16" fill="#7854f7"/>
    <ellipse cx="145.87" cy="550.42" rx="1.19" ry="1.16" fill="#7854f7"/>
    <ellipse cx="128.37" cy="550.42" rx="1.19" ry="1.16" fill="#7854f7"/>
    <ellipse cx="110.87" cy="550.42" rx="1.19" ry="1.16" fill="#7854f7"/>
    <ellipse cx="93.38" cy="550.42" rx="1.19" ry="1.16" fill="#7854f7"/>
    <ellipse cx="75.88" cy="550.42" rx="1.19" ry="1.16" fill="#7854f7"/>
    <ellipse cx="145.87" cy="533.3" rx="1.19" ry="1.16" fill="#7854f7"/>
    <ellipse cx="128.37" cy="533.3" rx="1.19" ry="1.16" fill="#7854f7"/>
    <ellipse cx="110.87" cy="533.3" rx="1.19" ry="1.16" fill="#7854f7"/>
    <ellipse cx="93.38" cy="533.3" rx="1.19" ry="1.16" fill="#7854f7"/>
    <ellipse cx="75.88" cy="533.3" rx="1.19" ry="1.16" fill="#7854f7"/>
    <ellipse cx="145.87" cy="516.18" rx="1.19" ry="1.16" fill="#7854f7"/>
    <ellipse cx="128.37" cy="516.18" rx="1.19" ry="1.16" fill="#7854f7"/>
    <ellipse cx="110.87" cy="516.18" rx="1.19" ry="1.16" fill="#7854f7"/>
    <ellipse cx="93.38" cy="516.18" rx="1.19" ry="1.16" fill="#7854f7"/>
    <ellipse cx="75.88" cy="516.18" rx="1.19" ry="1.16" fill="#7854f7"/>
    <ellipse cx="145.87" cy="499.06" rx="1.19" ry="1.16" fill="#7854f7"/>
    <ellipse cx="128.37" cy="499.06" rx="1.19" ry="1.16" fill="#7854f7"/>
    <ellipse cx="110.87" cy="499.06" rx="1.19" ry="1.16" fill="#7854f7"/>
    <ellipse cx="93.38" cy="499.06" rx="1.19" ry="1.16" fill="#7854f7"/>
    <ellipse cx="75.88" cy="499.06" rx="1.19" ry="1.16" fill="#7854f7"/>
    <ellipse cx="145.87" cy="481.94" rx="1.19" ry="1.16" fill="#7854f7"/>
    <ellipse cx="128.37" cy="481.94" rx="1.19" ry="1.16" fill="#7854f7"/>
    <ellipse cx="110.87" cy="481.94" rx="1.19" ry="1.16" fill="#7854f7"/>
    <ellipse cx="93.38" cy="481.94" rx="1.19" ry="1.16" fill="#7854f7"/>
    <ellipse cx="75.88" cy="481.94" rx="1.19" ry="1.16" fill="#7854f7"/>
    <ellipse cx="145.87" cy="464.82" rx="1.19" ry="1.16" fill="#7854f7"/>
    <ellipse cx="128.37" cy="464.82" rx="1.19" ry="1.16" fill="#7854f7"/>
    <ellipse cx="110.87" cy="464.82" rx="1.19" ry="1.16" fill="#7854f7"/>
    <ellipse cx="93.38" cy="464.82" rx="1.19" ry="1.16" fill="#7854f7"/>
    <ellipse cx="75.88" cy="464.82" rx="1.19" ry="1.16" fill="#7854f7"/>
    <ellipse cx="145.87" cy="447.7" rx="1.19" ry="1.16" fill="#7854f7"/>
    <ellipse cx="128.37" cy="447.7" rx="1.19" ry="1.16" fill="#7854f7"/>
    <ellipse cx="110.87" cy="447.7" rx="1.19" ry="1.16" fill="#7854f7"/>
    <ellipse cx="93.38" cy="447.7" rx="1.19" ry="1.16" fill="#7854f7"/>
    <ellipse cx="75.88" cy="447.7" rx="1.19" ry="1.16" fill="#7854f7"/>
    <ellipse cx="145.87" cy="430.59" rx="1.19" ry="1.16" fill="#7854f7"/>
    <ellipse cx="128.37" cy="430.59" rx="1.19" ry="1.16" fill="#7854f7"/>
    <ellipse cx="110.87" cy="430.59" rx="1.19" ry="1.16" fill="#7854f7"/>
    <ellipse cx="93.38" cy="430.59" rx="1.19" ry="1.16" fill="#7854f7"/>
    <ellipse cx="75.88" cy="430.59" rx="1.19" ry="1.16" fill="#7854f7"/>
  </g>
  <rect x="589.82" y="111.59" width="76.41" height="80.33" fill="url(#Dégradé_sans_nom_5-2)"/>
  <ellipse cx="684.96" cy="199.37" rx="1.32" ry="1.29" fill="#7854f7" fill-opacity="0.1"/>
  <ellipse cx="665.54" cy="199.37" rx="1.32" ry="1.29" fill="#7854f7" fill-opacity="0.1"/>
  <ellipse cx="646.12" cy="199.37" rx="1.32" ry="1.29" fill="#7854f7" fill-opacity="0.1"/>
  <ellipse cx="626.7" cy="199.37" rx="1.32" ry="1.29" fill="#7854f7" fill-opacity="0.1"/>
  <ellipse cx="607.28" cy="199.37" rx="1.32" ry="1.29" fill="#7854f7" fill-opacity="0.1"/>
  <ellipse cx="684.96" cy="180.37" rx="1.32" ry="1.29" fill="#7854f7" fill-opacity="0.1"/>
  <ellipse cx="665.54" cy="180.37" rx="1.32" ry="1.29" fill="#7854f7" fill-opacity="0.1"/>
  <ellipse cx="646.12" cy="180.37" rx="1.32" ry="1.29" fill="#7854f7" fill-opacity="0.1"/>
  <ellipse cx="626.7" cy="180.37" rx="1.32" ry="1.29" fill="#7854f7" fill-opacity="0.1"/>
  <ellipse cx="607.28" cy="180.37" rx="1.32" ry="1.29" fill="#7854f7" fill-opacity="0.1"/>
  <ellipse cx="684.96" cy="161.37" rx="1.32" ry="1.29" fill="#7854f7" fill-opacity="0.1"/>
  <ellipse cx="665.54" cy="161.37" rx="1.32" ry="1.29" fill="#7854f7" fill-opacity="0.1"/>
  <ellipse cx="646.12" cy="161.37" rx="1.32" ry="1.29" fill="#7854f7" fill-opacity="0.1"/>
  <ellipse cx="626.7" cy="161.37" rx="1.32" ry="1.29" fill="#7854f7" fill-opacity="0.1"/>
  <ellipse cx="607.28" cy="161.37" rx="1.32" ry="1.29" fill="#7854f7" fill-opacity="0.1"/>
  <ellipse cx="684.96" cy="142.37" rx="1.32" ry="1.29" fill="#7854f7" fill-opacity="0.1"/>
  <ellipse cx="665.54" cy="142.37" rx="1.32" ry="1.29" fill="#7854f7" fill-opacity="0.1"/>
  <ellipse cx="646.12" cy="142.37" rx="1.32" ry="1.29" fill="#7854f7" fill-opacity="0.1"/>
  <ellipse cx="626.7" cy="142.37" rx="1.32" ry="1.29" fill="#7854f7" fill-opacity="0.1"/>
  <ellipse cx="607.28" cy="142.37" rx="1.32" ry="1.29" fill="#7854f7" fill-opacity="0.1"/>
  <ellipse cx="684.96" cy="123.37" rx="1.32" ry="1.29" fill="#7854f7" fill-opacity="0.1"/>
  <ellipse cx="665.54" cy="123.37" rx="1.32" ry="1.29" fill="#7854f7" fill-opacity="0.1"/>
  <ellipse cx="646.12" cy="123.37" rx="1.32" ry="1.29" fill="#7854f7" fill-opacity="0.1"/>
  <ellipse cx="626.7" cy="123.37" rx="1.32" ry="1.29" fill="#7854f7" fill-opacity="0.1"/>
  <ellipse cx="607.28" cy="123.37" rx="1.32" ry="1.29" fill="#7854f7" fill-opacity="0.1"/>
  <ellipse cx="684.96" cy="104.37" rx="1.32" ry="1.29" fill="#7854f7" fill-opacity="0.1"/>
  <ellipse cx="665.54" cy="104.37" rx="1.32" ry="1.29" fill="#7854f7" fill-opacity="0.1"/>
  <ellipse cx="646.12" cy="104.37" rx="1.32" ry="1.29" fill="#7854f7" fill-opacity="0.1"/>
  <ellipse cx="626.7" cy="104.37" rx="1.32" ry="1.29" fill="#7854f7" fill-opacity="0.1"/>
  <ellipse cx="607.28" cy="104.37" rx="1.32" ry="1.29" fill="#7854f7" fill-opacity="0.1"/>
  <ellipse cx="684.96" cy="85.37" rx="1.32" ry="1.29" fill="#7854f7" fill-opacity="0.1"/>
  <ellipse cx="665.54" cy="85.37" rx="1.32" ry="1.29" fill="#7854f7" fill-opacity="0.1"/>
  <ellipse cx="646.12" cy="85.37" rx="1.32" ry="1.29" fill="#7854f7" fill-opacity="0.1"/>
  <ellipse cx="626.7" cy="85.37" rx="1.32" ry="1.29" fill="#7854f7" fill-opacity="0.1"/>
  <ellipse cx="607.28" cy="85.37" rx="1.32" ry="1.29" fill="#7854f7" fill-opacity="0.1"/>
  <ellipse cx="684.96" cy="66.37" rx="1.32" ry="1.29" fill="#7854f7" fill-opacity="0.1"/>
  <ellipse cx="665.54" cy="66.37" rx="1.32" ry="1.29" fill="#7854f7" fill-opacity="0.1"/>
  <ellipse cx="646.12" cy="66.37" rx="1.32" ry="1.29" fill="#7854f7" fill-opacity="0.1"/>
  <ellipse cx="626.7" cy="66.37" rx="1.32" ry="1.29" fill="#7854f7" fill-opacity="0.1"/>
  <ellipse cx="607.28" cy="66.37" rx="1.32" ry="1.29" fill="#7854f7" fill-opacity="0.1"/>
  <ellipse cx="684.96" cy="47.38" rx="1.32" ry="1.29" fill="#7854f7" fill-opacity="0.1"/>
  <ellipse cx="665.54" cy="47.38" rx="1.32" ry="1.29" fill="#7854f7" fill-opacity="0.1"/>
  <ellipse cx="646.12" cy="47.38" rx="1.32" ry="1.29" fill="#7854f7" fill-opacity="0.1"/>
  <ellipse cx="626.7" cy="47.38" rx="1.32" ry="1.29" fill="#7854f7" fill-opacity="0.1"/>
  <ellipse cx="607.28" cy="47.38" rx="1.32" ry="1.29" fill="#7854f7" fill-opacity="0.1"/>
  <ellipse cx="684.96" cy="28.38" rx="1.32" ry="1.29" fill="#7854f7" fill-opacity="0.1"/>
  <ellipse cx="665.54" cy="28.38" rx="1.32" ry="1.29" fill="#7854f7" fill-opacity="0.1"/>
  <ellipse cx="646.12" cy="28.38" rx="1.32" ry="1.29" fill="#7854f7" fill-opacity="0.1"/>
  <ellipse cx="626.7" cy="28.38" rx="1.32" ry="1.29" fill="#7854f7" fill-opacity="0.1"/>
  <ellipse cx="607.28" cy="28.38" rx="1.32" ry="1.29" fill="#7854f7" fill-opacity="0.1"/>
</svg>
