<svg width="94" height="340" viewBox="0 0 94 340" fill="none" xmlns="http://www.w3.org/2000/svg">
<ellipse cx="2.62426" cy="3.42619" rx="2.62426" ry="2.52677" fill="#4C78F2"/>
<ellipse cx="41.1135" cy="3.42619" rx="2.62426" ry="2.52677" fill="#4C78F2"/>
<ellipse cx="79.6028" cy="3.42619" rx="2.62426" ry="2.52677" fill="#4C78F2"/>
<ellipse cx="2.62426" cy="40.4855" rx="2.62426" ry="2.52677" fill="#4C78F2"/>
<ellipse cx="41.1135" cy="40.4855" rx="2.62426" ry="2.52677" fill="#4C78F2"/>
<ellipse cx="79.6028" cy="40.4855" rx="2.62426" ry="2.52677" fill="#4C78F2"/>
<ellipse cx="2.62426" cy="77.5448" rx="2.62426" ry="2.52677" fill="#4C78F2"/>
<ellipse cx="41.1135" cy="77.5448" rx="2.62426" ry="2.52677" fill="#4C78F2"/>
<ellipse cx="79.6028" cy="77.5448" rx="2.62426" ry="2.52677" fill="#4C78F2"/>
<ellipse cx="2.62426" cy="114.604" rx="2.62426" ry="2.52677" fill="#4C78F2"/>
<ellipse cx="41.1135" cy="114.604" rx="2.62426" ry="2.52677" fill="#4C78F2"/>
<ellipse cx="79.6028" cy="114.604" rx="2.62426" ry="2.52677" fill="#4C78F2"/>
<ellipse cx="2.62426" cy="151.663" rx="2.62426" ry="2.52677" fill="#4C78F2"/>
<ellipse cx="41.1135" cy="151.663" rx="2.62426" ry="2.52677" fill="#4C78F2"/>
<ellipse cx="79.6028" cy="151.663" rx="2.62426" ry="2.52677" fill="#4C78F2"/>
<ellipse cx="2.62426" cy="188.723" rx="2.62426" ry="2.52677" fill="#4C78F2"/>
<ellipse cx="41.1135" cy="188.723" rx="2.62426" ry="2.52677" fill="#4C78F2"/>
<ellipse cx="79.6028" cy="188.723" rx="2.62426" ry="2.52677" fill="#4C78F2"/>
<ellipse cx="2.62426" cy="225.782" rx="2.62426" ry="2.52677" fill="#4C78F2"/>
<ellipse cx="41.1135" cy="225.782" rx="2.62426" ry="2.52677" fill="#4C78F2"/>
<ellipse cx="79.6028" cy="225.782" rx="2.62426" ry="2.52677" fill="#4C78F2"/>
<ellipse cx="2.62426" cy="262.841" rx="2.62426" ry="2.52677" fill="#4C78F2"/>
<ellipse cx="41.1135" cy="262.841" rx="2.62426" ry="2.52677" fill="#4C78F2"/>
<ellipse cx="79.6028" cy="262.841" rx="2.62426" ry="2.52677" fill="#4C78F2"/>
<ellipse cx="2.62426" cy="299.901" rx="2.62426" ry="2.52677" fill="#4C78F2"/>
<ellipse cx="41.1135" cy="299.901" rx="2.62426" ry="2.52677" fill="#4C78F2"/>
<ellipse cx="79.6028" cy="299.901" rx="2.62426" ry="2.52677" fill="#4C78F2"/>
<ellipse cx="2.62426" cy="336.96" rx="2.62426" ry="2.52677" fill="#4C78F2"/>
<ellipse cx="41.1135" cy="336.96" rx="2.62426" ry="2.52677" fill="#4C78F2"/>
<ellipse cx="79.6028" cy="336.96" rx="2.62426" ry="2.52677" fill="#4C78F2"/>
</svg>
