<svg width="100%" height="100%" viewBox="0 0 292 500" fill="none" preserveAspectRatio="none" xmlns="http://www.w3.org/2000/svg">
<circle cx="2.84084" cy="2.8406" r="2.8406" fill="#4C78F2"/>
<circle cx="44.5025" cy="2.8406" r="2.8406" fill="#4C78F2"/>
<circle cx="86.1648" cy="2.8406" r="2.8406" fill="#4C78F2"/>
<circle cx="127.827" cy="2.8406" r="2.8406" fill="#4C78F2"/>
<circle cx="169.489" cy="2.8406" r="2.8406" fill="#4C78F2"/>
<circle cx="2.8406" cy="44.5027" r="2.8406" fill="#4C78F2"/>
<circle cx="44.5025" cy="44.5027" r="2.8406" fill="#4C78F2"/>
<circle cx="86.1648" cy="44.5027" r="2.8406" fill="#4C78F2"/>
<circle cx="127.827" cy="44.5027" r="2.8406" fill="#4C78F2"/>
<circle cx="169.489" cy="44.5027" r="2.8406" fill="#4C78F2"/>
<circle cx="2.8406" cy="86.1648" r="2.8406" fill="#4C78F2"/>
<circle cx="44.5025" cy="86.1648" r="2.8406" fill="#4C78F2"/>
<circle cx="86.1648" cy="86.1648" r="2.8406" fill="#4C78F2"/>
<circle cx="127.827" cy="86.1648" r="2.8406" fill="#4C78F2"/>
<circle cx="169.489" cy="86.1648" r="2.8406" fill="#4C78F2"/>
<circle cx="2.8406" cy="127.827" r="2.8406" fill="#4C78F2"/>
<circle cx="44.5025" cy="127.827" r="2.8406" fill="#4C78F2"/>
<circle cx="86.1648" cy="127.827" r="2.8406" fill="#4C78F2"/>
<circle cx="127.827" cy="127.827" r="2.8406" fill="#4C78F2"/>
<circle cx="169.489" cy="127.827" r="2.8406" fill="#4C78F2"/>
<circle cx="2.8406" cy="169.489" r="2.8406" fill="#4C78F2"/>
<circle cx="44.5025" cy="169.489" r="2.8406" fill="#4C78F2"/>
<circle cx="86.1648" cy="169.489" r="2.8406" fill="#4C78F2"/>
<circle cx="127.827" cy="169.489" r="2.8406" fill="#4C78F2"/>
<circle cx="169.489" cy="169.489" r="2.8406" fill="#4C78F2"/>
<circle cx="2.8406" cy="211.151" r="2.8406" fill="#4C78F2"/>
<circle cx="44.5025" cy="211.151" r="2.8406" fill="#4C78F2"/>
<circle cx="86.1648" cy="211.151" r="2.8406" fill="#4C78F2"/>
<circle cx="127.827" cy="211.151" r="2.8406" fill="#4C78F2"/>
<circle cx="169.489" cy="211.151" r="2.8406" fill="#4C78F2"/>
<circle cx="2.8406" cy="252.813" r="2.8406" fill="#4C78F2"/>
<circle cx="44.5025" cy="252.813" r="2.8406" fill="#4C78F2"/>
<circle cx="86.1648" cy="252.813" r="2.8406" fill="#4C78F2"/>
<circle cx="127.827" cy="252.813" r="2.8406" fill="#4C78F2"/>
<circle cx="169.489" cy="252.813" r="2.8406" fill="#4C78F2"/>
<circle cx="2.8406" cy="294.475" r="2.8406" fill="#4C78F2"/>
<circle cx="44.5025" cy="294.475" r="2.8406" fill="#4C78F2"/>
<circle cx="86.1648" cy="294.475" r="2.8406" fill="#4C78F2"/>
<circle cx="127.827" cy="294.475" r="2.8406" fill="#4C78F2"/>
<circle cx="169.489" cy="294.475" r="2.8406" fill="#4C78F2"/>
<circle cx="2.8406" cy="336.137" r="2.8406" fill="#4C78F2"/>
<circle cx="44.5025" cy="336.137" r="2.8406" fill="#4C78F2"/>
<circle cx="86.1648" cy="336.137" r="2.8406" fill="#4C78F2"/>
<circle cx="127.827" cy="336.137" r="2.8406" fill="#4C78F2"/>
<circle cx="169.489" cy="336.137" r="2.8406" fill="#4C78F2"/>
<circle cx="2.8406" cy="377.799" r="2.8406" fill="#4C78F2"/>
<circle cx="44.5025" cy="377.799" r="2.8406" fill="#4C78F2"/>
<circle cx="86.1648" cy="377.799" r="2.8406" fill="#4C78F2"/>
<circle cx="127.827" cy="377.799" r="2.8406" fill="#4C78F2"/>
<circle cx="169.489" cy="377.799" r="2.8406" fill="#4C78F2"/>
</svg>
