<svg width="100%" height="100%" viewBox="0 0 1440 416" fill="none" xmlns="http://www.w3.org/2000/svg">
<path d="M0 0C0 0 438.685 11.5946 720 11.5946C1001.31 11.5946 1440 0 1440 0V429C1440 429 1001.31 417.405 720 417.405C438.685 417.405 0 429 0 429L0 0Z" fill="url(#paint0_linear)"/>
<circle cx="1272.59" cy="116.588" r="2.58791" fill="white"/>
<circle cx="1310.54" cy="116.588" r="2.58791" fill="white"/>
<circle cx="1348.5" cy="116.588" r="2.58791" fill="white"/>
<circle cx="1386.46" cy="116.588" r="2.58791" fill="white"/>
<circle cx="1424.41" cy="116.588" r="2.58791" fill="white"/>
<circle cx="1272.59" cy="154.544" r="2.58791" fill="white"/>
<circle cx="1310.54" cy="154.544" r="2.58791" fill="white"/>
<circle cx="1348.5" cy="154.544" r="2.58791" fill="white"/>
<circle cx="1386.46" cy="154.544" r="2.58791" fill="white"/>
<circle cx="1424.41" cy="154.544" r="2.58791" fill="white"/>
<circle cx="1272.59" cy="192.5" r="2.58791" fill="white"/>
<circle cx="1310.54" cy="192.5" r="2.58791" fill="white"/>
<circle cx="1348.5" cy="192.5" r="2.58791" fill="white"/>
<circle cx="1386.46" cy="192.5" r="2.58791" fill="white"/>
<circle cx="1424.41" cy="192.5" r="2.58791" fill="white"/>
<circle cx="1272.59" cy="230.456" r="2.58791" fill="white"/>
<circle cx="1310.54" cy="230.456" r="2.58791" fill="white"/>
<circle cx="1348.5" cy="230.456" r="2.58791" fill="white"/>
<circle cx="1386.46" cy="230.456" r="2.58791" fill="white"/>
<circle cx="1424.41" cy="230.456" r="2.58791" fill="white"/>
<circle cx="1272.59" cy="268.412" r="2.58791" fill="white"/>
<circle cx="1310.54" cy="268.412" r="2.58791" fill="white"/>
<circle cx="1348.5" cy="268.412" r="2.58791" fill="white"/>
<circle cx="1386.46" cy="268.412" r="2.58791" fill="white"/>
<circle cx="1424.41" cy="268.412" r="2.58791" fill="white"/>
<circle cx="1272.59" cy="306.368" r="2.58791" fill="white"/>
<circle cx="1310.54" cy="306.368" r="2.58791" fill="white"/>
<circle cx="1348.5" cy="306.368" r="2.58791" fill="white"/>
<circle cx="1386.46" cy="306.368" r="2.58791" fill="white"/>
<circle cx="1424.41" cy="306.368" r="2.58791" fill="white"/>
<circle cx="1272.59" cy="344.324" r="2.58791" fill="white"/>
<circle cx="1310.54" cy="344.324" r="2.58791" fill="white"/>
<circle cx="1348.5" cy="344.324" r="2.58791" fill="white"/>
<circle cx="1386.46" cy="344.324" r="2.58791" fill="white"/>
<circle cx="1424.41" cy="344.324" r="2.58791" fill="white"/>
<circle cx="1272.59" cy="382.28" r="2.58791" fill="white"/>
<circle cx="1310.54" cy="382.28" r="2.58791" fill="white"/>
<circle cx="1348.5" cy="382.28" r="2.58791" fill="white"/>
<circle cx="1386.46" cy="382.28" r="2.58791" fill="white"/>
<circle cx="1424.41" cy="382.28" r="2.58791" fill="white"/>
<circle cx="4.54397" cy="274.588" r="2.58791" fill="white"/>
<circle cx="42.5" cy="274.588" r="2.58791" fill="white"/>
<circle cx="80.4558" cy="274.588" r="2.58791" fill="white"/>
<circle cx="118.412" cy="274.588" r="2.58791" fill="white"/>
<circle cx="4.54397" cy="312.544" r="2.58791" fill="white"/>
<circle cx="42.5" cy="312.544" r="2.58791" fill="white"/>
<circle cx="80.4558" cy="312.544" r="2.58791" fill="white"/>
<circle cx="118.412" cy="312.544" r="2.58791" fill="white"/>
<circle cx="4.54397" cy="350.5" r="2.58791" fill="white"/>
<circle cx="42.5" cy="350.5" r="2.58791" fill="white"/>
<circle cx="80.4558" cy="350.5" r="2.58791" fill="white"/>
<circle cx="118.412" cy="350.5" r="2.58791" fill="white"/>
<circle cx="4.54397" cy="388.456" r="2.58791" fill="white"/>
<circle cx="42.5" cy="388.456" r="2.58791" fill="white"/>
<circle cx="80.4558" cy="388.456" r="2.58791" fill="white"/>
<circle cx="118.412" cy="388.456" r="2.58791" fill="white"/>
<defs>
<linearGradient id="paint0_linear" x1="476.459" y1="132.243" x2="1178.14" y2="750.632" gradientUnits="userSpaceOnUse">
<stop stop-color="#7854F7"/>
<stop offset="1" stop-color="#3C84F0"/>
</linearGradient>
</defs>
</svg>
