<svg width="74" height="74" viewBox="0 0 74 74" fill="none" xmlns="http://www.w3.org/2000/svg">
<g clip-path="url(#clip0)">
<path d="M33.5214 58.5492V61.0967C33.5334 62.0112 33.9052 62.8842 34.5562 63.5267C35.2072 64.1692 36.085 64.5294 36.9997 64.5294C37.9143 64.5294 38.7921 64.1692 39.4431 63.5267C40.0941 62.8842 40.4659 62.0112 40.478 61.0967V58.5492C40.4659 57.6346 40.0941 56.7616 39.4431 56.1192C38.7921 55.4767 37.9143 55.1165 36.9997 55.1165C36.085 55.1165 35.2072 55.4767 34.5562 56.1192C33.9052 56.7616 33.5334 57.6346 33.5214 58.5492ZM38.3132 58.5492V61.0967C38.3132 61.4442 38.1751 61.7776 37.9293 62.0233C37.6836 62.2691 37.3503 62.4072 37.0027 62.4072C36.6551 62.4072 36.3218 62.2691 36.0761 62.0233C35.8303 61.7776 35.6922 61.4442 35.6922 61.0967V58.5492C35.6922 58.2016 35.8303 57.8683 36.0761 57.6225C36.3218 57.3768 36.6551 57.2387 37.0027 57.2387C37.3503 57.2387 37.6836 57.3768 37.9293 57.6225C38.1751 57.8683 38.3132 58.2016 38.3132 58.5492Z" fill="url(#paint0_linear)"/>
<path d="M33.5214 12.9567V15.5042C33.5334 16.4188 33.9052 17.2918 34.5562 17.9342C35.2072 18.5767 36.085 18.9369 36.9997 18.9369C37.9143 18.9369 38.7921 18.5767 39.4431 17.9342C40.0941 17.2918 40.4659 16.4188 40.478 15.5042V12.9567C40.4659 12.0421 40.0941 11.1691 39.4431 10.5267C38.7921 9.88421 37.9143 9.524 36.9997 9.524C36.085 9.524 35.2072 9.88421 34.5562 10.5267C33.9052 11.1691 33.5334 12.0421 33.5214 12.9567ZM38.3132 12.9567V15.5042C38.3132 15.8518 38.1751 16.1851 37.9293 16.4308C37.6836 16.6766 37.3503 16.8147 37.0027 16.8147C36.6551 16.8147 36.3218 16.6766 36.0761 16.4308C35.8303 16.1851 35.6922 15.8518 35.6922 15.5042V12.9567C35.6922 12.6091 35.8303 12.2758 36.0761 12.03C36.3218 11.7843 36.6551 11.6462 37.0027 11.6462C37.3503 11.6462 37.6836 11.7843 37.9293 12.03C38.1751 12.2758 38.3132 12.6091 38.3132 12.9567Z" fill="url(#paint1_linear)"/>
<path d="M18.9288 36.9994C18.9277 36.0772 18.5608 35.1931 17.9087 34.5411C17.2565 33.8891 16.3724 33.5224 15.4502 33.5214H13.0555C12.5934 33.5128 12.1342 33.5963 11.7047 33.7672C11.2753 33.9381 10.8842 34.1928 10.5543 34.5166C10.2245 34.8404 9.96244 35.2266 9.78357 35.6528C9.6047 36.079 9.51257 36.5366 9.51257 36.9988C9.51257 37.461 9.6047 37.9186 9.78357 38.3447C9.96244 38.7709 10.2245 39.1572 10.5543 39.481C10.8842 39.8047 11.2753 40.0595 11.7047 40.2304C12.1342 40.4012 12.5934 40.4848 13.0555 40.4762H15.4502C16.3722 40.4752 17.2562 40.1087 17.9083 39.4569C18.5604 38.8051 18.9274 37.9214 18.9288 36.9994ZM15.4502 38.3096H13.0555C12.708 38.3096 12.3746 38.1715 12.1289 37.9257C11.8831 37.68 11.7451 37.3466 11.7451 36.9991C11.7451 36.6515 11.8831 36.3182 12.1289 36.0724C12.3746 35.8267 12.708 35.6886 13.0555 35.6886H15.4502C15.7978 35.6886 16.1311 35.8267 16.3769 36.0724C16.6226 36.3182 16.7607 36.6515 16.7607 36.9991C16.7607 37.3466 16.6226 37.68 16.3769 37.9257C16.1311 38.1715 15.7978 38.3096 15.4502 38.3096Z" fill="url(#paint2_linear)"/>
<path d="M60.9439 40.4762C61.8664 40.4762 62.7511 40.1097 63.4034 39.4574C64.0557 38.8051 64.4222 37.9204 64.4222 36.9979C64.4222 36.0754 64.0557 35.1907 63.4034 34.5384C62.7511 33.8861 61.8664 33.5196 60.9439 33.5196H58.5498C57.6273 33.5196 56.7426 33.8861 56.0903 34.5384C55.438 35.1907 55.0715 36.0754 55.0715 36.9979C55.0715 37.9204 55.438 38.8051 56.0903 39.4574C56.7426 40.1097 57.6273 40.4762 58.5498 40.4762H60.9439ZM57.2391 36.9982C57.2395 36.6509 57.3777 36.3179 57.6233 36.0723C57.8689 35.8267 58.2019 35.6885 58.5492 35.688H60.9433C61.2909 35.688 61.6242 35.8261 61.8699 36.0719C62.1157 36.3176 62.2538 36.6509 62.2538 36.9985C62.2538 37.3461 62.1157 37.6794 61.8699 37.9251C61.6242 38.1709 61.2909 38.309 60.9433 38.309H58.5492C58.202 38.3085 57.8691 38.1704 57.6235 37.9249C57.378 37.6794 57.2397 37.3466 57.2391 36.9994V36.9982Z" fill="url(#paint3_linear)"/>
<path d="M30.7483 31.8813L23.1293 48.6435C23.0132 48.8996 22.9631 49.1806 22.9834 49.461C23.0037 49.7414 23.0939 50.0123 23.2456 50.249C23.3973 50.4857 23.6059 50.6807 23.8522 50.8162C24.0985 50.9517 24.3749 51.0234 24.656 51.0248C24.898 51.0244 25.1371 50.9721 25.3572 50.8714L42.1194 43.2524C42.6214 43.0242 43.0237 42.6219 43.2518 42.12L50.8708 25.3578C51.0124 25.046 51.0556 24.6984 50.9945 24.3614C50.9333 24.0245 50.7708 23.7142 50.5287 23.472C50.2865 23.2299 49.9762 23.0673 49.6393 23.0062C49.3023 22.9451 48.9547 22.9882 48.6429 23.1299L31.8807 30.7495C31.3787 30.9776 30.9764 31.3793 30.7483 31.8813ZM32.2604 33.7938L40.2063 41.7397L25.638 48.3615L32.2604 33.7938ZM41.7385 40.2069L33.7926 32.261L48.3609 25.6392L41.7385 40.2069Z" fill="url(#paint4_linear)"/>
<path d="M63.1636 10.8363C56.4981 4.17065 47.5397 0.30042 38.1174 0.0157884C28.6952 -0.268843 19.5195 3.05359 12.4639 9.30477C12.2487 9.49548 12.1181 9.76386 12.1008 10.0509C12.0922 10.193 12.1118 10.3354 12.1582 10.4699C12.2047 10.6045 12.2772 10.7286 12.3717 10.8351C12.4661 10.9417 12.5806 11.0286 12.7086 11.0908C12.8366 11.1531 12.9756 11.1896 13.1177 11.1982C13.4047 11.2155 13.6868 11.118 13.902 10.9273C20.6796 4.92245 29.5294 1.79326 38.5752 2.20317C47.6209 2.61308 56.1515 6.52985 62.3582 13.1231C68.5649 19.7163 71.9598 28.4677 71.8231 37.5217C71.6864 46.5757 68.0289 55.2206 61.626 61.6235C55.2231 68.0264 46.5783 71.6839 37.5242 71.8205C28.4702 71.9572 19.7189 68.5623 13.1256 62.3556C6.5324 56.1489 2.61563 47.6184 2.20572 38.5726C1.79581 29.5268 4.925 20.677 10.9299 13.8994C11.0261 13.7932 11.1004 13.669 11.1483 13.5339C11.1963 13.3988 11.217 13.2555 11.2092 13.1124C11.2014 12.9693 11.1652 12.8291 11.1029 12.7C11.0405 12.5709 10.9532 12.4555 10.846 12.3604C10.7387 12.2653 10.6136 12.1924 10.478 12.146C10.3424 12.0995 10.1989 12.0804 10.0559 12.0898C9.91284 12.0992 9.77308 12.1369 9.6447 12.2006C9.51631 12.2644 9.40184 12.353 9.30793 12.4613C4.51824 17.8675 1.41561 24.5574 0.382668 31.7059C-0.650274 38.8545 0.431646 46.149 3.495 52.69C6.55836 59.231 11.4692 64.7323 17.6218 68.5156C23.7745 72.2988 30.9 74.1986 38.1194 73.9805C45.3389 73.7624 52.3367 71.4361 58.2498 67.2884C64.1629 63.1407 68.7328 57.353 71.3957 50.639C74.0587 43.9251 74.6984 36.5785 73.2359 29.5054C71.7734 22.4322 68.2726 15.9418 63.1654 10.8345L63.1636 10.8363Z" fill="url(#paint5_linear)"/>
<path d="M15.8645 61.3078C22.1641 66.7852 30.3442 69.6027 38.6806 69.1665C47.017 68.7303 54.8585 65.0745 60.552 58.9696C66.2456 52.8647 69.3464 44.7877 69.201 36.4411C69.0555 28.0945 65.6751 20.1305 59.7723 14.2277C53.8695 8.32487 45.9054 4.94446 37.5589 4.799C29.2123 4.65354 21.1353 7.7544 15.0304 13.4479C8.92552 19.1415 5.26966 26.9829 4.83347 35.3193C4.39727 43.6558 7.21481 51.8359 12.6922 58.1355C12.7857 58.243 12.8994 58.3311 13.0269 58.3947C13.1544 58.4582 13.2932 58.4961 13.4353 58.506C13.5775 58.516 13.7202 58.4978 13.8553 58.4526C13.9904 58.4074 14.1153 58.336 14.2228 58.2425C14.3304 58.1491 14.4184 58.0353 14.482 57.9078C14.5456 57.7803 14.5834 57.6415 14.5934 57.4994C14.6033 57.3573 14.5852 57.2146 14.5399 57.0794C14.4947 56.9443 14.4234 56.8194 14.3299 56.7119C9.22129 50.8361 6.59354 43.2064 7.00054 35.431C7.40754 27.6556 10.8175 20.3419 16.5116 15.0316C22.2058 9.72133 29.7392 6.82923 37.5241 6.96495C45.309 7.10067 52.737 10.2536 58.2426 15.7592C63.7482 21.2647 66.9011 28.6928 67.0368 36.4777C67.1726 44.2626 64.2805 51.796 58.9702 57.4902C53.6598 63.1843 46.3462 66.5942 38.5708 67.0012C30.7954 67.4082 23.1657 64.7805 17.2899 59.6719C17.0727 59.4832 16.7895 59.3885 16.5025 59.4086C16.2155 59.4288 15.9482 59.5621 15.7595 59.7793C15.5708 59.9964 15.4761 60.2797 15.4963 60.5667C15.5164 60.8537 15.6497 61.1209 15.8669 61.3096L15.8645 61.3078Z" fill="url(#paint6_linear)"/>
</g>
<defs>
<linearGradient id="paint0_linear" x1="36.9997" y1="55.1165" x2="36.9997" y2="64.5294" gradientUnits="userSpaceOnUse">
<stop stop-color="#3C84F0"/>
<stop offset="1" stop-color="#A13CF0"/>
</linearGradient>
<linearGradient id="paint1_linear" x1="36.9997" y1="9.524" x2="36.9997" y2="18.9369" gradientUnits="userSpaceOnUse">
<stop stop-color="#3C84F0"/>
<stop offset="1" stop-color="#A13CF0"/>
</linearGradient>
<linearGradient id="paint2_linear" x1="14.2207" y1="33.5208" x2="14.2207" y2="40.4768" gradientUnits="userSpaceOnUse">
<stop stop-color="#3C84F0"/>
<stop offset="1" stop-color="#A13CF0"/>
</linearGradient>
<linearGradient id="paint3_linear" x1="59.7469" y1="33.5196" x2="59.7469" y2="40.4762" gradientUnits="userSpaceOnUse">
<stop stop-color="#3C84F0"/>
<stop offset="1" stop-color="#A13CF0"/>
</linearGradient>
<linearGradient id="paint4_linear" x1="37.0002" y1="22.9792" x2="37.0002" y2="51.0248" gradientUnits="userSpaceOnUse">
<stop stop-color="#3C84F0"/>
<stop offset="1" stop-color="#A13CF0"/>
</linearGradient>
<linearGradient id="paint5_linear" x1="37.0023" y1="-0.00109863" x2="37.0023" y2="73.9974" gradientUnits="userSpaceOnUse">
<stop stop-color="#3C84F0"/>
<stop offset="1" stop-color="#A13CF0"/>
</linearGradient>
<linearGradient id="paint6_linear" x1="36.9977" y1="4.79411" x2="36.9977" y2="69.2105" gradientUnits="userSpaceOnUse">
<stop stop-color="#3C84F0"/>
<stop offset="1" stop-color="#A13CF0"/>
</linearGradient>
<clipPath id="clip0">
<rect width="74" height="74" fill="white"/>
</clipPath>
</defs>
</svg>
