<svg width="129" height="76" viewBox="0 0 129 76" fill="none" xmlns="http://www.w3.org/2000/svg">
<path d="M7.12817 38.3792H10.3801C12.0208 38.3645 13.3171 37.9397 14.2693 37.1047C15.2361 36.2698 15.7195 35.0613 15.7195 33.4792C15.7195 31.9558 15.3167 30.7766 14.511 29.9417C13.72 29.092 12.5042 28.6672 10.8635 28.6672C9.42798 28.6672 8.24878 29.0847 7.32593 29.9197C6.40308 30.74 5.94165 31.8167 5.94165 33.1497H0.602295C0.602295 31.509 1.03442 30.0149 1.89868 28.6672C2.77759 27.3196 3.99341 26.2722 5.54614 25.5251C7.11353 24.7634 8.86401 24.3826 10.7976 24.3826C13.991 24.3826 16.4958 25.1882 18.3123 26.7996C20.1433 28.3962 21.0588 30.6228 21.0588 33.4792C21.0588 34.9148 20.5974 36.2698 19.6746 37.5442C18.7664 38.804 17.5872 39.7561 16.137 40.4006C17.8948 41.0012 19.2278 41.946 20.136 43.2351C21.0588 44.5242 21.5203 46.0623 21.5203 47.8494C21.5203 50.7205 20.5315 53.0056 18.554 54.7048C16.5911 56.4041 14.0056 57.2537 10.7976 57.2537C7.72144 57.2537 5.2019 56.4333 3.23901 54.7927C1.27612 53.1521 0.294678 50.9695 0.294678 48.2449H5.63403C5.63403 49.6511 6.10278 50.7937 7.04028 51.6726C7.99243 52.5515 9.26685 52.991 10.8635 52.991C12.5188 52.991 13.8225 52.5515 14.7747 51.6726C15.7268 50.7937 16.2029 49.5193 16.2029 47.8494C16.2029 46.1648 15.7048 44.8684 14.7087 43.9602C13.7126 43.052 12.2332 42.5979 10.2703 42.5979H7.12817V38.3792Z" fill="white"/>
<g clip-path="url(#clip0)">
<path d="M85.2501 75.9024C87.3521 75.8987 89.3826 75.1389 90.9707 73.762C92.5589 72.385 93.5987 70.4826 93.9003 68.4024H107.233L105.617 70.0183L107.384 71.7859L111.134 68.0365C111.25 67.9205 111.342 67.7827 111.405 67.6311C111.468 67.4794 111.5 67.3169 111.5 67.1527C111.5 66.9886 111.468 66.8261 111.405 66.6744C111.342 66.5228 111.25 66.385 111.134 66.269L107.384 62.519L105.617 64.2878L107.233 65.9037H93.9003C93.6601 64.2446 92.9481 62.6895 91.8491 61.4236C90.7501 60.1577 89.3104 59.2343 87.7015 58.7634C86.0926 58.2926 84.3822 58.2941 82.7741 58.7677C81.166 59.2413 79.7279 60.1672 78.6311 61.435C77.5343 62.7028 76.825 64.2591 76.5876 65.9186C76.3503 67.5781 76.5949 69.2709 77.2923 70.7953C77.9898 72.3198 79.1106 73.6116 80.5215 74.5171C81.9323 75.4225 83.5737 75.9034 85.2501 75.9024ZM85.2501 60.9024C86.4862 60.9024 87.6946 61.269 88.7224 61.9557C89.7502 62.6425 90.5513 63.6186 91.0244 64.7606C91.4974 65.9027 91.6212 67.1594 91.38 68.3717C91.1389 69.5841 90.5436 70.6978 89.6695 71.5718C88.7954 72.4459 87.6818 73.0412 86.4694 73.2823C85.257 73.5235 84.0004 73.3997 82.8583 72.9267C81.7163 72.4536 80.7402 71.6525 80.0534 70.6247C79.3667 69.5969 79.0001 68.3886 79.0001 67.1524C79.0021 65.4954 79.6613 63.9069 80.8329 62.7352C82.0046 61.5636 83.5931 60.9045 85.2501 60.9024Z" fill="white"/>
<path d="M120.25 75.9024C121.981 75.9024 123.672 75.3892 125.111 74.4277C126.55 73.4663 127.672 72.0997 128.334 70.5008C128.996 68.902 129.169 67.1426 128.832 65.4453C128.494 63.748 127.661 62.1889 126.437 60.9652C125.213 59.7415 123.654 58.9081 121.957 58.5705C120.26 58.2329 118.5 58.4061 116.902 59.0684C115.303 59.7307 113.936 60.8522 112.975 62.2911C112.013 63.73 111.5 65.4218 111.5 67.1524C111.503 69.4722 112.425 71.6962 114.066 73.3365C115.706 74.9769 117.93 75.8997 120.25 75.9024ZM120.25 60.9024C121.486 60.9024 122.695 61.2689 123.722 61.9557C124.75 62.6424 125.551 63.6185 126.024 64.7606C126.497 65.9026 126.621 67.1593 126.38 68.3717C126.139 69.5841 125.543 70.6977 124.669 71.5718C123.795 72.4459 122.682 73.0411 121.469 73.2823C120.257 73.5234 119 73.3996 117.858 72.9266C116.716 72.4536 115.74 71.6525 115.053 70.6247C114.367 69.5969 114 68.3885 114 67.1524C114.002 65.4954 114.661 63.9068 115.833 62.7352C117.004 61.5635 118.593 60.9044 120.25 60.9024Z" fill="white"/>
<path d="M80.25 29.6523C78.148 29.6561 76.1175 30.4158 74.5294 31.7928C72.9412 33.1698 71.9014 35.0721 71.5998 37.1523H69.625C65.481 37.1523 61.5067 38.7985 58.5765 41.7288C55.6462 44.6591 54 48.6333 54 52.7773C54 56.9214 55.6462 60.8956 58.5765 63.8259C61.5067 66.7561 65.481 68.4023 69.625 68.4023H72.2318L70.6166 70.0183L72.3841 71.7858L76.1341 68.0352C76.2502 67.9191 76.3423 67.7814 76.4052 67.6297C76.468 67.4781 76.5003 67.3155 76.5003 67.1514C76.5003 66.9872 76.468 66.8247 76.4052 66.6731C76.3423 66.5214 76.2502 66.3837 76.1341 66.2676L72.3841 62.5176L70.6166 64.2864L72.2318 65.9024H69.625C66.144 65.9024 62.8056 64.5195 60.3442 62.0581C57.8828 59.5967 56.5 56.2583 56.5 52.7773C56.5 49.2964 57.8828 45.958 60.3442 43.4966C62.8056 41.0352 66.144 39.6523 69.625 39.6523H71.5998C71.8403 41.3113 72.5524 42.8663 73.6516 44.132C74.7507 45.3977 76.1904 46.3209 77.7993 46.7916C79.4082 47.2623 81.1185 47.2606 82.7265 46.7869C84.3345 46.3131 85.7725 45.3872 86.8692 44.1194C87.9659 42.8515 88.6751 41.2952 88.9123 39.6358C89.1496 37.9763 88.905 36.2836 88.2075 34.7593C87.5101 33.2349 86.3892 31.9431 84.9784 31.0377C83.5676 30.1323 81.9263 29.6514 80.25 29.6523ZM80.25 44.6523C79.0139 44.6523 77.8055 44.2858 76.7777 43.599C75.7499 42.9123 74.9488 41.9362 74.4758 40.7941C74.0027 39.6521 73.8789 38.3954 74.1201 37.183C74.3612 35.9707 74.9565 34.857 75.8306 33.9829C76.7047 33.1089 77.8183 32.5136 79.0307 32.2724C80.2431 32.0313 81.4997 32.1551 82.6418 32.6281C83.7838 33.1011 84.7599 33.9022 85.4467 34.93C86.1334 35.9578 86.5 37.1662 86.5 38.4023C86.498 40.0593 85.8388 41.6479 84.6672 42.8195C83.4955 43.9912 81.907 44.6503 80.25 44.6523Z" fill="white"/>
<path d="M84.8841 5.01822L83.1166 6.78766L84.7325 8.40358H71.4002C71.0842 6.21409 69.9506 4.22557 68.2275 2.83821C66.5045 1.45085 64.3199 0.767625 62.1134 0.926044C59.9069 1.08446 57.8423 2.07276 56.3351 3.69205C54.8279 5.31133 53.99 7.4414 53.99 9.65358C53.99 11.8658 54.8279 13.9958 56.3351 15.6151C57.8423 17.2344 59.9069 18.2227 62.1134 18.3811C64.3199 18.5395 66.5045 17.8563 68.2275 16.4689C69.9506 15.0816 71.0842 13.0931 71.4002 10.9036H84.7325L83.1166 12.5195L84.8841 14.287L88.6341 10.5364C88.7502 10.4204 88.8423 10.2826 88.9052 10.1309C88.968 9.9793 89.0004 9.81677 89.0004 9.65262C89.0004 9.48847 88.968 9.32593 88.9052 9.17429C88.8423 9.02265 88.7502 8.88488 88.6341 8.76885L84.8841 5.01822ZM62.75 15.9023C61.5139 15.9023 60.3055 15.5357 59.2777 14.849C58.2499 14.1622 57.4488 13.1861 56.9758 12.0441C56.5027 10.902 56.379 9.64537 56.6201 8.43298C56.8613 7.2206 57.4565 6.10696 58.3306 5.23288C59.2047 4.3588 60.3183 3.76355 61.5307 3.52239C62.7431 3.28123 63.9998 3.405 65.1418 3.87805C66.2838 4.3511 67.26 5.15218 67.9467 6.17999C68.6335 7.20779 69 8.41617 69 9.6523C68.998 11.3093 68.3389 12.8978 67.1672 14.0695C65.9956 15.2411 64.407 15.9003 62.75 15.9023Z" fill="white"/>
<path d="M129 24.0274C128.995 19.8845 127.347 15.9127 124.418 12.9834C121.488 10.0541 117.516 8.40659 113.373 8.40236H106.4C106.084 6.21287 104.951 4.22435 103.228 2.83699C101.504 1.44963 99.3199 0.766405 97.1134 0.924824C94.9069 1.08324 92.8423 2.07154 91.3351 3.69083C89.8279 5.31011 88.99 7.44018 88.99 9.65236C88.99 11.8645 89.8279 13.9946 91.3351 15.6139C92.8423 17.2332 94.9069 18.2215 97.1134 18.3799C99.3199 18.5383 101.504 17.8551 103.228 16.4677C104.951 15.0804 106.084 13.0918 106.4 10.9024H113.373C116.854 10.9024 120.192 12.2852 122.654 14.7466C125.115 17.208 126.498 20.5464 126.498 24.0274C126.498 27.5083 125.115 30.8467 122.654 33.3081C120.192 35.7696 116.854 37.1524 113.373 37.1524H93.2676L94.8854 35.5364L93.1179 33.7689L89.3679 37.5189C89.2518 37.6349 89.1596 37.7727 89.0968 37.9244C89.034 38.076 89.0016 38.2385 89.0016 38.4027C89.0016 38.5668 89.034 38.7294 89.0968 38.881C89.1596 39.0326 89.2518 39.1704 89.3679 39.2864L93.1179 43.0364L94.8854 41.2683L93.2695 39.6524H113.373C117.516 39.6481 121.488 38.0006 124.418 35.0713C127.347 32.1421 128.995 28.1702 129 24.0274ZM97.75 15.903C96.5139 15.903 95.3055 15.5364 94.2777 14.8497C93.2499 14.1629 92.4488 13.1868 91.9758 12.0448C91.5027 10.9027 91.379 9.64606 91.6201 8.43368C91.8613 7.2213 92.4565 6.10766 93.3306 5.23358C94.2047 4.3595 95.3183 3.76425 96.5307 3.52309C97.7431 3.28193 98.9998 3.4057 100.142 3.87875C101.284 4.3518 102.26 5.15288 102.947 6.18068C103.633 7.20849 104 8.41686 104 9.653C103.998 11.3099 103.339 12.8982 102.167 14.0698C100.995 15.2413 99.4069 15.9003 97.75 15.9024V15.903Z" fill="white"/>
</g>
<defs>
<clipPath id="clip0">
<rect width="75" height="75" fill="white" transform="translate(54 0.902344)"/>
</clipPath>
</defs>
</svg>
