<svg width="100%" height="100%" viewBox="0 0 1006 163" fill="none" xmlns="http://www.w3.org/2000/svg">
<path opacity="0.6" d="M0 75.0378C65.542 56.4723 274.305 20.9795 425.416 101.248C509.786 146.064 696.687 231.206 954 51.0118" stroke="url(#paint0_linear)" stroke-width="4" stroke-linecap="round" stroke-dasharray="14.88 14.88"/>
<path opacity="0.4" d="M966 41L951.718 51.4728" stroke="url(#paint1_linear)" stroke-width="5.75466" stroke-linecap="round" stroke-linejoin="round"/>
<path d="M951.716 51.474L929.601 30.2595C926.703 27.4798 928.488 22.5807 932.497 22.3167L996.612 18.1173C1000.26 17.8759 1002.73 21.7713 1000.95 24.9639L969.946 80.866C968.004 84.3678 962.837 83.9106 961.539 80.1226L951.716 51.474" stroke="url(#paint2_linear)" stroke-width="5.75466" stroke-linecap="round" stroke-linejoin="round"/>
<defs>
<linearGradient id="paint0_linear" x1="112.323" y1="76.7319" x2="942.197" y2="59.7804" gradientUnits="userSpaceOnUse">
<stop stop-color="#6763F6"/>
<stop offset="1" stop-color="#3C84F0"/>
</linearGradient>
<linearGradient id="paint1_linear" x1="960.282" y1="39.7464" x2="957.436" y2="52.7264" gradientUnits="userSpaceOnUse">
<stop stop-color="#7854F7"/>
<stop offset="1" stop-color="#3C84F0"/>
</linearGradient>
<linearGradient id="paint2_linear" x1="967.758" y1="11.5992" x2="952.663" y2="80.4531" gradientUnits="userSpaceOnUse">
<stop stop-color="#7854F7"/>
<stop offset="1" stop-color="#3C84F0"/>
</linearGradient>
</defs>
</svg>
