<svg width="100%" height="100%" viewBox="0 0 440 44" fill="none" xmlns="http://www.w3.org/2000/svg">
<path fill-rule="evenodd" clip-rule="evenodd" d="M26.6782 5.65972H14.8619C11.1677 5.64551 8.13945 8.59025 8.05242 12.2827V31.3099C7.97072 35.0627 10.9457 38.1726 14.6985 38.2561C14.7536 38.2561 14.8069 38.2579 14.8619 38.2561H29.051C32.7701 38.1051 35.7006 35.0325 35.674 31.3099V15.0303L26.6782 5.65972Z" stroke="url(#paint0_linear)" stroke-width="2.55755" stroke-linecap="round" stroke-linejoin="round"/>
<path d="M26.2109 5.63977V10.8064C26.2109 13.3284 28.2499 15.3727 30.7719 15.3798H35.665" stroke="url(#paint1_linear)" stroke-width="2.55755" stroke-linecap="round" stroke-linejoin="round"/>
<path d="M25.8789 28.0332H16.2881" stroke="url(#paint2_linear)" stroke-width="2.55755" stroke-linecap="round" stroke-linejoin="round"/>
<path d="M22.2476 21.3686H16.2871" stroke="url(#paint3_linear)" stroke-width="2.55755" stroke-linecap="round" stroke-linejoin="round"/>
<defs>
<linearGradient id="paint0_linear" x1="21.8625" y1="5.65967" x2="21.8625" y2="38.2569" gradientUnits="userSpaceOnUse">
<stop stop-color="#7854F7"/>
<stop offset="1" stop-color="#3C84F0"/>
</linearGradient>
<linearGradient id="paint1_linear" x1="30.938" y1="5.63977" x2="30.938" y2="15.3798" gradientUnits="userSpaceOnUse">
<stop stop-color="#7854F7"/>
<stop offset="1" stop-color="#3C84F0"/>
</linearGradient>
<linearGradient id="paint2_linear" x1="21.0835" y1="27.1452" x2="21.0835" y2="28.9213" gradientUnits="userSpaceOnUse">
<stop stop-color="#7854F7"/>
<stop offset="1" stop-color="#3C84F0"/>
</linearGradient>
<linearGradient id="paint3_linear" x1="19.2674" y1="20.4805" x2="19.2674" y2="22.2566" gradientUnits="userSpaceOnUse">
<stop stop-color="#7854F7"/>
<stop offset="1" stop-color="#3C84F0"/>
</linearGradient>
</defs>
</svg>
