<svg width="112" height="33" viewBox="0 0 112 33" fill="none" xmlns="http://www.w3.org/2000/svg">
<g clip-path="url(#clip0)">
<path d="M18.6407 13.8526C18.6407 16.0075 16.9252 17.7313 14.7808 17.7313C12.6364 17.7313 10.9209 16.0075 10.9209 13.8526C10.9209 11.6978 12.6364 9.97388 14.7808 9.97388C16.9252 9.97388 18.6407 11.6978 18.6407 13.8526Z" fill="#2A68B1"/>
<path d="M16.5575 7.88057C18.6406 8.49624 20.2948 10.2201 20.8463 12.375L26.8505 1.84698L16.5575 7.88057Z" fill="#5FB776"/>
<path d="M40.2682 7.0802H37.021V29.3675H40.2682V7.0802Z" fill="white"/>
<path d="M49.1521 7.0802C50.9902 7.0802 52.2768 7.57274 53.1345 8.61938C53.8698 9.54289 54.2374 10.7742 54.2374 12.375V15.638C54.2374 17.2388 53.686 18.5317 52.5219 19.6399L54.9113 29.3675H51.419L49.3972 20.9328C49.3359 20.9328 49.2134 20.9328 49.0909 20.9328H47.2528V29.3059H44.0056V7.0802H49.1521ZM51.0514 12.4365C51.0514 11.1436 50.4388 10.528 49.2134 10.528H47.2528V17.6698H49.2134C49.7648 17.6698 50.1937 17.4851 50.5 17.1156C50.8676 16.7462 51.0514 16.2537 51.0514 15.7612V12.4365Z" fill="white"/>
<path d="M63.1213 29.6138C61.6508 29.6138 60.4867 29.1212 59.5064 28.0746C58.5262 27.0279 58.036 25.7966 58.036 24.319V12.0671C58.036 10.5895 58.5262 9.29659 59.5677 8.31152C60.548 7.26488 61.7734 6.77234 63.1825 6.77234C64.653 6.77234 65.817 7.32644 66.7973 8.31152C67.7776 9.29659 68.2678 10.5895 68.2678 12.0671V14.5914H64.898V12.0055C64.898 11.4514 64.7142 11.0205 64.3466 10.6511C63.979 10.2817 63.5501 10.097 62.9987 10.097C62.5086 10.097 62.0797 10.2817 61.7121 10.6511C61.3445 11.0205 61.1607 11.513 61.1607 12.0055V24.2574C61.1607 24.8115 61.3445 25.2425 61.7121 25.6119C62.0797 25.9813 62.5086 26.166 62.9987 26.166C63.5501 26.166 63.979 25.9813 64.3466 25.6119C64.7142 25.2425 64.898 24.75 64.898 24.2574V21.1791H68.2678V24.2574C68.2678 25.735 67.7776 27.0279 66.7361 28.013C65.7558 29.1212 64.5304 29.6138 63.1213 29.6138Z" fill="white"/>
<path d="M75.0073 19.9477V29.3675H71.7601V7.0802H75.0073V16.5615H78.9285V7.0802H82.1757V29.3675H78.9285V19.9477H75.0073Z" fill="white"/>
<path d="M89.8955 24.2574L89.099 29.3675H85.7292L89.3441 7.0802H93.8166L97.4315 29.3675H94.0617L93.2652 24.2574H89.8955ZM91.611 12.1903L90.3856 20.9328H92.7751L91.611 12.1903Z" fill="white"/>
<path d="M111.278 24.0112C111.278 25.4888 110.788 26.7201 109.807 27.7668C108.827 28.8134 107.602 29.3059 106.193 29.3059H101.107V7.0802H106.193C107.602 7.0802 108.827 7.6343 109.807 8.61938C110.788 9.66602 111.278 10.8974 111.278 12.375V24.0112ZM104.293 26.0429H106.254C106.805 26.0429 107.234 25.8582 107.541 25.4888C107.908 25.1194 108.092 24.6268 108.092 24.1343V12.4365C108.092 11.8824 107.908 11.4515 107.541 11.0821C107.173 10.7127 106.744 10.528 106.254 10.528H104.293V26.0429Z" fill="white"/>
<path d="M24.0323 29.0597L21.214 22.7183C20.4787 21.056 17.783 19.8246 14.7808 19.8246C11.7787 19.8246 9.08289 21.056 8.34767 22.7183L5.46807 29.0597C5.16173 29.7985 5.223 30.1679 5.65188 30.8452C6.63217 32.3843 9.14416 33 11.9012 33H17.5991C20.3562 33 22.8682 32.3843 23.8485 30.8452C24.2774 30.1064 24.3386 29.7985 24.0323 29.0597Z" fill="#F6F6F6"/>
<path d="M18.6407 13.8526C18.6407 16.0075 16.9252 17.7313 14.7808 17.7313C12.6364 17.7313 10.9209 16.0075 10.9209 13.8526C10.9209 11.6978 12.6364 9.97388 14.7808 9.97388C16.9252 9.97388 18.6407 11.6978 18.6407 13.8526Z" fill="white"/>
<path d="M14.6582 17.7314C14.6582 17.7314 14.7195 17.7314 14.6582 17.7314C14.7195 17.7314 14.6582 17.7314 14.6582 17.7314ZM18.6406 13.7295C18.6406 13.7295 18.6406 13.7911 18.6406 13.7295C18.6406 13.7911 18.6406 13.7295 18.6406 13.7295ZM18.6406 13.5448C18.6406 13.5448 18.6406 13.6064 18.6406 13.5448C18.6406 13.6064 18.6406 13.5448 18.6406 13.5448ZM18.6406 13.4833C18.6406 13.4833 18.6406 13.5448 18.6406 13.4833C18.6406 13.5448 18.6406 13.4833 18.6406 13.4833ZM18.5794 13.4217C18.6406 13.4217 18.6406 13.4217 18.5794 13.4217C18.6406 13.4217 18.6406 13.4217 18.5794 13.4217Z" fill="#2A68B1"/>
<path d="M17.2314 10.8358C17.7828 11.5131 18.1505 12.375 18.1505 13.2985C18.1505 15.4534 16.4349 17.1772 14.2906 17.1772C13.3715 17.1772 12.5138 16.8078 11.8398 16.2537C12.4525 17.0541 13.4328 17.5466 14.5356 17.6698C14.5356 17.6698 14.5356 17.6698 14.5969 17.6698C16.7413 17.6698 18.4568 15.9459 18.4568 13.791C18.4568 12.3134 17.9666 11.4515 17.2314 10.8358Z" fill="#F6F6F6"/>
<path d="M14.9034 19.8246C12.6365 19.8246 9.20546 21.056 8.47024 22.7183L5.52937 29.0597C5.34557 29.4291 5.2843 29.7985 5.2843 30.1064C5.34557 30.2911 5.40684 30.4758 5.59064 30.6605C5.59064 30.722 5.65191 30.722 5.65191 30.7836C6.6322 32.3228 9.14419 32.9384 11.9013 32.9384H14.9034V19.8246Z" fill="white"/>
<path d="M26.728 1.97015L16.5575 7.94217C17.5991 8.25 18.5181 8.80411 19.2533 9.54291L26.728 1.97015Z" fill="#75BE88"/>
<path d="M14.7808 3.20149C16.1287 3.20149 17.4153 3.50933 18.5794 3.9403L21.8266 2.03172C19.7435 0.738806 17.2928 0 14.7195 0C7.12228 0 0.934204 6.21828 0.934204 13.8526C0.934204 18.1007 2.83351 21.9179 5.83565 24.4422L6.93847 22.041C6.99974 21.7948 7.18354 21.6101 7.30608 21.4254C5.3455 19.5168 4.18141 16.8078 4.18141 13.8526C4.18141 7.94216 8.89905 3.20149 14.7808 3.20149Z" fill="white"/>
<path d="M24.7675 10.2818C25.1964 11.39 25.3802 12.6213 25.3802 13.8527C25.3802 16.8079 24.2161 19.5168 22.2555 21.4254C22.378 21.6101 22.5006 21.8564 22.6231 22.0411L23.6647 24.3191C26.6055 21.7948 28.5048 18.0392 28.5048 13.7911C28.5048 11.2668 27.8309 8.92728 26.6668 6.89557L24.7675 10.2818Z" fill="#F6F6F6"/>
</g>
<defs>
<clipPath id="clip0">
<rect width="110.344" height="33" fill="white" transform="translate(0.934204)"/>
</clipPath>
</defs>
</svg>
