<svg width="111" height="33" viewBox="0 0 111 33" fill="none" xmlns="http://www.w3.org/2000/svg">
<g clip-path="url(#clip0)">
<path d="M17.7065 13.8526C17.7065 16.0075 15.991 17.7313 13.8466 17.7313C11.7022 17.7313 9.98669 16.0075 9.98669 13.8526C9.98669 11.6978 11.7022 9.97388 13.8466 9.97388C15.991 9.97388 17.7065 11.6978 17.7065 13.8526Z" fill="#2A68B1"/>
<path d="M15.6233 7.88057C17.7064 8.49624 19.3606 10.2201 19.9121 12.375L25.9163 1.84698L15.6233 7.88057Z" fill="#5FB776"/>
<path d="M39.334 7.0802H36.0868V29.3675H39.334V7.0802Z" fill="#3C84F0"/>
<path d="M48.2179 7.0802C50.056 7.0802 51.3426 7.57274 52.2003 8.61938C52.9356 9.54289 53.3032 10.7742 53.3032 12.375V15.638C53.3032 17.2388 52.7518 18.5317 51.5877 19.6399L53.9771 29.3675H50.4848L48.463 20.9328C48.4017 20.9328 48.2792 20.9328 48.1567 20.9328H46.3186V29.3059H43.0714V7.0802H48.2179ZM50.1172 12.4365C50.1172 11.1436 49.5046 10.528 48.2792 10.528H46.3186V17.6698H48.2792C48.8306 17.6698 49.2595 17.4851 49.5658 17.1156C49.9334 16.7462 50.1172 16.2537 50.1172 15.7612V12.4365Z" fill="#3C84F0"/>
<path d="M62.187 29.6138C60.7166 29.6138 59.5525 29.1212 58.5722 28.0746C57.592 27.0279 57.1018 25.7966 57.1018 24.319V12.0671C57.1018 10.5895 57.592 9.29659 58.6335 8.31152C59.6138 7.26488 60.8392 6.77234 62.2483 6.77234C63.7187 6.77234 64.8828 7.32644 65.8631 8.31152C66.8434 9.29659 67.3336 10.5895 67.3336 12.0671V14.5914H63.9638V12.0055C63.9638 11.4514 63.78 11.0205 63.4124 10.6511C63.0448 10.2817 62.6159 10.097 62.0645 10.097C61.5744 10.097 61.1455 10.2817 60.7779 10.6511C60.4103 11.0205 60.2265 11.513 60.2265 12.0055V24.2574C60.2265 24.8115 60.4103 25.2425 60.7779 25.6119C61.1455 25.9813 61.5744 26.166 62.0645 26.166C62.6159 26.166 63.0448 25.9813 63.4124 25.6119C63.78 25.2425 63.9638 24.75 63.9638 24.2574V21.1791H67.3336V24.2574C67.3336 25.735 66.8434 27.0279 65.8019 28.013C64.8216 29.1212 63.5962 29.6138 62.187 29.6138Z" fill="#3C84F0"/>
<path d="M74.0731 19.9477V29.3675H70.8259V7.0802H74.0731V16.5615H77.9943V7.0802H81.2415V29.3675H77.9943V19.9477H74.0731Z" fill="#3C84F0"/>
<path d="M88.9613 24.2574L88.1648 29.3675H84.795L88.4099 7.0802H92.8824L96.4973 29.3675H93.1275L92.331 24.2574H88.9613ZM90.6768 12.1903L89.4514 20.9328H91.8409L90.6768 12.1903Z" fill="#3C84F0"/>
<path d="M110.344 24.0112C110.344 25.4888 109.854 26.7201 108.873 27.7668C107.893 28.8134 106.668 29.3059 105.258 29.3059H100.173V7.0802H105.258C106.668 7.0802 107.893 7.6343 108.873 8.61938C109.854 9.66602 110.344 10.8974 110.344 12.375V24.0112ZM103.359 26.0429H105.32C105.871 26.0429 106.3 25.8582 106.606 25.4888C106.974 25.1194 107.158 24.6268 107.158 24.1343V12.4365C107.158 11.8824 106.974 11.4515 106.606 11.0821C106.239 10.7127 105.81 10.528 105.32 10.528H103.359V26.0429Z" fill="#3C84F0"/>
<path d="M23.0981 29.0597L20.2798 22.7183C19.5445 21.056 16.8487 19.8246 13.8466 19.8246C10.8445 19.8246 8.14868 21.056 7.41347 22.7183L4.53387 29.0597C4.22753 29.7985 4.2888 30.1679 4.71767 30.8452C5.69796 32.3843 8.20995 33 10.967 33H16.6649C19.422 33 21.934 32.3843 22.9143 30.8452C23.3432 30.1064 23.4044 29.7985 23.0981 29.0597Z" fill="#F6F6F6"/>
<path d="M17.7065 13.8526C17.7065 16.0075 15.991 17.7313 13.8466 17.7313C11.7022 17.7313 9.98669 16.0075 9.98669 13.8526C9.98669 11.6978 11.7022 9.97388 13.8466 9.97388C15.991 9.97388 17.7065 11.6978 17.7065 13.8526Z" fill="#3C84F0"/>
<path d="M13.724 17.7314C13.724 17.7314 13.7853 17.7314 13.724 17.7314C13.7853 17.7314 13.724 17.7314 13.724 17.7314ZM17.7064 13.7295C17.7064 13.7295 17.7064 13.7911 17.7064 13.7295C17.7064 13.7911 17.7064 13.7295 17.7064 13.7295ZM17.7064 13.5448C17.7064 13.5448 17.7064 13.6064 17.7064 13.5448C17.7064 13.6064 17.7064 13.5448 17.7064 13.5448ZM17.7064 13.4833C17.7064 13.4833 17.7064 13.5448 17.7064 13.4833C17.7064 13.5448 17.7064 13.4833 17.7064 13.4833ZM17.6452 13.4217C17.7064 13.4217 17.7064 13.4217 17.6452 13.4217C17.7064 13.4217 17.7064 13.4217 17.6452 13.4217Z" fill="#2A68B1"/>
<path d="M16.2972 10.8358C16.8486 11.5131 17.2162 12.375 17.2162 13.2985C17.2162 15.4534 15.5007 17.1772 13.3564 17.1772C12.4373 17.1772 11.5796 16.8078 10.9056 16.2537C11.5183 17.0541 12.4986 17.5466 13.6014 17.6698C13.6014 17.6698 13.6014 17.6698 13.6627 17.6698C15.8071 17.6698 17.5226 15.9459 17.5226 13.791C17.5226 12.3134 17.0324 11.4515 16.2972 10.8358Z" fill="#F6F6F6"/>
<path d="M13.9692 19.8246C11.7023 19.8246 8.27126 21.056 7.53604 22.7183L4.59517 29.0597C4.41137 29.4291 4.3501 29.7985 4.3501 30.1064C4.41137 30.2911 4.47263 30.4758 4.65644 30.6605C4.65644 30.722 4.71771 30.722 4.71771 30.7836C5.698 32.3228 8.20999 32.9384 10.967 32.9384H13.9692V19.8246Z" fill="#3C84F0"/>
<path d="M25.7938 1.97015L15.6233 7.94217C16.6648 8.25 17.5839 8.80411 18.3191 9.54291L25.7938 1.97015Z" fill="#75BE88"/>
<path d="M13.8466 3.20149C15.1945 3.20149 16.4811 3.50933 17.6452 3.9403L20.8924 2.03172C18.8093 0.738806 16.3586 0 13.7853 0C6.18807 0 0 6.21828 0 13.8526C0 18.1007 1.89931 21.9179 4.90144 24.4422L6.00427 22.041C6.06554 21.7948 6.24934 21.6101 6.37188 21.4254C4.4113 19.5168 3.24721 16.8078 3.24721 13.8526C3.24721 7.94216 7.96484 3.20149 13.8466 3.20149Z" fill="#3C84F0"/>
<path d="M23.8333 10.2818C24.2622 11.39 24.446 12.6213 24.446 13.8527C24.446 16.8079 23.2819 19.5168 21.3213 21.4254C21.4438 21.6101 21.5664 21.8564 21.6889 22.0411L22.7305 24.3191C25.6713 21.7948 27.5706 18.0392 27.5706 13.7911C27.5706 11.2668 26.8967 8.92728 25.7326 6.89557L23.8333 10.2818Z" fill="#F6F6F6"/>
</g>
<defs>
<clipPath id="clip0">
<rect width="110.344" height="33" fill="white"/>
</clipPath>
</defs>
</svg>
