<svg width="89" height="91" viewBox="0 0 89 91" fill="none" xmlns="http://www.w3.org/2000/svg">
<g clip-path="url(#clip0)">
<path d="M44.4996 11.6791C44.8559 11.6791 45.1975 11.5384 45.4495 11.2878C45.7014 11.0372 45.8429 10.6974 45.8429 10.343V1.33609C45.8429 0.981737 45.7014 0.641897 45.4495 0.391332C45.1975 0.140766 44.8559 0 44.4996 0C44.1433 0 43.8016 0.140766 43.5497 0.391332C43.2978 0.641897 43.1562 0.981737 43.1562 1.33609V10.343C43.1562 10.6974 43.2978 11.0372 43.5497 11.2878C43.8016 11.5384 44.1433 11.6791 44.4996 11.6791Z" fill="url(#paint0_linear)"/>
<path d="M19.4374 21.2221C19.5621 21.3463 19.7103 21.4449 19.8733 21.5122C20.0364 21.5795 20.2111 21.6141 20.3877 21.6142C20.5642 21.6143 20.739 21.5799 20.9021 21.5128C21.0652 21.4457 21.2135 21.3473 21.3384 21.2232C21.4633 21.0991 21.5624 20.9518 21.63 20.7896C21.6977 20.6275 21.7325 20.4536 21.7326 20.2781C21.7327 20.1025 21.6981 19.9286 21.6306 19.7664C21.5632 19.6041 21.4642 19.4567 21.3395 19.3325L14.9337 12.9627C14.6805 12.7188 14.341 12.5836 13.9885 12.5864C13.636 12.5892 13.2987 12.7296 13.0494 12.9775C12.8001 13.2254 12.6587 13.5608 12.6558 13.9114C12.6529 14.262 12.7886 14.5997 13.0338 14.8516L19.4374 21.2221Z" fill="url(#paint1_linear)"/>
<path d="M10.3999 42.9234H1.34334C0.987065 42.9234 0.645381 43.0641 0.393456 43.3147C0.14153 43.5653 0 43.9051 0 44.2595C0 44.6138 0.14153 44.9536 0.393456 45.2042C0.645381 45.4548 0.987065 45.5956 1.34334 45.5956H10.3992C10.7554 45.5956 11.0971 45.4548 11.349 45.2042C11.601 44.9536 11.7425 44.6138 11.7425 44.2595C11.7425 43.9051 11.601 43.5653 11.349 43.3147C11.0971 43.0641 10.7554 42.9234 10.3992 42.9234H10.3999Z" fill="url(#paint2_linear)"/>
<path d="M19.4375 67.2968L13.0339 73.6658C12.9091 73.7899 12.8102 73.9372 12.7426 74.0993C12.6751 74.2614 12.6404 74.4352 12.6404 74.6106C12.6404 74.965 12.7819 75.3049 13.0339 75.5555C13.2858 75.8061 13.6275 75.9468 13.9838 75.9468C14.3401 75.9468 14.6818 75.8061 14.9338 75.5555L21.3374 69.1864C21.5893 68.9358 21.7308 68.596 21.7308 68.2416C21.7308 67.8872 21.5893 67.5474 21.3374 67.2968C21.0854 67.0462 20.7437 66.9054 20.3874 66.9054C20.0311 66.9054 19.6894 67.0462 19.4375 67.2968Z" fill="url(#paint3_linear)"/>
<path d="M69.5627 67.2968C69.3107 67.0462 68.969 66.9055 68.6127 66.9055C68.2564 66.9055 67.9147 67.0462 67.6628 67.2968C67.4108 67.5474 67.2693 67.8872 67.2693 68.2416C67.2693 68.596 67.4108 68.9359 67.6628 69.1864L74.0664 75.5555C74.3183 75.8061 74.66 75.9468 75.0163 75.9468C75.3726 75.9468 75.7143 75.8061 75.9663 75.5555C76.2182 75.3049 76.3597 74.965 76.3597 74.6107C76.3597 74.2563 76.2182 73.9164 75.9663 73.6658L69.5627 67.2968Z" fill="url(#paint4_linear)"/>
<path d="M87.656 42.9234H78.6002C78.2439 42.9234 77.9022 43.0641 77.6503 43.3147C77.3984 43.5653 77.2568 43.9051 77.2568 44.2595C77.2568 44.6138 77.3984 44.9536 77.6503 45.2042C77.9022 45.4548 78.2439 45.5956 78.6002 45.5956H87.656C88.0123 45.5956 88.354 45.4548 88.6059 45.2042C88.8578 44.9536 88.9993 44.6138 88.9993 44.2595C88.9993 43.9051 88.8578 43.5653 88.6059 43.3147C88.354 43.0641 88.0123 42.9234 87.656 42.9234Z" fill="url(#paint5_linear)"/>
<path d="M74.0664 12.9627L67.6628 19.3325C67.4108 19.5831 67.2693 19.9229 67.2693 20.2773C67.2693 20.6317 67.4108 20.9715 67.6628 21.2221C67.9147 21.4727 68.2564 21.6135 68.6127 21.6135C68.969 21.6135 69.3107 21.4727 69.5627 21.2221L75.9641 14.8516C76.216 14.601 76.3575 14.2612 76.3575 13.9068C76.3575 13.5524 76.216 13.2126 75.9641 12.962C75.8393 12.8379 75.6912 12.7395 75.5282 12.6723C75.3652 12.6052 75.1905 12.5706 75.0141 12.5706C74.6578 12.5706 74.3161 12.7114 74.0642 12.962L74.0664 12.9627Z" fill="url(#paint6_linear)"/>
<path d="M71.0365 41.5595C71.0365 26.7962 59.132 14.786 44.4997 14.786C39.3875 14.7819 34.3861 16.2672 30.113 19.0582C25.9366 21.785 22.6076 25.6161 20.4999 30.1211C20.4222 30.2805 20.3771 30.4537 20.3672 30.6306C20.3574 30.8075 20.383 30.9845 20.4426 31.1515C20.5023 31.3184 20.5947 31.4719 20.7145 31.603C20.8343 31.7341 20.9791 31.8402 21.1405 31.9151C21.302 31.99 21.4767 32.0323 21.6547 32.0393C21.8327 32.0464 22.0103 32.0183 22.1773 31.9564C22.3442 31.8946 22.4971 31.8004 22.6271 31.6792C22.7571 31.5581 22.8615 31.4125 22.9344 31.2508C24.845 27.1552 27.8866 23.6841 31.7048 21.2421C35.5229 18.8001 39.9603 17.4878 44.4997 17.4581C57.6508 17.4581 68.3498 28.2701 68.3498 41.5595C68.371 47.8189 65.9503 53.8424 61.5972 58.3628C59.0872 60.9701 56.9512 63.4606 56.4013 66.9518H32.9493C32.2564 63.3286 29.7713 60.7863 27.5385 58.5035C23.0995 53.971 20.6259 47.887 20.6495 41.5595C20.6493 39.9864 20.8003 38.4168 21.1005 36.8723C21.1685 36.5241 21.0948 36.1633 20.8954 35.8693C20.696 35.5752 20.3873 35.372 20.0372 35.3043C19.6872 35.2366 19.3244 35.31 19.0288 35.5083C18.7331 35.7066 18.5288 36.0136 18.4607 36.3618C18.1281 38.0738 17.9609 39.8136 17.9614 41.5574C17.9358 48.5823 20.6833 55.3366 25.613 60.3676C28.4463 63.2637 30.4525 65.5749 30.4525 68.9632C30.4525 68.9749 30.4525 68.9873 30.4525 68.999L30.5295 76.8398C30.5302 78.0482 30.8436 79.2361 31.4396 80.2891C32.0357 81.3421 32.8942 82.2248 33.9326 82.8522V84.3217C33.9345 86.0929 34.6428 87.791 35.902 89.0434C37.1612 90.2958 38.8685 91.0002 40.6493 91.0022H48.8883C50.669 91.0002 52.3763 90.2958 53.6356 89.0434C54.8948 87.791 55.603 86.0929 55.605 84.3217V82.8522C56.6434 82.2248 57.5019 81.3421 58.0979 80.2891C58.694 79.2361 59.0074 78.0482 59.0081 76.8398C59.0081 76.8398 58.9985 68.1063 58.9809 68.0188C59.2361 64.9222 61.1228 62.7211 63.5389 60.2152C68.3723 55.1967 71.06 48.509 71.0365 41.5595ZM52.9176 84.3203C52.9176 85.3841 52.4927 86.4044 51.7363 87.1566C50.98 87.9088 49.9542 88.3315 48.8846 88.3315H40.6486C39.579 88.3315 38.5532 87.9088 37.7968 87.1566C37.0405 86.4044 36.6156 85.3841 36.6156 84.3203V83.8054C36.9418 83.8524 37.2708 83.8768 37.6004 83.8783H51.9291C52.2587 83.8767 52.5877 83.8523 52.9139 83.8054L52.9176 84.3203ZM51.9328 81.2025H37.6041C36.4407 81.2011 35.3255 80.7409 34.5029 79.9227C33.6803 79.1046 33.2176 77.9953 33.2162 76.8383V76.7493H46.8278C47.0042 76.7493 47.1789 76.7148 47.3419 76.6476C47.5048 76.5805 47.6529 76.4821 47.7777 76.358C47.9024 76.2339 48.0014 76.0866 48.0689 75.9245C48.1364 75.7624 48.1711 75.5887 48.1711 75.4132C48.1711 75.2378 48.1364 75.064 48.0689 74.9019C48.0014 74.7398 47.9024 74.5925 47.7777 74.4685C47.6529 74.3444 47.5048 74.246 47.3419 74.1789C47.1789 74.1117 47.0042 74.0771 46.8278 74.0771H33.2162V69.6233H56.2796L56.3214 74.0771H53.095C52.9186 74.0771 52.7439 74.1117 52.5809 74.1789C52.418 74.246 52.2699 74.3444 52.1451 74.4685C52.0204 74.5925 51.9214 74.7398 51.8539 74.9019C51.7864 75.064 51.7517 75.2378 51.7517 75.4132C51.7517 75.5887 51.7864 75.7624 51.8539 75.9245C51.9214 76.0866 52.0204 76.2339 52.1451 76.358C52.2699 76.4821 52.418 76.5805 52.5809 76.6476C52.7439 76.7148 52.9186 76.7493 53.095 76.7493H56.3214V76.8383C56.32 77.9955 55.8572 79.1048 55.0344 79.923C54.2117 80.7412 53.0962 81.2013 51.9328 81.2025Z" fill="url(#paint7_linear)"/>
<path d="M53.2329 41.7361C53.1233 41.8745 53.0423 42.0332 52.9945 42.2029C52.9468 42.3726 52.9333 42.5501 52.9548 42.725C52.9764 42.8999 53.0325 43.0689 53.1199 43.2222C53.2074 43.3755 53.3244 43.51 53.4644 43.6181C53.6044 43.7262 53.7644 43.8057 53.9354 43.852C54.1064 43.8983 54.2849 43.9104 54.4606 43.8878C54.6364 43.8652 54.8058 43.8082 54.9593 43.7202C55.1128 43.6322 55.2473 43.5148 55.355 43.3748L58.0146 39.9689C58.7138 39.0733 59.0267 37.9381 58.8843 36.813C58.742 35.6879 58.1561 34.6651 57.2556 33.9697C56.3551 33.2742 55.2137 32.963 54.0825 33.1046C52.9513 33.2462 51.923 33.8289 51.2238 34.7245L42.5478 45.8377L37.5689 40.3584C36.8045 39.517 35.7352 39.0121 34.5965 38.9548C33.4577 38.8975 32.3427 39.2925 31.4968 40.0528C30.6508 40.8132 30.1432 41.8766 30.0856 43.0092C30.028 44.1418 30.4251 45.2508 31.1895 46.0922L39.6074 55.3544C40.0311 55.8135 40.55 56.1756 41.1282 56.4156C41.7065 56.6556 42.3302 56.7679 42.9563 56.7446C43.5824 56.7213 44.196 56.563 44.7546 56.2806C45.3131 55.9983 45.8034 55.5987 46.1914 55.1094L51.5083 48.2991C51.6179 48.1606 51.699 48.002 51.7467 47.8323C51.7944 47.6625 51.8079 47.4851 51.7864 47.3101C51.7649 47.1352 51.7088 46.9662 51.6213 46.813C51.5339 46.6597 51.4168 46.5251 51.2769 46.417C51.1369 46.3089 50.9768 46.2295 50.8058 46.1832C50.6349 46.1369 50.4564 46.1247 50.2806 46.1473C50.1049 46.1699 49.9354 46.2269 49.7819 46.3149C49.6284 46.403 49.4939 46.5204 49.3862 46.6603L44.0693 53.4706C43.9239 53.6541 43.74 53.804 43.5306 53.9099C43.3211 54.0158 43.091 54.0752 42.8562 54.084C42.6214 54.0927 42.3875 54.0506 42.1707 53.9606C41.9539 53.8705 41.7593 53.7347 41.6004 53.5625L33.1825 44.3003C33.0309 44.1458 32.9122 43.9625 32.8335 43.7613C32.7548 43.5601 32.7177 43.3451 32.7245 43.1293C32.7313 42.9135 32.7818 42.7013 32.873 42.5054C32.9642 42.3095 33.0942 42.1339 33.2553 41.9891C33.4163 41.8444 33.6051 41.7334 33.8102 41.6629C34.0154 41.5925 34.2328 41.5639 34.4493 41.5789C34.6659 41.594 34.8771 41.6524 35.0705 41.7505C35.2638 41.8487 35.4352 41.9847 35.5745 42.1503L41.6283 48.8118C41.7608 48.955 41.923 49.0679 42.1037 49.1428C42.2844 49.2176 42.4792 49.2526 42.6748 49.2454C42.8704 49.2381 43.0621 49.1887 43.2366 49.1006C43.4112 49.0126 43.5644 48.8879 43.6858 48.7352L53.3444 36.3633C53.4726 36.192 53.6339 36.048 53.8188 35.9395C54.0037 35.8311 54.2085 35.7605 54.4212 35.7317C54.6339 35.703 54.8502 35.7168 55.0575 35.7723C55.2648 35.8278 55.4588 35.9239 55.6283 36.0549C55.7978 36.186 55.9392 36.3493 56.0444 36.5354C56.1496 36.7215 56.2164 36.9266 56.2408 37.1387C56.2653 37.3508 56.247 37.5657 56.1869 37.7706C56.1268 37.9756 56.0263 38.1666 55.891 38.3324L53.2329 41.7361Z" fill="url(#paint8_linear)"/>
</g>
<defs>
<linearGradient id="paint0_linear" x1="44.4996" y1="0" x2="44.4996" y2="11.6791" gradientUnits="userSpaceOnUse">
<stop stop-color="#3C84F0"/>
<stop offset="1" stop-color="#A13CF0"/>
</linearGradient>
<linearGradient id="paint1_linear" x1="17.1942" y1="12.5864" x2="17.1942" y2="21.6142" gradientUnits="userSpaceOnUse">
<stop stop-color="#3C84F0"/>
<stop offset="1" stop-color="#A13CF0"/>
</linearGradient>
<linearGradient id="paint2_linear" x1="5.87125" y1="42.9234" x2="5.87125" y2="45.5956" gradientUnits="userSpaceOnUse">
<stop stop-color="#3C84F0"/>
<stop offset="1" stop-color="#A13CF0"/>
</linearGradient>
<linearGradient id="paint3_linear" x1="17.1856" y1="66.9054" x2="17.1856" y2="75.9468" gradientUnits="userSpaceOnUse">
<stop stop-color="#3C84F0"/>
<stop offset="1" stop-color="#A13CF0"/>
</linearGradient>
<linearGradient id="paint4_linear" x1="71.8145" y1="66.9055" x2="71.8145" y2="75.9468" gradientUnits="userSpaceOnUse">
<stop stop-color="#3C84F0"/>
<stop offset="1" stop-color="#A13CF0"/>
</linearGradient>
<linearGradient id="paint5_linear" x1="83.1281" y1="42.9234" x2="83.1281" y2="45.5956" gradientUnits="userSpaceOnUse">
<stop stop-color="#3C84F0"/>
<stop offset="1" stop-color="#A13CF0"/>
</linearGradient>
<linearGradient id="paint6_linear" x1="71.8134" y1="12.5706" x2="71.8134" y2="21.6135" gradientUnits="userSpaceOnUse">
<stop stop-color="#3C84F0"/>
<stop offset="1" stop-color="#A13CF0"/>
</linearGradient>
<linearGradient id="paint7_linear" x1="-39" y1="3" x2="102.5" y2="130" gradientUnits="userSpaceOnUse">
<stop stop-color="#3C84F0"/>
<stop offset="1" stop-color="#9A41F0"/>
<stop offset="1" stop-color="#A13CF0"/>
</linearGradient>
<linearGradient id="paint8_linear" x1="44.499" y1="33.0711" x2="44.499" y2="56.7476" gradientUnits="userSpaceOnUse">
<stop stop-color="#3C84F0"/>
<stop offset="1" stop-color="#A13CF0"/>
</linearGradient>
<clipPath id="clip0">
<rect width="89" height="91" fill="white"/>
</clipPath>
</defs>
</svg>
