<svg width="200" height="97" viewBox="0 0 80 97" fill="none" xmlns="http://www.w3.org/2000/svg">
<rect y="-1" width="142" height="98" rx="2" fill="url(#paint0_linear)"/>
<g clip-path="url(#clip1)">
<path d="M127.934 79.1837H13.9342V81H127.934V79.1837Z" fill="#B4413D"/>
<path d="M124.777 64.4004C124.777 65.22 125.29 65.5786 125.647 65.8347C126.005 65.937 126.465 65.015 126.465 65.015C126.314 64.8719 126.142 64.7512 125.954 64.6565C125.647 64.5028 125.392 63.8879 125.392 63.8879L125.187 59.3801L125.289 59.0213L124.625 57.9456L123.908 59.0725C124.572 59.9947 124.522 60.1996 124.522 60.1996C124.522 60.1996 124.675 63.5295 124.777 64.4004Z" fill="#477B44"/>
<path d="M122.526 63.5805C122.219 63.9391 122.065 63.427 122.065 63.427C122.065 63.427 122.065 59.9942 122.015 59.4824C122.065 59.2777 121.861 58.8166 121.861 58.8166L121.145 57.8944L120.379 59.0215L121.35 60.0461V63.7856C121.299 64.8105 120.532 65.0153 120.225 65.0153C119.713 65.0662 119.305 64.6566 119.15 64.4006C119.15 63.9908 118.588 64.1441 118.588 64.1441C118.588 64.1441 117.872 64.8614 117.668 64.8614C116.338 65.5787 115.878 64.4516 115.878 64.4516C115.878 64.4516 115.929 60.4045 115.878 59.5338C115.98 58.4578 115.315 57.587 115.315 57.587C114.944 58.1321 114.602 58.6965 114.293 59.2777C115.06 59.8412 115.06 60.1485 115.06 60.1485V64.4517L114.497 65.2714L115.572 66.2453L115.827 65.9891C116.167 65.9529 116.508 65.9359 116.85 65.938C117.617 65.938 118.027 65.528 118.129 65.2209C118.385 64.8109 118.793 65.3233 118.896 65.528C118.896 65.8867 119.306 65.8868 119.306 65.8868C119.306 65.8868 119.97 65.8355 120.226 65.8355C120.481 65.8355 120.84 65.6307 121.044 65.2719C121.505 64.6572 121.505 65.528 121.71 65.6817C121.913 66.2455 122.527 65.9892 122.784 65.836C123.09 65.5799 123.704 64.7603 123.857 64.1453C123.907 62.7609 122.884 63.2733 122.526 63.5805ZM122.219 64.5026C122.219 64.5026 123.14 63.7854 123.191 64.6051C123.139 64.9639 122.526 65.5275 122.219 64.5026Z" fill="#477B44"/>
<path d="M113.219 63.5805C112.195 64.0927 110.712 62.7609 110.303 62.351C109.076 60.4042 110.712 58.6112 110.968 58.304C111.071 57.8428 110.508 58.0991 110.508 58.0991C110.508 58.0991 110.047 58.7138 109.536 59.3285C108.411 61.224 109.945 63.222 110.201 63.5809C110.457 63.7855 110.508 63.9906 110.661 64.2981C110.099 64.6567 109.485 64.4517 108.922 64.2981C108.053 64.2467 107.848 65.4765 107.848 65.4765H109.791L109.843 66.1425L110.2 66.2961L111.274 64.8617C111.274 64.8617 112.911 64.9642 113.371 64.9129C114.445 64.1953 113.577 63.6826 113.219 63.5805Z" fill="#477B44"/>
<path d="M107.286 63.2732C106.774 63.5804 105.393 64.4005 105.24 64.9638C105.086 65.5783 104.627 66.5518 105.189 67.2684C105.292 67.5246 105.444 68.2423 104.473 67.7295C104.013 67.576 103.143 66.2438 102.989 66.2952C103.041 66.91 103.398 68.9083 105.752 69.113C106.161 69.113 107.235 69.0614 106.007 67.6784C105.547 67.0124 104.934 66.4493 105.803 65.2195C106.263 64.7584 106.621 64.3487 106.928 64.4508L107.387 65.0145C107.387 65.0145 108.718 63.4268 107.286 63.2732Z" fill="#477B44"/>
<path d="M102.171 62.351C102.171 62.351 101.097 64.0417 100.994 64.8099C100.944 66.7566 102.938 65.6804 102.938 65.6804L103.757 64.4L103.859 59.1231L103.245 57.9962L102.529 59.021L103.347 60.0967C103.347 60.0967 103.245 61.5823 103.245 61.9922C103.091 61.9415 102.171 62.351 102.171 62.351ZM102.581 64.9642C102.273 65.1688 101.659 64.8104 101.557 64.2469C101.557 64.2469 101.454 62.9657 102.836 63.3247C103.091 63.6832 103.552 64.5031 102.581 64.964V64.9642Z" fill="#477B44"/>
<path d="M118.947 67.2691L118.334 66.5519L117.821 67.1667L118.384 67.7812L118.947 67.2691Z" fill="#477B44"/>
<path d="M99.8187 59.1239L100.382 59.7386L100.944 59.2263L100.331 58.5092L99.8187 59.1239Z" fill="#477B44"/>
<path d="M99.8694 60.5074L100.432 61.1221L100.995 60.61L100.381 59.8925L99.8694 60.5074Z" fill="#477B44"/>
<path d="M79.001 68.1909L79.5646 67.6787L78.9504 66.9616L78.4396 67.5765L79.001 68.1909Z" fill="#477B44"/>
<path d="M77.2636 66.9615L76.7516 67.5765L77.3137 68.191L77.877 67.6788L77.2636 66.9615Z" fill="#477B44"/>
<path d="M80.6894 60.6091L80.1785 61.224L80.7407 61.8384L81.3039 61.3262L80.6894 60.6091Z" fill="#477B44"/>
<path d="M71.4329 59.0211L71.995 59.6356L72.5579 59.1234L71.9441 58.4063L71.4329 59.0211Z" fill="#477B44"/>
<path d="M64.222 61.5825L63.6079 60.8653L63.0963 61.4802L63.6585 62.0946L64.222 61.5825Z" fill="#477B44"/>
<path d="M62.1243 60.8652L61.613 61.4801L62.1752 62.0945L62.7381 61.5824L62.1243 60.8652Z" fill="#477B44"/>
<path d="M60.2837 61.5825L59.6695 60.8653L59.1582 61.4802L59.7204 62.0946L60.2837 61.5825Z" fill="#477B44"/>
<path d="M53.5322 67.7296L52.9182 67.0126L52.4067 67.6275L52.9689 68.242L53.5322 67.7296Z" fill="#477B44"/>
<path d="M51.3842 67.0126L50.8727 67.6276L51.4349 68.2421L51.9975 67.7297L51.3842 67.0126Z" fill="#477B44"/>
<path d="M46.8835 60.8139L47.4461 60.3017L46.8322 59.5845L46.3207 60.1993L46.8835 60.8139Z" fill="#477B44"/>
<path d="M37.0638 67.9347L36.4496 67.2175L35.9384 67.8322L36.5005 68.4468L37.0638 67.9347Z" fill="#477B44"/>
<path d="M23.8679 68.2935L24.4306 67.7813L23.8167 67.064L23.3053 67.6787L23.8679 68.2935Z" fill="#477B44"/>
<path d="M22.334 67.064L21.8226 67.6787L22.3848 68.2935L22.9478 67.7813L22.334 67.064Z" fill="#477B44"/>
<path d="M16.7079 60.8139L17.2708 60.3017L16.657 59.5845L16.1456 60.1993L16.7079 60.8139Z" fill="#477B44"/>
<path d="M17.271 58.9185L16.6573 58.2013L16.1459 58.8163L16.7081 59.4309L17.271 58.9185Z" fill="#477B44"/>
<path d="M34.9155 61.5311L34.3015 60.8139L33.7902 61.4287L34.3523 62.0432L34.9155 61.5311Z" fill="#477B44"/>
<path d="M33.0745 59.6352L33.6366 60.2499L34.1994 59.7377L33.5855 59.0206L33.0745 59.6352Z" fill="#477B44"/>
<path d="M32.3071 61.3776L32.8693 61.9921L33.4321 61.48L32.8184 60.7628L32.3071 61.3776Z" fill="#477B44"/>
<path d="M47.4975 58.9533L46.8833 58.2359L46.3721 58.851L46.9342 59.4654L47.4975 58.9533Z" fill="#477B44"/>
<path d="M71.4839 60.4038L72.0461 61.0185L72.6098 60.5064L71.9953 59.7891L71.4839 60.4038Z" fill="#477B44"/>
<path d="M96.3914 59.2266C96.8002 59.5338 96.8518 60.2509 96.8518 60.2509L96.6984 65.0665L97.3121 65.8349L97.9775 64.9641L97.3633 64.2979L97.5159 57.8943L96.3914 59.2266Z" fill="#477B44"/>
<path d="M95.42 64.4514C95.42 64.4514 95.4716 60.097 95.4716 59.2773C95.5741 58.5601 94.8572 58.0479 94.8572 58.0479L94.2438 59.2263C94.9604 59.6361 94.908 59.8922 94.908 59.8922C94.908 59.8922 95.01 63.478 94.8567 64.5539C94.6016 65.5782 93.8847 64.8104 93.9359 64.6565C93.9871 64.5026 93.6801 64.2978 93.0668 63.6831C91.6351 62.5049 90.9698 64.3491 90.714 65.0663C90.6116 66.1933 91.686 66.0907 91.686 66.0907C91.686 66.0907 93.0159 66.142 93.3226 66.1933C93.0662 66.5522 91.8398 68.0887 91.1744 68.4979C88.8737 70.6499 86.0597 68.9592 85.1909 68.4979C87.902 71.6226 90.4074 69.9835 90.7664 69.7787C92.7093 69.0106 93.9368 65.9879 93.9368 65.9879C94.1463 65.9569 94.352 65.9052 94.5509 65.8336C95.5225 65.6295 95.42 64.4514 95.42 64.4514ZM92.402 65.0663C92.402 65.0663 91.0213 65.8347 91.5321 64.2978C91.8903 64.144 93.0153 64.2979 92.4018 65.0659L92.402 65.0663Z" fill="#477B44"/>
<path d="M75.8821 65.9881L76.8545 66.1424L78.0307 65.425L78.7465 66.2446L79.9744 66.1937L81.1502 65.1178L81.8156 66.2961H88.8737C88.8737 66.2961 89.5891 65.579 89.8962 65.0153C90.2541 64.4518 89.8961 63.9397 89.5891 63.7347C89.487 63.5296 88.3108 62.5564 87.8504 62.3005C88.3617 62.0444 88.5667 60.3023 88.6179 59.995C88.669 59.6877 88.4641 58.5094 88.2595 58.2019C86.3674 57.587 86.6229 59.2777 86.6229 59.2777C86.7258 60.0461 87.4924 59.8414 87.8503 59.7389C88.5661 61.4809 87.4924 62.3514 86.8779 62.5052C86.0604 62.2492 82.7872 65.0667 82.7872 65.0667C82.7872 65.0667 81.8664 64.7079 81.6109 64.3496C81.7643 63.3757 81.0989 64.0936 80.7923 64.4009C79.1041 65.989 78.6949 64.5033 78.6437 64.0421C78.6437 63.5299 78.2349 63.9397 77.9788 64.1957C76.5464 66.1938 75.8817 64.0935 75.8817 64.0935L75.5755 57.4848C75.5755 57.4848 74.8081 58.4582 74.5522 58.6631C74.8077 58.9705 75.2168 60.0463 75.3197 60.7121C75.4217 61.9929 74.6038 62.6587 74.1939 62.8637C73.376 63.7348 72.5074 63.5298 71.8414 63.4784C70.7669 63.4784 70.8186 64.0935 70.7157 64.7078C70.8695 65.3739 71.3814 65.2203 71.8414 65.0152C72.8127 64.7078 73.4264 65.6811 73.6317 66.0909C73.6833 66.5006 74.0917 66.0909 74.0917 66.0909L75.2167 64.9641L75.8821 65.9881ZM88.157 63.7343C88.7199 64.3491 88.975 64.964 88.6179 64.964C88.1571 65.0664 86.4184 64.964 86.4184 64.964L87.0318 63.7343C87.1946 63.6164 87.3918 63.5528 87.5943 63.5527C87.7969 63.5526 87.9942 63.6161 88.157 63.7339V63.7343ZM86.9296 63.3757C86.878 63.7343 86.0605 65.0663 86.0605 65.0663L83.708 65.015C83.7072 65.0149 86.163 62.8122 86.9296 63.3757ZM74.7063 64.5535C74.7063 64.5535 73.1717 65.3219 73.8368 63.8876C74.2972 63.478 74.6554 63.2217 74.6554 63.2217C74.6554 63.2217 75.474 62.658 75.3203 63.734C75.1857 64.0513 74.9751 64.3324 74.7063 64.5535Z" fill="#477B44"/>
<path d="M67.2387 59.2262L67.8014 59.8921C67.8014 59.8921 68.0061 63.3243 67.9038 64.0928C67.3925 66.6542 66.1138 63.939 66.1138 63.939L65.9606 57.8939L64.8864 59.3283L65.3979 59.8407C65.3979 59.8407 65.4492 62.6069 65.6025 63.9903C64.2726 66.2955 63.2498 64.3999 63.0452 64.0412C60.4882 66.1925 60.181 64.4509 59.9254 63.9903C57.8285 66.2955 57.1122 64.4509 57.0102 63.9903C56.0894 62.351 55.2711 63.4778 54.8108 63.836C53.1232 66.2949 52.7138 64.1432 52.4581 63.7848C49.952 66.7048 49.7988 63.6305 49.7988 63.6305L50.0545 59.6858C50.0545 59.6858 50.0032 58.5591 49.9009 58.0466C49.1849 57.278 48.878 59.1735 49.0823 59.8396C49.9009 61.4789 48.98 62.1959 48.98 62.1959C48.98 62.1959 48.5196 62.5547 47.9058 63.0669C47.0363 63.7327 46.7807 63.9377 46.3715 63.7327C45.4511 62.964 45.349 63.8353 44.9907 64.3476C44.6326 64.911 45.0934 65.1673 45.6045 65.0649C46.1671 64.8087 47.7015 66.3455 48.0596 66.6529C48.0596 66.294 48.7757 65.3211 49.236 65.0649C50.4633 67.2677 51.7933 65.5771 52.0999 64.9623C53.0716 67.0628 53.9415 65.782 54.3504 65.4747C55.6293 67.37 57.112 66.0891 57.112 66.0891H58.3396C58.7515 65.8633 59.1449 65.6065 59.516 65.321C60.3853 67.2676 61.8685 65.8845 62.4314 65.321C63.4543 67.4211 65.1419 65.6792 65.5511 65.2696C67.8527 68.1382 68.5691 64.4499 68.5691 64.4499L68.2106 58.0978L67.2387 59.2262ZM48.2644 65.2199L47.3434 64.5026L48.5712 63.2733C48.5712 63.2733 49.1334 62.5561 49.185 63.5293L49.236 64.0414L48.2644 65.2199ZM55.1174 64.7586C55.1174 64.7586 56.3959 63.3244 56.3959 64.81C56.2939 65.2199 55.5268 65.8345 55.1175 64.7586H55.1174Z" fill="#477B44"/>
<path d="M42.1266 57.9454L41.5128 58.8161C41.8196 59.1236 42.0755 60.0457 42.0755 60.0457C42.0755 60.0457 41.8708 62.8633 41.8708 64.3489C41.7687 65.8345 42.6894 65.9882 42.6894 65.9882C42.6894 65.9882 43.0479 65.476 43.201 65.2199C42.9452 65.1174 42.5875 64.0415 42.5875 64.0415C42.5875 64.0415 42.6894 60.7117 42.6382 59.636C42.6822 59.3348 42.6593 59.0279 42.571 58.7361C42.4827 58.4444 42.3312 58.1747 42.1266 57.9454Z" fill="#477B44"/>
<path d="M40.1319 63.6829L39.7227 57.9966L38.6487 59.0211L39.4673 60.1481C39.4673 60.1481 39.3651 62.0947 39.4162 64.0414C39.1605 66.6546 37.1659 64.605 36.8589 64.2465C35.3758 65.8858 34.7108 64.8101 34.404 64.2465C33.1767 66.5007 33.0232 64.8612 32.8183 64.6051C32.8183 63.9392 32.5626 64.5027 32.0514 64.7588C29.5965 66.1932 30.466 64.4514 30.7216 64.1441C30.3123 63.4783 28.6758 64.7588 27.6018 65.5784C26.0165 67.7297 27.755 68.9593 27.755 68.9593C27.6911 69.0808 27.5809 69.1727 27.4482 69.2155C26.323 69.3697 25.2488 67.5249 24.8909 67.064C25.3 70.8551 28.42 70.3425 28.5734 70.0864C28.7269 68.4985 28.42 68.1908 27.9084 67.6275C26.2712 66.2957 28.8801 65.476 29.2892 65.3222C30.2609 67.2175 32.0508 65.8344 32.4092 65.4757C32.716 66.5516 33.8412 66.2441 33.9947 66.1418C33.9947 65.8344 34.3014 65.988 34.6084 65.937C34.864 66.2444 35.8358 65.9881 35.9892 65.5783C36.5006 64.3999 37.4213 66.0907 37.8817 66.2955C40.0298 66.2956 40.1319 63.6829 40.1319 63.6829Z" fill="#477B44"/>
<path d="M20.6696 66.359L25.2728 66.2564L26.1933 64.6171L25.3238 63.3368L24.9147 64.054C25.6307 65.4376 24.7612 65.1808 24.7612 65.1808C24.7612 65.1808 21.9996 65.2321 20.9255 65.1808C19.7491 65.232 19.9538 64.515 19.9538 64.515C19.9538 64.515 20.0561 59.2385 20.005 58.3677C19.1359 56.8308 18.7265 59.341 18.7265 59.341C18.7265 59.341 19.1865 60.0071 19.3912 60.3657C19.3912 60.7242 19.0333 61.8511 19.0333 61.8511C19.0333 61.8511 17.9081 63.1317 17.5499 63.4904C17.1916 63.8491 17.192 63.9512 16.8338 63.7977C15.146 62.568 15.453 64.9759 15.5042 65.4369C16.6807 64.6686 17.7546 66.1029 18.0105 66.3591C18.0105 65.8979 18.9822 65.2318 19.2891 64.9756C19.2887 66.154 20.6696 66.359 20.6696 66.359ZM18.5725 64.9242C18.2657 65.5389 17.6008 64.7195 17.6008 64.7195C17.6008 64.7195 18.1122 63.8487 18.5214 63.0803C19.4931 62.1582 19.2887 63.0293 19.3908 63.5414C19.2887 64.4121 19.084 64.5658 18.5725 64.9242Z" fill="#477B44"/>
<path d="M13.9647 76.8986L15.0989 76.9052L15.1246 72.649L13.9904 72.6421L13.9647 76.8986Z" fill="#477B44"/>
<path d="M17.2432 73.4571C16.9697 73.4558 16.615 73.5846 16.5492 73.7936H16.5333L16.535 73.4947L15.5136 73.4881L15.4929 76.9083L16.5143 76.9145L16.5306 74.2537C16.5281 74.2301 16.5309 74.2063 16.5389 74.1839C16.5468 74.1615 16.5598 74.1411 16.5767 74.1241C16.5937 74.1071 16.6142 74.094 16.6369 74.0857C16.6596 74.0773 16.6839 74.074 16.7081 74.0759C16.7327 74.0742 16.7574 74.0777 16.7805 74.0862C16.8037 74.0947 16.8246 74.1079 16.8421 74.125C16.8595 74.1421 16.873 74.1626 16.8816 74.1852C16.8902 74.2079 16.8937 74.232 16.892 74.2561L16.8758 76.9163L17.8972 76.9227L17.9137 74.2086C17.9163 73.8142 17.8947 73.4607 17.2432 73.4571Z" fill="#477B44"/>
<path d="M18.217 73.3138L19.2383 73.3201L19.2425 72.6741L18.2208 72.6679L18.217 73.3138Z" fill="#477B44"/>
<path d="M18.1951 76.9244L19.2165 76.931L19.2375 73.511L18.2159 73.5046L18.1951 76.9244Z" fill="#477B44"/>
<path d="M20.7138 74.0819L20.995 74.0839L20.9984 73.5216L20.7172 73.5198L20.7208 72.8984L19.6993 72.8924L19.6958 73.5138L19.4224 73.5127L19.4189 74.0739L19.6925 74.0756L19.6794 76.2399C19.676 76.7661 19.8035 76.9342 20.5354 76.9382L20.9935 76.9414L20.997 76.3791H20.8764C20.7238 76.3779 20.7004 76.252 20.7013 76.1449L20.7138 74.0819Z" fill="#477B44"/>
<path d="M21.1786 76.9424L22.2 76.9486L22.2207 73.5292L21.1994 73.5226L21.1786 76.9424Z" fill="#477B44"/>
<path d="M21.2004 73.3318L22.2218 73.3377L22.2257 72.6916L21.2043 72.6857L21.2004 73.3318Z" fill="#477B44"/>
<path d="M25.0545 74.2748C25.0576 73.7612 24.4963 73.5002 23.8527 73.4964C23.2012 73.4923 22.6528 73.7466 22.6495 74.2607L22.6466 74.7207L23.668 74.727L23.6708 74.2372C23.6682 74.2135 23.6711 74.1896 23.6791 74.1671C23.6871 74.1446 23.7 74.1241 23.717 74.1071C23.734 74.09 23.7546 74.0769 23.7774 74.0685C23.8002 74.0601 23.8246 74.0568 23.8489 74.0586C23.8735 74.0569 23.8983 74.0604 23.9214 74.0689C23.9446 74.0774 23.9656 74.0907 23.983 74.1078C24.0005 74.1249 24.0139 74.1455 24.0225 74.1682C24.031 74.1909 24.0345 74.2151 24.0326 74.2392L24.0318 74.3763C24.0275 75.1179 22.6459 74.7813 22.6412 75.6411L22.6367 76.3768C22.6344 76.7653 22.8018 76.9939 23.3165 76.9966C23.6141 76.9985 23.8643 76.8862 24.0023 76.6119H24.0184L24.0727 76.9597L25.1101 76.9658C25.0751 76.7357 25.0524 76.504 25.0422 76.2716L25.0545 74.2748ZM24.021 76.2594C24.0225 76.2836 24.0188 76.3077 24.0099 76.3303C24.0011 76.3529 23.9873 76.3733 23.9697 76.3902C23.952 76.4071 23.9308 76.4201 23.9076 76.4283C23.8843 76.4365 23.8595 76.4397 23.8349 76.4376C23.8107 76.4393 23.7864 76.4357 23.7637 76.4271C23.7411 76.4185 23.7206 76.4052 23.7038 76.388C23.6871 76.3709 23.6744 76.3503 23.6666 76.3278C23.6589 76.3053 23.6563 76.2814 23.6591 76.2578L23.6629 75.6354C23.6641 75.4864 23.696 75.4627 23.8417 75.3678L24.0269 75.2733L24.021 76.2594Z" fill="#477B44"/>
<path d="M26.6091 74.1162L26.8906 74.118L26.8941 73.5564L26.6126 73.5546L26.6162 72.9332L25.5949 72.9268L25.5912 73.5489L25.3179 73.5465L25.3145 74.109L25.5879 74.1103L25.5749 76.2744C25.5714 76.8008 25.6989 76.9687 26.4308 76.9732L26.8892 76.9761L26.8925 76.4138L26.772 76.4132C26.619 76.4122 26.5958 76.2865 26.5966 76.1789L26.6091 74.1162Z" fill="#477B44"/>
<path d="M27.0963 73.3663L28.1177 73.3726L28.1216 72.7266L27.1002 72.7202L27.0963 73.3663Z" fill="#477B44"/>
<path d="M27.0742 76.977L28.0958 76.9834L28.1166 73.5634L27.0952 73.5573L27.0742 76.977Z" fill="#477B44"/>
<path d="M29.6365 76.185H29.6204L29.3711 73.5709L28.3174 73.5648L28.9724 76.9879L30.2188 76.9952L30.9073 73.58L29.9743 73.5743L29.6365 76.185Z" fill="#477B44"/>
<path d="M32.2905 73.5472C31.639 73.5433 31.0905 73.7972 31.0872 74.3109L31.0752 76.2722C31.0721 76.7858 31.6177 77.0462 32.2686 77.0504C32.9121 77.0545 33.4766 76.8006 33.4797 76.2863L33.4835 75.6589L32.4621 75.6528L32.4583 76.3102C32.4597 76.3343 32.4559 76.3585 32.447 76.381C32.4381 76.4036 32.4244 76.424 32.4067 76.4409C32.3891 76.4578 32.3679 76.4709 32.3447 76.4791C32.3215 76.4874 32.2967 76.4907 32.2721 76.4888C32.2478 76.4903 32.2236 76.4866 32.201 76.4779C32.1784 76.4693 32.158 76.4559 32.1413 76.4387C32.1246 76.4216 32.1119 76.401 32.1041 76.3785C32.0964 76.356 32.0938 76.3321 32.0965 76.3086L32.102 75.4174L33.4853 75.4263L33.492 74.326C33.4951 73.8116 32.934 73.551 32.2905 73.5472ZM32.4671 74.9055L32.1054 74.9029L32.109 74.2878C32.1065 74.2641 32.1093 74.2402 32.1172 74.2178C32.1252 74.1953 32.1381 74.1748 32.155 74.1578C32.172 74.1407 32.1925 74.1275 32.2152 74.119C32.238 74.1106 32.2623 74.1071 32.2866 74.1089C32.3112 74.1073 32.336 74.1109 32.3591 74.1194C32.3822 74.128 32.4032 74.1413 32.4206 74.1585C32.438 74.1756 32.4514 74.1962 32.4599 74.2189C32.4685 74.2416 32.472 74.2658 32.4701 74.2899L32.4671 74.9055Z" fill="#477B44"/>
<path d="M36.79 75.5458H36.7754L36.2668 72.78L34.8406 72.7703L34.8175 77.027L35.6177 77.032L35.6362 73.6956L35.6512 73.684L36.3599 77.0368L37.5824 77.0451L37.6055 72.7884L36.8053 72.7828L36.79 75.5458Z" fill="#477B44"/>
<path d="M40.3224 74.3716C40.3254 73.858 39.7641 73.5976 39.1205 73.5933C38.4695 73.5891 37.9208 73.8432 37.9172 74.3573L37.9142 74.8173L38.9356 74.8242L38.9383 74.334C38.9358 74.3103 38.9387 74.2863 38.9467 74.2639C38.9547 74.2414 38.9677 74.2209 38.9847 74.2038C39.0018 74.1868 39.0224 74.1736 39.0452 74.1653C39.068 74.1569 39.0924 74.1535 39.1167 74.1554C39.1413 74.1537 39.1661 74.1571 39.1892 74.1656C39.2123 74.174 39.2333 74.1873 39.2507 74.2044C39.2681 74.2215 39.2815 74.2421 39.29 74.2647C39.2986 74.2874 39.302 74.3116 39.3001 74.3356L39.2993 74.4729C39.2948 75.2142 37.9135 74.8771 37.9086 75.738L37.9042 76.4736C37.9019 76.8615 38.0693 77.0898 38.5838 77.0934C38.8815 77.0949 39.1317 76.983 39.2698 76.7085H39.286L39.3401 77.0556L40.3777 77.062C40.3426 76.8319 40.3199 76.6001 40.3097 76.3677L40.3224 74.3716ZM39.2887 76.3566C39.2903 76.3807 39.2865 76.4049 39.2776 76.4274C39.2687 76.4499 39.255 76.4703 39.2373 76.4872C39.2197 76.5041 39.1985 76.517 39.1752 76.5252C39.152 76.5333 39.1272 76.5365 39.1026 76.5344C39.0784 76.5361 39.0541 76.5324 39.0315 76.5238C39.0088 76.5152 38.9884 76.5019 38.9717 76.4847C38.9549 76.4675 38.9423 76.4469 38.9346 76.4244C38.9269 76.4019 38.9243 76.378 38.9272 76.3544L38.9306 75.7324C38.9318 75.5834 38.9637 75.5595 39.1094 75.4648L39.2947 75.3704L39.2887 76.3566Z" fill="#477B44"/>
<path d="M41.7794 74.2132L42.0607 74.2145L42.0641 73.6529L41.7831 73.6516L41.7867 73.0301L40.7648 73.0234L40.7616 73.6446L40.4881 73.6433L40.4846 74.2057L40.7583 74.2072L40.745 76.3709C40.7413 76.8971 40.8689 77.0652 41.6009 77.0698L42.0595 77.073L42.0628 76.5106L41.9419 76.5097C41.7894 76.5089 41.7659 76.3832 41.7669 76.2757L41.7794 74.2132Z" fill="#477B44"/>
<path d="M42.2658 73.6539L42.245 77.0737L43.2664 77.0797L43.2871 73.6599L42.2658 73.6539Z" fill="#477B44"/>
<path d="M42.2707 72.8168L42.2667 73.4626L43.2881 73.4686L43.2921 72.8228L42.2707 72.8168Z" fill="#477B44"/>
<path d="M44.7826 73.6277C44.1312 73.624 43.5827 73.8777 43.5794 74.392L43.5676 76.3527C43.5644 76.8667 44.1101 77.1273 44.7611 77.1309C45.4044 77.135 45.9691 76.8812 45.9721 76.3674L45.9844 74.4061C45.9876 73.8925 45.4258 73.6315 44.7826 73.6277ZM44.9503 76.3909C44.9518 76.415 44.948 76.4392 44.9392 76.4618C44.9303 76.4843 44.9166 76.5048 44.8989 76.5217C44.8813 76.5386 44.8601 76.5516 44.8369 76.5598C44.8136 76.568 44.7888 76.5713 44.7642 76.5693C44.7399 76.5708 44.7156 76.567 44.693 76.5583C44.6703 76.5496 44.6499 76.5361 44.6332 76.5189C44.6164 76.5016 44.6037 76.481 44.596 76.4584C44.5882 76.4359 44.5856 76.412 44.5884 76.3883L44.6003 74.3681C44.5979 74.3444 44.6008 74.3205 44.6089 74.298C44.6169 74.2756 44.6299 74.2551 44.6469 74.2381C44.6639 74.2211 44.6845 74.2079 44.7073 74.1994C44.73 74.191 44.7544 74.1876 44.7787 74.1893C44.8034 74.1877 44.8282 74.1913 44.8513 74.1999C44.8745 74.2085 44.8955 74.2218 44.913 74.239C44.9304 74.2562 44.9439 74.2769 44.9524 74.2996C44.961 74.3223 44.9645 74.3465 44.9626 74.3707L44.9503 76.3909Z" fill="#477B44"/>
<path d="M47.978 73.6473C47.7047 73.6456 47.3502 73.7748 47.2846 73.9838H47.2688L47.2704 73.6842L46.2487 73.6783L46.2277 77.0986L47.2492 77.1043L47.2655 74.4439C47.263 74.4202 47.2659 74.3963 47.2739 74.3739C47.2819 74.3514 47.2949 74.331 47.3119 74.314C47.3289 74.297 47.3496 74.2839 47.3724 74.2756C47.3951 74.2673 47.4195 74.2639 47.4438 74.2659C47.4684 74.2643 47.4931 74.2679 47.5163 74.2764C47.5394 74.285 47.5604 74.2982 47.5778 74.3154C47.5952 74.3325 47.6087 74.3531 47.6173 74.3757C47.6259 74.3984 47.6294 74.4226 47.6277 74.4467L47.6115 77.1065L48.6327 77.1127L48.6493 74.399C48.6512 74.0042 48.629 73.6509 47.978 73.6473Z" fill="#477B44"/>
<path d="M51.3271 74.4386C51.3301 73.9249 50.7688 73.6646 50.1254 73.6601C49.4745 73.6563 48.9257 73.9102 48.9221 74.4242L48.9197 74.8846L49.9409 74.8907L49.9437 74.4006C49.9412 74.377 49.9441 74.3531 49.9521 74.3306C49.9602 74.3082 49.9732 74.2877 49.9902 74.2708C50.0072 74.2538 50.0279 74.2407 50.0507 74.2324C50.0735 74.2241 50.0979 74.2209 50.1221 74.2228C50.1468 74.2212 50.1715 74.2247 50.1946 74.2332C50.2177 74.2417 50.2387 74.2549 50.2561 74.272C50.2735 74.2891 50.2869 74.3097 50.2955 74.3324C50.3041 74.355 50.3075 74.3792 50.3057 74.4032L50.3047 74.5404C50.3005 75.2818 48.9193 74.9445 48.9141 75.8056L48.9098 76.5406C48.9074 76.9291 49.0741 77.1571 49.5893 77.161C49.8867 77.1624 50.1367 77.0503 50.2748 76.7763H50.2918L50.3455 77.1234L51.3831 77.13C51.348 76.8999 51.3254 76.6681 51.3151 76.4357L51.3271 74.4386ZM50.2935 76.4238C50.295 76.4479 50.2911 76.472 50.2823 76.4945C50.2734 76.5171 50.2596 76.5374 50.242 76.5543C50.2244 76.5712 50.2032 76.5842 50.18 76.5924C50.1568 76.6006 50.132 76.6038 50.1074 76.6018C50.0832 76.6033 50.0588 76.5996 50.0362 76.5909C50.0136 76.5822 49.9932 76.5688 49.9764 76.5515C49.9596 76.5343 49.9469 76.5137 49.9392 76.4912C49.9315 76.4686 49.9289 76.4447 49.9316 76.421L49.9352 75.7998C49.9362 75.65 49.9682 75.6267 50.1142 75.532L50.2995 75.4376L50.2935 76.4238Z" fill="#477B44"/>
<path d="M51.6337 72.8735L51.6075 77.1299L52.6293 77.1359L52.6555 72.8794L51.6337 72.8735Z" fill="#477B44"/>
<path d="M54.1464 73.6853C53.4954 73.681 52.9467 73.9345 52.9431 74.4486L52.9312 76.4097C52.9281 76.9235 53.4736 77.184 54.1246 77.1881C54.7679 77.1922 55.3326 76.9383 55.335 76.424L55.3391 75.7966L54.3181 75.7905L54.3138 76.4479C54.3153 76.472 54.3115 76.4962 54.3026 76.5187C54.2938 76.5412 54.2801 76.5617 54.2624 76.5786C54.2448 76.5955 54.2237 76.6085 54.2005 76.6168C54.1773 76.6251 54.1525 76.6284 54.1279 76.6265C54.1036 76.6281 54.0792 76.6244 54.0565 76.6158C54.0339 76.6071 54.0134 76.5937 53.9966 76.5764C53.9798 76.5592 53.9671 76.5385 53.9594 76.5159C53.9516 76.4933 53.9491 76.4694 53.9519 76.4457L53.9575 75.5553L55.3408 75.564L55.3473 74.4637C55.3511 73.9491 54.7897 73.6889 54.1464 73.6853ZM54.3232 75.0432L53.9612 75.041L53.9647 74.4255C53.9622 74.4018 53.9651 74.3778 53.9731 74.3553C53.9811 74.3328 53.9941 74.3123 54.0112 74.2953C54.0282 74.2782 54.0489 74.265 54.0717 74.2567C54.0946 74.2483 54.119 74.245 54.1433 74.2469C54.168 74.2452 54.1927 74.2488 54.2158 74.2573C54.239 74.2659 54.2599 74.2791 54.2773 74.2963C54.2947 74.3134 54.3082 74.3341 54.3167 74.3567C54.3253 74.3794 54.3287 74.4036 54.3269 74.4277L54.3232 75.0432Z" fill="#477B44"/>
<path d="M58.2509 73.7131C57.9452 73.7114 57.6863 73.8712 57.6202 74.1096H57.6046L57.6067 73.751L56.5854 73.745L56.5599 77.9299L57.5812 77.936L57.5874 76.872H57.6036C57.6668 77.0695 57.9236 77.2142 58.2291 77.2162C58.8641 77.2198 58.9709 76.8565 58.9737 76.4737L58.9854 74.4832C58.988 74.1005 58.8855 73.7171 58.2509 73.7131ZM57.9528 76.4139C57.9542 76.4379 57.9504 76.462 57.9415 76.4845C57.9326 76.507 57.9189 76.5274 57.9013 76.5443C57.8837 76.5611 57.8625 76.5741 57.8394 76.5823C57.8162 76.5905 57.7914 76.5938 57.7669 76.5918C57.7425 76.5934 57.7182 76.5898 57.6955 76.5811C57.6728 76.5725 57.6523 76.5591 57.6355 76.5419C57.6186 76.5246 57.6059 76.504 57.5981 76.4814C57.5903 76.4589 57.5877 76.4349 57.5904 76.4112L57.6023 74.5104C57.5998 74.4867 57.6027 74.4628 57.6107 74.4403C57.6187 74.4178 57.6316 74.3973 57.6486 74.3803C57.6656 74.3632 57.6863 74.35 57.7091 74.3417C57.7319 74.3333 57.7563 74.3299 57.7806 74.3318C57.8052 74.3303 57.8299 74.3339 57.853 74.3424C57.8761 74.351 57.897 74.3643 57.9144 74.3814C57.9318 74.3985 57.9452 74.4191 57.9538 74.4417C57.9624 74.4644 57.9659 74.4885 57.9641 74.5126L57.9528 76.4139Z" fill="#477B44"/>
<path d="M60.4462 73.7266C59.7944 73.7224 59.2457 73.9767 59.2429 74.4903L59.2306 76.4512C59.2279 76.9649 59.773 77.226 60.4249 77.2297C61.0686 77.2335 61.6327 76.979 61.6357 76.4658L61.6477 74.5047C61.651 73.9909 61.0895 73.7305 60.4462 73.7266ZM60.6138 76.4897C60.6154 76.5138 60.6115 76.538 60.6027 76.5605C60.5938 76.5831 60.5801 76.6035 60.5624 76.6203C60.5448 76.6372 60.5236 76.6502 60.5004 76.6584C60.4771 76.6666 60.4524 76.6698 60.4277 76.6678C60.4035 76.6693 60.3792 76.6656 60.3566 76.657C60.334 76.6484 60.3135 76.635 60.2968 76.6178C60.28 76.6006 60.2673 76.5801 60.2596 76.5575C60.2519 76.535 60.2493 76.5111 60.2521 76.4875L60.2644 74.4673C60.2618 74.4436 60.2646 74.4196 60.2726 74.3971C60.2806 74.3745 60.2936 74.354 60.3106 74.3369C60.3277 74.3199 60.3483 74.3067 60.3712 74.2984C60.3941 74.29 60.4185 74.2867 60.4428 74.2887C60.4675 74.287 60.4922 74.2906 60.5153 74.2991C60.5384 74.3075 60.5593 74.3208 60.5767 74.3379C60.5941 74.355 60.6075 74.3756 60.6161 74.3983C60.6246 74.4209 60.628 74.4451 60.6262 74.4691L60.6138 76.4897Z" fill="#477B44"/>
<path d="M63.586 76.4462C63.5874 76.4703 63.5836 76.4944 63.5747 76.517C63.5658 76.5395 63.552 76.5599 63.5344 76.5767C63.5168 76.5936 63.4956 76.6066 63.4724 76.6148C63.4492 76.623 63.4244 76.6262 63.3998 76.6242C63.3755 76.6258 63.3512 76.6221 63.3285 76.6135C63.3058 76.6048 63.2854 76.5914 63.2686 76.5742C63.2518 76.557 63.2391 76.5363 63.2313 76.5138C63.2236 76.4912 63.221 76.4673 63.2238 76.4436L63.24 73.7834L62.2187 73.7775L62.2013 76.6286C62.199 76.9876 62.3828 77.2395 62.9133 77.2431C63.2191 77.2446 63.5667 77.0554 63.5679 76.822L63.5837 76.8226L63.5814 77.2053L64.6024 77.2115L64.6232 73.7915L63.6022 73.7854L63.586 76.4462Z" fill="#477B44"/>
<path d="M66.9 73.7627C66.5467 73.7605 66.3206 73.885 66.1665 74.0933L66.1503 74.0927L66.1523 73.7998L65.131 73.7937L65.1106 77.2136L66.1319 77.2198L66.1477 74.5584C66.1453 74.5348 66.1482 74.5109 66.1562 74.4885C66.1643 74.4661 66.1773 74.4456 66.1943 74.4286C66.2113 74.4117 66.232 74.3986 66.2547 74.3902C66.2775 74.3819 66.3019 74.3785 66.3261 74.3804C66.3507 74.3789 66.3754 74.3826 66.3985 74.3911C66.4216 74.3997 66.4425 74.413 66.4598 74.4302C66.4772 74.4473 66.4906 74.4679 66.4992 74.4906C66.5077 74.5132 66.5112 74.5373 66.5094 74.5614L66.5029 75.6436L67.5242 75.6497L67.5323 74.3643C67.5348 73.9935 67.4065 73.7657 66.9 73.7627Z" fill="#477B44"/>
<path d="M68.8287 72.9808L68.8026 77.2375L69.8244 77.2435L69.8505 72.9868L68.8287 72.9808Z" fill="#477B44"/>
<path d="M71.3423 73.7926C70.6904 73.7893 70.1426 74.0433 70.1399 74.5563L70.1276 76.5172C70.1245 77.0314 70.67 77.2922 71.3215 77.2962C71.9645 77.3003 72.5289 77.0462 72.5319 76.5321L72.5349 75.9042L71.5143 75.8982L71.5097 76.5558C71.5112 76.5799 71.5075 76.6041 71.4986 76.6266C71.4897 76.6492 71.476 76.6696 71.4583 76.6865C71.4407 76.7033 71.4195 76.7163 71.3963 76.7245C71.373 76.7327 71.3482 76.7358 71.3236 76.7338C71.2994 76.7354 71.2751 76.7318 71.2524 76.7232C71.2298 76.7145 71.2093 76.7012 71.1925 76.684C71.1758 76.6668 71.1631 76.6462 71.1554 76.6236C71.1477 76.6011 71.1451 76.5772 71.1479 76.5536L71.1534 75.6628L72.5368 75.6719L72.5437 74.5716C72.5466 74.0574 71.9853 73.7966 71.3423 73.7926ZM71.5187 75.1515L71.1569 75.1489L71.16 74.5334C71.1575 74.5097 71.1604 74.4858 71.1685 74.4633C71.1765 74.4408 71.1895 74.4204 71.2065 74.4033C71.2235 74.3863 71.2442 74.3732 71.2669 74.3648C71.2897 74.3565 71.3141 74.3531 71.3384 74.355C71.363 74.3533 71.3877 74.3569 71.4108 74.3654C71.434 74.3738 71.455 74.3871 71.4724 74.4042C71.4898 74.4213 71.5032 74.4419 71.5118 74.4645C71.5204 74.4871 71.5239 74.5113 71.5221 74.5354L71.5187 75.1515Z" fill="#477B44"/>
<path d="M75.8074 73.0239L74.4724 73.0156L74.447 77.2719L75.7815 77.2803C76.4812 77.2848 77.1184 77.0791 77.1215 76.5111L77.138 73.8091C77.1415 73.2409 76.5073 73.0279 75.8074 73.0239ZM75.9892 76.3905C75.9876 76.5097 75.9623 76.6711 75.7851 76.6702L75.5844 76.669L75.6025 73.6316L75.804 73.6335C75.9815 73.6347 76.0043 73.7959 76.0035 73.9157L75.9892 76.3905Z" fill="#477B44"/>
<path d="M78.5676 73.8361C77.9149 73.8322 77.3663 74.0862 77.3636 74.6L77.3521 76.5605C77.349 77.075 77.8945 77.3349 78.5455 77.3391C79.1888 77.3434 79.7525 77.0895 79.7552 76.575L79.7598 75.9471L78.7389 75.9414L78.7342 76.599C78.7356 76.6231 78.7317 76.6472 78.7228 76.6696C78.7138 76.6921 78.7001 76.7125 78.6825 76.7293C78.6649 76.7462 78.6438 76.7592 78.6206 76.7674C78.5974 76.7757 78.5727 76.779 78.5482 76.7772C78.5239 76.7788 78.4996 76.7751 78.4769 76.7664C78.4543 76.7578 78.4339 76.7443 78.4172 76.7271C78.4004 76.7099 78.3878 76.6892 78.3801 76.6667C78.3725 76.6441 78.37 76.6202 78.3729 76.5966L78.3783 75.7066L79.761 75.7147L79.7683 74.6146C79.7715 74.1005 79.2102 73.8399 78.5676 73.8361ZM78.7436 75.1947L78.381 75.1923L78.3849 74.5765C78.3823 74.5527 78.3852 74.5287 78.3932 74.5062C78.4013 74.4836 78.4142 74.4631 78.4313 74.446C78.4484 74.429 78.4691 74.4158 78.492 74.4075C78.5149 74.3992 78.5394 74.3959 78.5637 74.3979C78.5883 74.3964 78.6129 74.4001 78.6359 74.4086C78.6589 74.4172 78.6798 74.4304 78.6971 74.4475C78.7145 74.4646 78.7279 74.4851 78.7365 74.5076C78.7451 74.5302 78.7487 74.5543 78.747 74.5783L78.7436 75.1947Z" fill="#477B44"/>
<path d="M78.2313 73.5897L78.6736 73.5921L79.7801 72.7911L78.9999 72.7866L78.2313 73.5897Z" fill="#477B44"/>
<path d="M81.6074 73.8966L81.2699 76.5073H81.2537L81.0041 73.8925L79.9501 73.8865L80.6055 77.3096L81.8518 77.3171L82.5395 73.9021L81.6074 73.8966Z" fill="#477B44"/>
<path d="M83.6894 73.8688C83.0372 73.8648 82.4886 74.1185 82.4862 74.6327L82.4743 76.593C82.4712 77.1075 83.0167 77.368 83.6681 77.3717C84.3115 77.3761 84.8759 77.122 84.879 76.6086L84.8828 75.9807L83.8612 75.9745L83.8577 76.6322C83.8591 76.6562 83.8552 76.6802 83.8463 76.7027C83.8374 76.7251 83.8237 76.7455 83.8061 76.7623C83.7885 76.7791 83.7675 76.7921 83.7443 76.8003C83.7212 76.8085 83.6965 76.8118 83.672 76.81C83.6477 76.8116 83.6233 76.8079 83.6006 76.7993C83.5779 76.7907 83.5574 76.7773 83.5406 76.7601C83.5237 76.7429 83.511 76.7223 83.5032 76.6997C83.4954 76.6772 83.4928 76.6532 83.4955 76.6295L83.5014 75.7392L84.8841 75.7476L84.891 74.6478C84.8934 74.1335 84.3321 73.8724 83.6894 73.8688ZM83.8655 75.2268L83.5037 75.2246L83.5071 74.6091C83.5047 74.5854 83.5077 74.5615 83.5158 74.539C83.5238 74.5165 83.5369 74.4961 83.5539 74.479C83.571 74.462 83.5916 74.4488 83.6144 74.4404C83.6373 74.4321 83.6617 74.4287 83.686 74.4306C83.7106 74.429 83.7353 74.4326 83.7584 74.4411C83.7815 74.4497 83.8025 74.463 83.8199 74.4801C83.8373 74.4972 83.8507 74.5178 83.8593 74.5404C83.8679 74.5631 83.8715 74.5873 83.8697 74.6114L83.8655 75.2268Z" fill="#477B44"/>
<path d="M85.3487 73.0815L85.3215 77.3378L86.3433 77.3441L86.3705 73.0877L85.3487 73.0815Z" fill="#477B44"/>
<path d="M87.8606 73.8932C87.2088 73.8898 86.6597 74.1434 86.6573 74.6573L86.6454 76.6184C86.6423 77.132 87.1879 77.3928 87.8393 77.3968C88.4831 77.4005 89.0475 77.1468 89.051 76.6327L89.0625 74.6718C89.065 74.1578 88.5037 73.8975 87.8606 73.8932ZM88.0283 76.656C88.0298 76.6801 88.0261 76.7043 88.0173 76.7268C88.0085 76.7493 87.9947 76.7698 87.9771 76.7867C87.9595 76.8036 87.9384 76.8166 87.9151 76.8248C87.8919 76.833 87.8672 76.8362 87.8426 76.8342C87.8183 76.8359 87.794 76.8324 87.7713 76.8238C87.7486 76.8153 87.7281 76.8019 87.7113 76.7848C87.6945 76.7676 87.6818 76.747 87.674 76.7245C87.6663 76.7019 87.6637 76.678 87.6665 76.6544L87.6788 74.6338C87.6762 74.6101 87.6791 74.5861 87.6871 74.5635C87.6951 74.541 87.708 74.5205 87.7251 74.5034C87.7421 74.4864 87.7628 74.4732 87.7856 74.4649C87.8085 74.4565 87.8329 74.4532 87.8573 74.4552C87.8819 74.4535 87.9067 74.457 87.9298 74.4655C87.9529 74.474 87.9739 74.4873 87.9913 74.5044C88.0087 74.5216 88.0221 74.5422 88.0306 74.5648C88.0391 74.5875 88.0425 74.6117 88.0406 74.6358L88.0283 76.656Z" fill="#477B44"/>
<path d="M91.0209 73.9128C90.7152 73.9106 90.4569 74.0708 90.3906 74.3096L90.3752 74.309L90.3772 73.9502L89.3559 73.944L89.3304 78.1289L90.3517 78.1353L90.3591 77.0708H90.3744C90.4372 77.2688 90.6938 77.4136 90.9997 77.4157C91.6347 77.4198 91.7414 77.0556 91.7433 76.6732L91.756 74.6827C91.757 74.2998 91.6556 73.9164 91.0209 73.9128ZM90.7235 76.6127C90.7249 76.6368 90.721 76.6609 90.7122 76.6834C90.7033 76.7059 90.6895 76.7263 90.6719 76.7432C90.6542 76.76 90.6331 76.773 90.6099 76.7812C90.5867 76.7894 90.5619 76.7927 90.5373 76.7907C90.513 76.7924 90.4887 76.7888 90.466 76.7802C90.4433 76.7716 90.4227 76.7582 90.406 76.7409C90.3892 76.7237 90.3765 76.703 90.3689 76.6804C90.3612 76.6578 90.3588 76.6338 90.3617 76.6101L90.3724 74.7097C90.37 74.686 90.373 74.6621 90.3811 74.6396C90.3891 74.6171 90.4021 74.5967 90.4192 74.5797C90.4363 74.5627 90.457 74.5496 90.4798 74.5413C90.5026 74.533 90.527 74.5297 90.5513 74.5317C90.5758 74.53 90.6004 74.5335 90.6234 74.542C90.6464 74.5505 90.6673 74.5637 90.6847 74.5808C90.702 74.5978 90.7153 74.6183 90.7239 74.6409C90.7324 74.6634 90.7358 74.6875 90.7339 74.7115L90.7235 76.6127Z" fill="#477B44"/>
<path d="M93.9343 74.027C93.6277 74.0256 93.3692 74.1856 93.3036 74.424H93.2874L93.2894 74.0655L92.2684 74.0594L92.2426 78.2443L93.2639 78.2508L93.2708 77.1864H93.2866C93.3494 77.3838 93.6063 77.5288 93.9122 77.531C94.5468 77.5346 94.6535 77.1704 94.6558 76.7885L94.6681 74.7973C94.6709 74.4146 94.5688 74.0313 93.9343 74.027ZM93.6358 76.7269C93.6373 76.751 93.6335 76.7752 93.6246 76.7978C93.6157 76.8203 93.602 76.8408 93.5843 76.8577C93.5667 76.8747 93.5456 76.8877 93.5224 76.896C93.4991 76.9042 93.4743 76.9076 93.4497 76.9057C93.4254 76.9072 93.4011 76.9035 93.3784 76.8949C93.3557 76.8863 93.3353 76.8729 93.3185 76.8557C93.3016 76.8385 93.2889 76.8179 93.2811 76.7954C93.2733 76.7728 93.2706 76.7489 93.2732 76.7253L93.2848 74.824C93.2824 74.8004 93.2854 74.7765 93.2935 74.7541C93.3015 74.7317 93.3146 74.7113 93.3316 74.6943C93.3486 74.6773 93.3691 74.6642 93.3919 74.6558C93.4146 74.6475 93.439 74.644 93.4632 74.6458C93.4879 74.6441 93.5126 74.6476 93.5357 74.6561C93.5588 74.6646 93.5798 74.6779 93.5972 74.695C93.6146 74.7122 93.6281 74.7328 93.6366 74.7555C93.6451 74.7782 93.6485 74.8024 93.6466 74.8265L93.6358 76.7269Z" fill="#477B44"/>
<path d="M96.2868 73.942C95.635 73.938 95.0872 74.1919 95.0836 74.7063L95.0717 76.6664C95.0686 77.1808 95.6141 77.4414 96.2663 77.4455C96.9094 77.4493 97.4737 77.1956 97.4765 76.6817L97.4803 76.0539L96.4593 76.0478L96.4547 76.7054C96.4564 76.7294 96.4527 76.7536 96.4439 76.7761C96.4352 76.7987 96.4215 76.8191 96.4039 76.836C96.3863 76.8529 96.3651 76.8659 96.3419 76.8741C96.3187 76.8822 96.294 76.8854 96.2694 76.8834C96.2451 76.885 96.2206 76.8813 96.1979 76.8727C96.1752 76.864 96.1546 76.8506 96.1378 76.8333C96.121 76.816 96.1082 76.7953 96.1005 76.7727C96.0927 76.7501 96.0902 76.7261 96.093 76.7024L96.0984 75.8125L97.4818 75.8208L97.4887 74.7205C97.4917 74.2068 96.9303 73.9463 96.2868 73.942ZM96.4644 75.3005L96.1026 75.298L96.1061 74.6824C96.1034 74.6587 96.1062 74.6349 96.1141 74.6124C96.1221 74.59 96.135 74.5695 96.152 74.5525C96.1689 74.5355 96.1895 74.5224 96.2123 74.514C96.2351 74.5057 96.2594 74.5024 96.2836 74.5044C96.3083 74.5026 96.333 74.5061 96.3561 74.5146C96.3793 74.5231 96.4003 74.5364 96.4177 74.5535C96.4351 74.5707 96.4485 74.5913 96.457 74.614C96.4655 74.6367 96.4689 74.6609 96.467 74.685L96.4644 75.3005Z" fill="#477B44"/>
<path d="M100.822 73.97C100.411 73.9676 100.298 74.0922 100.12 74.3185C100.001 74.0421 99.8245 73.9639 99.4631 73.9618C99.0524 73.9592 98.9384 74.0775 98.777 74.3042H98.7612L98.7624 73.9989L97.7414 73.9929L97.7209 77.4127L98.742 77.4188L98.7577 74.7585C98.7553 74.7349 98.7581 74.7111 98.7661 74.6887C98.7741 74.6663 98.787 74.6459 98.8039 74.629C98.8209 74.612 98.8414 74.5989 98.8641 74.5905C98.8868 74.5821 98.9111 74.5787 98.9353 74.5805C98.9599 74.5788 98.9847 74.5822 99.0079 74.5907C99.0311 74.5991 99.0521 74.6123 99.0696 74.6295C99.0871 74.6466 99.1006 74.6672 99.1092 74.6899C99.1178 74.7126 99.1213 74.7368 99.1194 74.761L99.1036 77.4208L100.125 77.4269L100.141 74.7669C100.138 74.7433 100.141 74.7193 100.149 74.6969C100.157 74.6744 100.17 74.654 100.187 74.637C100.204 74.62 100.225 74.6068 100.248 74.5984C100.271 74.5901 100.295 74.5867 100.319 74.5885C100.344 74.5869 100.369 74.5905 100.392 74.5991C100.415 74.6076 100.436 74.6209 100.453 74.638C100.47 74.6551 100.484 74.6757 100.492 74.6983C100.501 74.7209 100.504 74.7451 100.503 74.7692L100.487 77.4293L101.509 77.4352L101.525 74.6078C101.527 74.3507 101.466 73.9736 100.822 73.97Z" fill="#477B44"/>
<path d="M103.083 73.9826C102.432 73.9788 101.884 74.2325 101.88 74.7467L101.868 76.7076C101.866 77.2217 102.41 77.482 103.061 77.4861C103.705 77.4899 104.269 77.2354 104.272 76.7222L104.276 76.0943L103.255 76.0881L103.251 76.7458C103.252 76.7699 103.248 76.7941 103.24 76.8166C103.231 76.8392 103.217 76.8596 103.199 76.8764C103.181 76.8933 103.16 76.9062 103.137 76.9144C103.114 76.9225 103.089 76.9257 103.064 76.9236C103.04 76.9253 103.016 76.9217 102.993 76.9131C102.97 76.9046 102.95 76.8912 102.933 76.8741C102.916 76.8569 102.904 76.8363 102.896 76.8138C102.888 76.7912 102.886 76.7673 102.889 76.7438L102.895 75.8533L104.277 75.8616L104.284 74.7614C104.288 74.2472 103.726 73.9868 103.083 73.9826ZM103.26 75.341L102.898 75.3391L102.902 74.723C102.899 74.6995 102.902 74.6756 102.91 74.6533C102.918 74.6309 102.931 74.6105 102.948 74.5936C102.965 74.5766 102.985 74.5635 103.008 74.5551C103.031 74.5468 103.055 74.5434 103.079 74.5452C103.104 74.5434 103.128 74.5469 103.152 74.5553C103.175 74.5637 103.196 74.577 103.213 74.5941C103.231 74.6113 103.244 74.6319 103.253 74.6546C103.261 74.6773 103.264 74.7015 103.262 74.7256L103.26 75.341Z" fill="#477B44"/>
<path d="M106.586 74.0023C106.313 74.0007 105.958 74.1303 105.892 74.3386H105.876L105.878 74.0397L104.856 74.0335L104.836 77.4525L105.858 77.4588L105.874 74.7988C105.872 74.7752 105.875 74.7512 105.883 74.7288C105.891 74.7063 105.904 74.6859 105.921 74.6689C105.938 74.6518 105.959 74.6387 105.981 74.6303C106.004 74.622 106.029 74.6186 106.053 74.6204C106.077 74.6189 106.102 74.6225 106.125 74.631C106.148 74.6396 106.169 74.6528 106.186 74.6699C106.204 74.687 106.217 74.7076 106.225 74.7302C106.234 74.7528 106.237 74.7769 106.236 74.8009L106.22 77.4611L107.241 77.4671L107.257 74.7534C107.259 74.3591 107.238 74.0064 106.586 74.0023Z" fill="#477B44"/>
<path d="M109.093 74.6212L109.096 74.0589L108.815 74.0575L108.818 73.4359L107.797 73.4299L107.793 74.0513L107.52 74.0496L107.517 74.6114L107.79 74.6134L107.777 76.7773C107.774 77.3031 107.902 77.4716 108.634 77.4762L109.091 77.4784L109.094 76.9166L108.975 76.9157C108.822 76.9147 108.798 76.7895 108.798 76.6814L108.811 74.6193L109.093 74.6212Z" fill="#477B44"/>
<path d="M111.896 74.784L111.494 74.7818L111.503 73.239L110.369 73.2324L110.343 77.4892L111.478 77.4957L111.49 75.4632L111.891 75.4655L111.88 77.4979L113.013 77.5051L113.039 73.2483L111.905 73.2416L111.896 74.784Z" fill="#477B44"/>
<path d="M114.789 76.7558C114.791 76.7799 114.787 76.804 114.778 76.8266C114.769 76.8491 114.756 76.8695 114.738 76.8864C114.72 76.9033 114.699 76.9163 114.676 76.9245C114.653 76.9326 114.628 76.9358 114.603 76.9338C114.579 76.9355 114.555 76.9319 114.532 76.9234C114.509 76.9148 114.489 76.9015 114.472 76.8843C114.455 76.8672 114.442 76.8466 114.435 76.8241C114.427 76.8015 114.424 76.7776 114.427 76.754L114.443 74.0936L113.421 74.0872L113.404 76.9391C113.402 77.2977 113.586 77.5497 114.117 77.5531C114.422 77.5551 114.769 77.3657 114.771 77.1327H114.787L114.784 77.5155L115.806 77.5215L115.826 74.1016L114.805 74.0956L114.789 76.7558Z" fill="#477B44"/>
<path d="M119.352 74.0804C118.941 74.0778 118.828 74.2029 118.65 74.429C118.531 74.1531 118.355 74.0741 117.993 74.0722C117.583 74.0696 117.469 74.189 117.307 74.4148H117.291L117.292 74.1095L116.271 74.1033L116.251 77.5232L117.272 77.5294L117.289 74.869C117.286 74.8454 117.289 74.8216 117.297 74.7991C117.305 74.7767 117.318 74.7563 117.335 74.7393C117.352 74.7223 117.372 74.7092 117.395 74.7008C117.418 74.6925 117.442 74.6892 117.466 74.691C117.491 74.6894 117.515 74.6929 117.539 74.7014C117.562 74.71 117.583 74.7233 117.6 74.7404C117.617 74.7575 117.631 74.7781 117.639 74.8007C117.648 74.8234 117.651 74.8476 117.649 74.8717L117.634 77.5317L118.655 77.5373L118.671 74.8777C118.668 74.8541 118.671 74.8302 118.679 74.8078C118.688 74.7854 118.701 74.765 118.718 74.748C118.735 74.731 118.755 74.7178 118.778 74.7094C118.801 74.7009 118.825 74.6975 118.849 74.6991C118.874 74.6975 118.899 74.701 118.922 74.7095C118.945 74.7181 118.966 74.7314 118.983 74.7485C119.001 74.7656 119.014 74.7862 119.023 74.8088C119.031 74.8315 119.035 74.8557 119.033 74.8798L119.017 77.5401L120.038 77.5465L120.055 74.7189C120.057 74.4613 119.995 74.0839 119.352 74.0804Z" fill="#477B44"/>
<path d="M122.717 74.8722C122.72 74.3575 122.159 74.0972 121.516 74.0935C120.864 74.0899 120.315 74.3434 120.312 74.8572L120.309 75.3178L121.329 75.324L121.333 74.8341C121.331 74.8105 121.334 74.7866 121.341 74.7642C121.349 74.7418 121.362 74.7213 121.379 74.7043C121.396 74.6872 121.417 74.6741 121.44 74.6656C121.462 74.6572 121.487 74.6538 121.511 74.6555C121.535 74.6538 121.56 74.6573 121.583 74.6657C121.606 74.6742 121.627 74.6874 121.645 74.7046C121.662 74.7217 121.676 74.7423 121.684 74.765C121.693 74.7877 121.696 74.8119 121.694 74.836V74.9733C121.689 75.7142 120.309 75.3774 120.303 76.2379L120.299 76.9735C120.297 77.3618 120.464 77.5902 120.979 77.5935C121.277 77.5949 121.526 77.4833 121.664 77.2088H121.681L121.734 77.5566L122.772 77.5627C122.737 77.3326 122.714 77.1009 122.703 76.8684L122.717 74.8722ZM121.683 76.8567C121.685 76.8808 121.681 76.905 121.672 76.9276C121.663 76.9501 121.65 76.9706 121.632 76.9875C121.614 77.0044 121.593 77.0173 121.57 77.0255C121.546 77.0336 121.522 77.0368 121.497 77.0347C121.473 77.0361 121.448 77.0324 121.426 77.0237C121.403 77.015 121.383 77.0016 121.366 76.9844C121.349 76.9672 121.337 76.9467 121.329 76.9242C121.321 76.9017 121.319 76.8778 121.321 76.8542L121.325 76.2324C121.327 76.0832 121.358 76.0593 121.503 75.9646L121.689 75.8702L121.683 76.8567Z" fill="#477B44"/>
<path d="M123.313 74.1421L123.292 77.562L124.314 77.5679L124.335 74.1481L123.313 74.1421Z" fill="#477B44"/>
<path d="M123.318 73.3056L123.314 73.9514L124.336 73.9574L124.34 73.3116L123.318 73.3056Z" fill="#477B44"/>
<path d="M126.362 74.1209C126.088 74.1195 125.734 74.2491 125.668 74.4574H125.653L125.654 74.1585L124.633 74.1523L124.611 77.5717L125.634 77.5782L125.649 74.918C125.647 74.8943 125.65 74.8703 125.658 74.8478C125.666 74.8253 125.679 74.8049 125.696 74.7878C125.713 74.7708 125.734 74.7576 125.756 74.7492C125.779 74.7408 125.804 74.7374 125.828 74.7392C125.853 74.7377 125.877 74.7413 125.9 74.7499C125.923 74.7584 125.944 74.7717 125.961 74.7888C125.979 74.8059 125.992 74.8265 126.001 74.8491C126.009 74.8717 126.013 74.8958 126.011 74.9199L125.996 77.5799L127.017 77.586L127.032 74.8723C127.035 74.4779 127.014 74.1249 126.362 74.1209Z" fill="#477B44"/>
<path d="M127.934 53H14.0853V54.8163H127.934V53Z" fill="#477B44"/>
</g>
<defs>
<linearGradient id="paint0_linear" x1="70.458" y1="122.543" x2="78.9832" y2="-32.8357" gradientUnits="userSpaceOnUse">
<stop stop-color="white"/>
<stop offset="1" stop-color="white" stop-opacity="0.21"/>
</linearGradient>
<clipPath id="clip1">
<rect width="114" height="28" fill="white" transform="translate(13.9342 53)"/>
</clipPath>
</defs>
</svg>
