<svg width="21" height="24" viewBox="0 0 21 24" fill="none" xmlns="http://www.w3.org/2000/svg">
<path d="M10.5 23.7279L4.9315 17.3639C3.83017 16.1052 3.08016 14.5016 2.77631 12.7558C2.47246 11.0099 2.62842 9.20035 3.22446 7.55582C3.8205 5.91129 4.82986 4.50569 6.1249 3.51677C7.41993 2.52784 8.94248 2 10.5 2C12.0575 2 13.5801 2.52784 14.8751 3.51677C16.1701 4.50569 17.1795 5.91129 17.7755 7.55582C18.3716 9.20035 18.5275 11.0099 18.2237 12.7558C17.9198 14.5016 17.1698 16.1052 16.0685 17.3639L10.5 23.7279ZM14.8313 15.9499C15.6878 14.9709 16.2711 13.7236 16.5074 12.3658C16.7436 11.0079 16.6223 9.60052 16.1587 8.32148C15.6951 7.04244 14.91 5.94923 13.9028 5.18009C12.8956 4.41095 11.7114 4.00043 10.5 4.00043C9.28862 4.00043 8.10444 4.41095 7.0972 5.18009C6.08996 5.94923 5.30491 7.04244 4.8413 8.32148C4.3777 9.60052 4.25636 11.0079 4.49265 12.3658C4.72893 13.7236 5.31222 14.9709 6.16875 15.9499L10.5 20.8999L14.8313 15.9499ZM10.5 12.9999C10.0359 12.9999 9.59075 12.7892 9.26257 12.4141C8.93438 12.0391 8.75 11.5304 8.75 10.9999C8.75 10.4695 8.93438 9.96078 9.26257 9.58571C9.59075 9.21064 10.0359 8.99992 10.5 8.99992C10.9641 8.99992 11.4093 9.21064 11.7374 9.58571C12.0656 9.96078 12.25 10.4695 12.25 10.9999C12.25 11.5304 12.0656 12.0391 11.7374 12.4141C11.4093 12.7892 10.9641 12.9999 10.5 12.9999Z" fill="white"/>
</svg>
