<svg width="168" height="102" viewBox="0 0 168 102" fill="none" xmlns="http://www.w3.org/2000/svg">
<path d="M160.424 7.57404H155.292V2.71562C155.292 2.4775 155.245 2.24171 155.154 2.02171C155.063 1.80171 154.929 1.60182 154.761 1.43344C154.593 1.26506 154.393 1.1315 154.173 1.04037C153.953 0.949247 153.717 0.902344 153.479 0.902344H142.549C142.068 0.902344 141.607 1.09338 141.267 1.43344C140.927 1.7735 140.736 2.23471 140.736 2.71562V7.57404H80.8268V2.71562C80.8268 2.4775 80.7799 2.24171 80.6888 2.02171C80.5976 1.80171 80.4641 1.60182 80.2957 1.43344C80.1273 1.26506 79.9274 1.1315 79.7074 1.04037C79.4874 0.949247 79.2516 0.902344 79.0135 0.902344H68.0801C67.5991 0.902344 67.1379 1.09338 66.7979 1.43344C66.4578 1.7735 66.2668 2.23471 66.2668 2.71562V7.57404H62.0294C59.9006 7.57645 57.8597 8.42318 56.3544 9.92845C54.8491 11.4337 54.0024 13.4746 54 15.6034V59.7269C54 60.2078 54.191 60.669 54.5311 61.0091C54.8712 61.3491 55.3324 61.5402 55.8133 61.5402C56.2942 61.5402 56.7554 61.3491 57.0955 61.0091C57.4355 60.669 57.6266 60.2078 57.6266 59.7269V15.6044C57.6279 14.4371 58.0922 13.318 58.9176 12.4926C59.743 11.6672 60.8621 11.203 62.0294 11.2016H160.424C161.354 11.2027 162.245 11.5725 162.903 12.2299C163.56 12.8873 163.93 13.7787 163.931 14.7084V74.6775C163.93 75.6073 163.56 76.4986 162.903 77.1561C162.245 77.8135 161.354 78.1833 160.424 78.1844H156.568V71.3209C156.568 70.84 156.377 70.3788 156.037 70.0387C155.697 69.6987 155.236 69.5076 154.755 69.5076H135.273C134.792 69.5076 134.331 69.6987 133.991 70.0387C133.651 70.3788 133.46 70.84 133.46 71.3209V78.1844H104.387L111.249 76.3082C114.786 75.3494 117.935 73.3091 120.255 70.4726L131.911 56.2759C132.146 55.9865 132.288 55.6327 132.317 55.2612L133.345 41.725C133.386 41.0619 133.222 40.4023 132.874 39.836C132.527 39.2697 132.013 38.8242 131.404 38.5601C131.753 38.3633 132.027 38.0563 132.183 37.6871C132.339 37.3179 132.369 36.9074 132.267 36.5198C132.165 36.1321 131.937 35.7893 131.619 35.5448C131.301 35.3004 130.912 35.1682 130.511 35.169H122.565C122.084 35.169 121.623 35.36 121.283 35.7001C120.942 36.0401 120.751 36.5013 120.751 36.9822C120.751 37.4632 120.942 37.9244 121.283 38.2644C121.623 38.6045 122.084 38.7955 122.565 38.7955H128.496C128.293 38.9235 128.106 39.0736 127.937 39.243L121.282 45.8974C120.046 47.2729 118.883 48.7131 117.8 50.212C117.498 50.5867 117.358 51.0659 117.41 51.544C117.462 52.0221 117.701 52.46 118.076 52.7614C118.451 53.0628 118.93 53.203 119.408 53.1512C119.886 53.0993 120.324 52.8597 120.626 52.4849L122.712 49.8913L128.065 55.2449L117.455 68.1723C115.61 70.4269 113.107 72.0485 110.295 72.8105L81.6599 81.0509C81.2262 81.2165 80.8725 81.5419 80.6715 81.9603C80.4706 82.3787 80.4376 82.8583 80.5794 83.3002C80.7212 83.7422 81.027 84.113 81.434 84.3364C81.8409 84.5597 82.3179 84.6186 82.7669 84.5009L89.0652 82.4817V97.6769H86.5447C86.0637 97.6769 85.6025 97.8679 85.2625 98.208C84.9224 98.548 84.7314 99.0092 84.7314 99.4902C84.7314 99.9711 84.9224 100.432 85.2625 100.772C85.6025 101.112 86.0637 101.303 86.5447 101.303H97.6303C98.1112 101.303 98.5724 101.112 98.9125 100.772C99.2526 100.432 99.4436 99.9711 99.4436 99.4902C99.4436 99.0092 99.2526 98.548 98.9125 98.208C98.5724 97.8679 98.1112 97.6769 97.6303 97.6769H92.6907V81.812H160.424C162.316 81.8098 164.129 81.0576 165.466 79.7203C166.803 78.383 167.556 76.5698 167.558 74.6786V14.7094C167.556 12.8182 166.803 11.0051 165.466 9.66776C164.129 8.33045 162.316 7.57821 160.424 7.57606V7.57404ZM144.359 4.52992H151.664V7.57404H144.359V4.52992ZM69.8883 4.52992H77.1941V7.57404H69.8883V4.52992ZM129.637 42.6697L129.001 51.0532L125.128 47.18L129.637 42.6697ZM137.079 78.1844V73.1342H152.937V78.1844H137.079Z" fill="white"/>
<path d="M78.1175 97.4299H54.834V87.8014C54.8378 81.6622 56.2405 75.6047 58.9355 70.0887C59.6672 68.6097 60.7964 67.3637 62.1965 66.4903C63.5966 65.617 65.2122 65.1508 66.8623 65.144H97.4202C103.816 65.1408 110.008 62.8915 114.915 58.7889C115.102 58.6375 115.257 58.4504 115.371 58.2384C115.485 58.0265 115.555 57.794 115.579 57.5545C115.602 57.315 115.577 57.0733 115.506 56.8434C115.435 56.6135 115.319 56.4001 115.164 56.2156C115.01 56.0311 114.82 55.8792 114.606 55.7688C114.392 55.6583 114.159 55.5915 113.919 55.5722C113.679 55.5529 113.438 55.5816 113.209 55.6565C112.98 55.7315 112.769 55.8512 112.587 56.0086C108.333 59.5655 102.966 61.5156 97.4212 61.5185H84.2838C86.3946 59.3305 87.5737 56.4086 87.5725 53.3684V46.7099C89.8925 46.5574 92.0622 45.5087 93.623 43.7855C95.1838 42.0622 96.0133 39.7996 95.9361 37.4759C95.8588 35.1522 94.881 32.9496 93.2092 31.3338C91.5375 29.718 89.3029 28.8157 86.9779 28.8176C83.9591 28.7465 81.0855 29.4497 78.9688 31.7511C78.4554 32.3063 77.8329 32.7496 77.1402 33.0531C76.4476 33.3565 75.6997 33.5137 74.9435 33.5146H69.9653C67.9647 33.5173 66.0468 34.313 64.6318 35.7274C63.2169 37.1417 62.4204 39.0594 62.4169 41.06V54.657C62.3722 56.1971 62.8295 57.71 63.7198 58.9675C64.1413 59.5333 64.656 60.0233 65.2419 60.4165C65.873 60.8396 66.7923 60.9929 67.2997 61.5205C64.9015 61.4658 62.5369 62.0921 60.4802 63.3266C58.4235 64.5612 56.7588 66.3534 55.6793 68.4956C52.7402 74.5073 51.2099 81.1097 51.2044 87.8014V97.4299H45.8133C45.3324 97.4299 44.8712 97.621 44.5311 97.961C44.191 98.3011 44 98.7623 44 99.2432C44 99.7241 44.191 100.185 44.5311 100.525C44.8712 100.865 45.3324 101.056 45.8133 101.056H78.1175C78.5984 101.056 79.0596 100.865 79.3996 100.525C79.7397 100.185 79.9307 99.7241 79.9307 99.2432C79.9307 98.7623 79.7397 98.3011 79.3996 97.961C79.0596 97.621 78.5984 97.4299 78.1175 97.4299ZM75.2844 61.5002C74.2798 61.4376 73.2957 61.1885 72.3823 60.7656C72.8069 60.5478 73.2069 60.2851 73.5756 59.9822C74.3281 59.3483 74.9284 58.5534 75.3324 57.6562C75.7363 56.7591 75.9336 55.7827 75.9095 54.7991V46.7281H83.9459V53.3653C83.943 55.5265 83.0829 57.5982 81.5545 59.1261C80.026 60.654 77.9539 61.5133 75.7928 61.5154C75.605 61.5165 75.4427 61.5124 75.2844 61.5012V61.5002ZM66.0435 54.657V41.06C66.0443 40.0199 66.4577 39.0226 67.1929 38.287C67.9282 37.5514 68.9252 37.1375 69.9653 37.1361H74.9485C76.2068 37.1347 77.4511 36.8733 78.6036 36.3683C79.756 35.8634 80.7917 35.1257 81.6456 34.2016C83.0662 32.6511 85.0043 32.3639 86.986 32.438C88.3997 32.438 89.7554 32.9996 90.755 33.9992C91.7547 34.9988 92.3162 36.3546 92.3162 37.7683C92.3162 39.1819 91.7547 40.5377 90.755 41.5373C89.7554 42.5369 88.3997 43.0985 86.986 43.0985H74.0992C73.6183 43.0985 73.1571 43.2896 72.817 43.6296C72.477 43.9697 72.2859 44.4309 72.2859 44.9118V54.796C72.2873 55.2729 72.1799 55.7437 71.9721 56.1729C71.7643 56.6021 71.4615 56.9783 71.0866 57.273C70.7118 57.5676 70.2747 57.773 69.8086 57.8736C69.3425 57.9742 68.8596 57.9672 68.3966 57.8534C67.6762 57.7103 67.0354 57.3031 66.6 56.7116C66.1646 56.1202 65.9661 55.3874 66.0435 54.657Z" fill="white"/>
<path d="M106.075 28.3477H115.951C116.432 28.3477 116.893 28.1566 117.233 27.8166C117.573 27.4765 117.764 27.0153 117.764 26.5344V19.8597C117.764 19.3787 117.573 18.9175 117.233 18.5775C116.893 18.2374 116.432 18.0464 115.951 18.0464H106.075C105.594 18.0464 105.133 18.2374 104.792 18.5775C104.452 18.9175 104.261 19.3787 104.261 19.8597V26.5324C104.261 26.7707 104.308 27.0067 104.399 27.2269C104.49 27.4471 104.623 27.6473 104.792 27.8159C104.96 27.9845 105.16 28.1182 105.38 28.2095C105.6 28.3007 105.836 28.3477 106.075 28.3477ZM107.888 21.675H114.137V24.7191H107.888V21.675Z" fill="white"/>
<path d="M104.261 40.0675C104.261 40.5484 104.452 41.0097 104.792 41.3497C105.133 41.6898 105.594 41.8808 106.075 41.8808H115.951C116.432 41.8808 116.893 41.6898 117.233 41.3497C117.573 41.0097 117.764 40.5484 117.764 40.0675V33.3948C117.764 32.9139 117.573 32.4527 117.233 32.1126C116.893 31.7726 116.432 31.5815 115.951 31.5815H106.075C105.594 31.5815 105.133 31.7726 104.792 32.1126C104.452 32.4527 104.261 32.9139 104.261 33.3948V40.0675ZM107.888 35.2081H114.137V38.2522H107.888V35.2081Z" fill="white"/>
<path d="M122.794 25.0113H154.982C155.462 25.0113 155.924 24.8203 156.264 24.4802C156.604 24.1402 156.795 23.679 156.795 23.198C156.795 22.7171 156.604 22.2559 156.264 21.9159C155.924 21.5758 155.462 21.3848 154.982 21.3848H122.794C122.313 21.3848 121.852 21.5758 121.512 21.9159C121.172 22.2559 120.981 22.7171 120.981 23.198C120.981 23.679 121.172 24.1402 121.512 24.4802C121.852 24.8203 122.313 25.0113 122.794 25.0113Z" fill="white"/>
<path d="M22.8755 65.9758H1.04792V62.2524L11.8614 50.458C13.4221 48.7189 14.5294 47.2697 15.1834 46.1103C15.8523 44.936 16.1868 43.7618 16.1868 42.5876C16.1868 41.0417 15.7483 39.7931 14.8713 38.8419C14.0092 37.8906 12.8424 37.4149 11.3709 37.4149C9.61693 37.4149 8.25689 37.95 7.29074 39.0202C6.32459 40.0904 5.84151 41.5545 5.84151 43.4125H0.423634C0.423634 41.4356 0.86955 39.6594 1.76138 38.0838C2.66808 36.4934 3.9538 35.2597 5.61855 34.3827C7.29817 33.5057 9.23047 33.0673 11.4155 33.0673C14.5666 33.0673 17.0489 33.8625 18.8622 35.4529C20.6905 37.0285 21.6046 39.2135 21.6046 42.0079C21.6046 43.628 21.1438 45.3299 20.2223 47.1136C19.3156 48.8824 17.8218 50.8964 15.7408 53.1558L7.80354 61.6504H22.8755V65.9758Z" fill="white"/>
</svg>
