<svg xmlns="http://www.w3.org/2000/svg" xmlns:xlink="http://www.w3.org/1999/xlink" width="90.502" height="90.5" viewBox="0 0 90.502 90.5">
  <defs>
    <linearGradient id="linear-gradient" x1="-0.39" y1="0.112" x2="1.42" y2="1.3" gradientUnits="objectBoundingBox">
      <stop offset="0" stop-color="#0969c9"/>
      <stop offset="1" stop-color="#64d88d"/>
    </linearGradient>
  </defs>
  <path id="Tracé_2214" data-name="Tracé 2214" d="M38.295,90.387A41.781,41.781,0,0,1,0,49.394,41.783,41.783,0,0,1,37.948,7.857a41.339,41.339,0,0,1,28.48,8.282L68.762,13.8,66.4,11.444a2.135,2.135,0,0,1,0-3.016l5.182-5.181A11.01,11.01,0,0,1,79.42,0,11.188,11.188,0,0,1,90.5,11.083a11.011,11.011,0,0,1-3.246,7.837L82.075,24.1a2.153,2.153,0,0,1-3.016,0L76.7,21.74l-2.333,2.333a40.961,40.961,0,0,1,5.549,9.853,1.344,1.344,0,1,1-2.5.985C70.572,17.529,51.179,7.259,32.955,11.333,9.395,16.6-3.75,42.915,6.059,64.912,16.916,89.261,49.919,95.322,68.764,76.477A38.642,38.642,0,0,0,79.31,41.3a1.344,1.344,0,0,1,2.634-.539C87.164,66.249,66.929,90.5,41.334,90.5Q39.826,90.5,38.295,90.387ZM68.523,17.846c.734.637,3.5,3.4,4.136,4.131l6.067-6.066-4.134-4.134Zm7.019-8.92,6.035,6.035a1.344,1.344,0,0,1,0,1.9L78.6,19.84l1.968,1.968,4.788-4.788a8.339,8.339,0,0,0,2.459-5.936A8.474,8.474,0,0,0,79.42,2.688a8.34,8.34,0,0,0-5.936,2.459L68.7,9.935,70.663,11.9l2.978-2.978a1.344,1.344,0,0,1,1.9,0Zm-56.9,62.94a32.247,32.247,0,0,1-8-13.254,1.344,1.344,0,1,1,2.569-.792,29.538,29.538,0,0,0,6.4,11.171l3.214-3.214a1.344,1.344,0,1,1,1.9,1.9L21.51,70.894a29.5,29.5,0,0,0,36.111,2.85c-1.057-1.057-2.15-2.085-3.173-3.173a5.947,5.947,0,1,1,8.43-8.391c1.079,1.02,2.1,2.1,3.154,3.154a29.692,29.692,0,0,0-2.852-36.111l-3.216,3.217a1.345,1.345,0,0,1-1.9-1.9l3.215-3.215a29.489,29.489,0,0,0-36.108-2.85c1.057,1.057,2.15,2.086,3.175,3.175a5.946,5.946,0,1,1-8.427,8.392c-1.081-1.021-2.108-2.108-3.159-3.159A29.476,29.476,0,0,0,12,51.564a1.344,1.344,0,0,1-2.68.222A32.151,32.151,0,0,1,15.492,30a32.5,32.5,0,0,1,30.48-12.754C67.2,20.258,79.709,43.895,70.347,63.177a32.227,32.227,0,0,1-29.191,17.91A31.617,31.617,0,0,1,18.637,71.866Zm36.744-5.512a3.238,3.238,0,0,0,.954,2.3l3.485,3.484a29.983,29.983,0,0,0,4.609-4.608L60.944,64.05a3.119,3.119,0,0,0-2.234-.929A3.282,3.282,0,0,0,55.381,66.354ZM18.359,30.682l3.488,3.488a3.285,3.285,0,0,0,5.561-2.3,3.239,3.239,0,0,0-.954-2.3l-3.489-3.488A29.914,29.914,0,0,0,18.359,30.682Zm8.032,29.59,8.535-17.033a1.367,1.367,0,0,1,.6-.6l17.031-8.534a2.862,2.862,0,0,1,3.841,3.84h0L47.863,54.978a1.364,1.364,0,0,1-.6.6L30.231,64.112a2.775,2.775,0,0,1-1.251.3A2.9,2.9,0,0,1,26.391,60.272Zm2.4,1.2a.174.174,0,0,0,.233.234l15.367-7.7-7.9-7.9ZM53.761,36.509,38.4,44.208l7.9,7.9,7.7-15.366a.175.175,0,0,0-.155-.252A.172.172,0,0,0,53.761,36.509Z" transform="translate(0)" fill="url(#linear-gradient)"/>
</svg>
