<svg width="131" height="104" viewBox="0 0 131 104" fill="none" xmlns="http://www.w3.org/2000/svg">
<path d="M13.6597 51.8142H8.26412V25.7504L0.30453 28.4705V23.8999L12.9685 19.2401H13.6597V51.8142Z" fill="white"/>
<path d="M112.579 50.1736C112.855 50.1735 113.128 50.1145 113.38 50.0006C113.632 49.8866 113.857 49.7202 114.041 49.5123L129.696 31.7718C130.015 31.411 130.191 30.9451 130.191 30.4625C130.191 29.9798 130.015 29.5139 129.696 29.1531L114.041 11.4126C113.857 11.2046 113.632 11.0382 113.38 10.9243C113.128 10.8103 112.855 10.7513 112.579 10.7513H96.9229V2.87333C96.9229 2.35074 96.7169 1.84954 96.35 1.47993C95.9832 1.11032 95.4856 0.902569 94.9667 0.902344L75.397 0.902344C74.878 0.902344 74.3802 1.11 74.0132 1.47963C73.6462 1.84926 73.44 2.35059 73.44 2.87333V10.7573H53.8737C53.3546 10.7573 52.8568 10.9649 52.4898 11.3346C52.1228 11.7042 51.9166 12.2055 51.9166 12.7283V48.2034C51.9168 48.726 52.1231 49.2271 52.4901 49.5966C52.8571 49.966 53.3548 50.1736 53.8737 50.1736H73.44V58.0575H65.6126C65.1386 58.0573 64.6807 58.2305 64.3239 58.5448L48.6683 72.3408C48.4584 72.5258 48.2902 72.7538 48.1749 73.0097C48.0596 73.2655 48 73.5432 48 73.8241C48 74.1051 48.0596 74.3828 48.1749 74.6386C48.2902 74.8944 48.4584 75.1225 48.6683 75.3075L64.3248 89.1035C64.6816 89.4177 65.1395 89.5908 65.6135 89.5907H73.4417V101.416C73.4417 101.939 73.6479 102.44 74.0149 102.81C74.3819 103.179 74.8797 103.387 75.3987 103.387H94.9676C95.4866 103.387 95.9844 103.179 96.3514 102.81C96.7184 102.44 96.9246 101.939 96.9246 101.416V89.5916H116.496C117.015 89.5916 117.513 89.3839 117.88 89.0143C118.247 88.6447 118.453 88.1433 118.453 87.6206V60.0285C118.453 59.5058 118.247 59.0044 117.88 58.6348C117.513 58.2652 117.015 58.0575 116.496 58.0575H96.9229V50.1736H112.579ZM77.3541 4.84431H93.0097V10.7564H77.3541V4.84431ZM93.0097 99.4457H77.3541V89.5916H93.0097V99.4457ZM114.536 61.9995V77.7657H108.666C108.147 77.7657 107.649 77.9733 107.282 78.343C106.915 78.7126 106.709 79.2139 106.709 79.7367C106.709 80.2594 106.915 80.7607 107.282 81.1304C107.649 81.5 108.147 81.7076 108.666 81.7076H114.536V85.6496H66.3476L52.928 73.8246L66.3476 61.9986H114.536L114.536 61.9995ZM77.3541 58.0575V50.1736H93.0097V58.0575H77.3541ZM94.9693 46.2325H55.8273V42.2905H65.6126C65.8696 42.2905 66.1241 42.2395 66.3615 42.1405C66.599 42.0414 66.8147 41.8962 66.9965 41.7132C67.1782 41.5302 67.3223 41.3129 67.4207 41.0738C67.519 40.8346 67.5697 40.5783 67.5697 40.3195C67.5697 40.0607 67.519 39.8044 67.4207 39.5652C67.3223 39.3261 67.1782 39.1088 66.9965 38.9258C66.8147 38.7428 66.599 38.5976 66.3615 38.4986C66.1241 38.3995 65.8696 38.3485 65.6126 38.3485H55.8273V14.6984H111.7L125.615 30.4654L111.7 46.2299H94.9659L94.9693 46.2325Z" fill="white"/>
</svg>
