<svg width="86" height="86" viewBox="0 0 86 86" fill="none" xmlns="http://www.w3.org/2000/svg">
<g clip-path="url(#clip0)">
<path d="M84.7405 47.8526C84.906 47.8527 85.0699 47.8201 85.2228 47.7568C85.3757 47.6935 85.5147 47.6007 85.6317 47.4837C85.7487 47.3667 85.8416 47.2277 85.9048 47.0748C85.9681 46.9219 86.0007 46.758 86.0006 46.5925V43.5092C85.9981 41.3756 85.1495 39.3301 83.6408 37.8214C82.1321 36.3127 80.0866 35.4641 77.953 35.4616H77.0199C78.4813 34.1416 79.5083 32.4097 79.9657 30.4942C80.4231 28.5788 80.2894 26.5697 79.5822 24.7318C78.875 22.8939 77.6274 21.3134 76.0041 20.1987C74.3807 19.0839 72.4576 18.4872 70.4883 18.4872C68.519 18.4872 66.596 19.0839 64.9726 20.1987C63.3492 21.3134 62.1017 22.8939 61.3944 24.7318C60.6872 26.5697 60.5535 28.5788 61.0109 30.4942C61.4683 32.4097 62.4953 34.1416 63.9567 35.4616H63.0222C61.5586 35.4604 60.1224 35.8583 58.8682 36.6126C57.614 37.3669 56.5892 38.4489 55.9042 39.7423C55.7346 39.6892 55.5636 39.6394 55.3911 39.5929L48.6678 37.7922V34.2135C50.2863 33.2512 51.6335 31.893 52.5828 30.2668C53.5321 28.6406 54.0523 26.7997 54.0944 24.9172H55.5554C56.5299 24.9183 57.4708 24.5613 58.1993 23.9141C58.9279 23.2669 59.3932 22.3746 59.5069 21.4067C59.6206 20.4389 59.3747 19.463 58.816 18.6646C58.2573 17.8661 57.4247 17.3008 56.4765 17.0761V13.6461C56.4765 10.0269 55.0387 6.55598 52.4796 3.99685C49.9205 1.43771 46.4495 0 42.8304 0C39.2112 0 35.7403 1.43771 33.1811 3.99685C30.622 6.55598 29.1843 10.0269 29.1843 13.6461V17.1734C28.2891 17.4721 27.5294 18.0797 27.0412 18.8874C26.553 19.6951 26.3682 20.6502 26.5199 21.5817C26.6715 22.5132 27.1498 23.3603 27.8689 23.9715C28.5881 24.5826 29.5013 24.9178 30.4451 24.9172H31.906C31.9482 26.7997 32.4683 28.6406 33.4176 30.2668C34.3669 31.893 35.7141 33.2512 37.3326 34.2135V37.793L30.6093 39.5936C30.4369 39.6406 30.2661 39.6904 30.0969 39.743C29.4119 38.4496 28.3872 37.3676 27.1329 36.6133C25.8787 35.859 24.4425 35.4611 22.979 35.4623H22.0445C23.5058 34.1423 24.5328 32.4104 24.9902 30.495C25.4476 28.5795 25.3139 26.5704 24.6067 24.7325C23.8995 22.8946 22.652 21.3141 21.0286 20.1994C19.4052 19.0846 17.4821 18.4879 15.5128 18.4879C13.5435 18.4879 11.6205 19.0846 9.99708 20.1994C8.37369 21.3141 7.12618 22.8946 6.41896 24.7325C5.71175 26.5704 5.57803 28.5795 6.03542 30.495C6.49282 32.4104 7.51987 34.1423 8.9812 35.4623H8.04741C5.91393 35.4648 3.86853 36.3133 2.35986 37.8218C0.851201 39.3304 0.00247547 41.3757 -0.000135882 43.5092V46.5932C0.00764504 46.9221 0.143783 47.235 0.379183 47.4649C0.614582 47.6948 0.930568 47.8235 1.25961 47.8235C1.58864 47.8235 1.90463 47.6948 2.14003 47.4649C2.37543 47.235 2.51157 46.9221 2.51935 46.5932V43.5092C2.52103 42.0436 3.10398 40.6385 4.14033 39.6021C5.17668 38.5658 6.58179 37.9828 8.04741 37.9811H22.9747C23.9421 37.981 24.8925 38.2347 25.731 38.717C26.5695 39.1994 27.2667 39.8934 27.7529 40.7296C25.6726 41.8579 23.935 43.5263 22.7232 45.5591C21.5113 47.5919 20.87 49.9139 20.8668 52.2805V59.0461H2.51935V52.4722C2.52332 52.3043 2.49367 52.1372 2.43215 51.9809C2.37063 51.8246 2.27847 51.6822 2.1611 51.562C2.04373 51.4418 1.90351 51.3463 1.7487 51.2811C1.59388 51.2159 1.42759 51.1823 1.25961 51.1823C1.09162 51.1823 0.92533 51.2159 0.770514 51.2811C0.615698 51.3463 0.475482 51.4418 0.358111 51.562C0.24074 51.6822 0.148584 51.8246 0.087061 51.9809C0.0255384 52.1372 -0.00410833 52.3043 -0.000135882 52.4722V60.3076C-0.000228524 60.4731 0.0323015 60.637 0.0955944 60.7899C0.158887 60.9429 0.251701 61.0818 0.36873 61.1988C0.485759 61.3159 0.624708 61.4087 0.777631 61.472C0.930555 61.5353 1.09445 61.5678 1.25996 61.5677H29.605C28.5528 63.2061 27.814 65.0256 27.4259 66.9337C27.3776 67.2533 27.4539 67.5793 27.6391 67.8442C27.8243 68.1091 28.1042 68.2927 28.421 68.3571C28.7378 68.4214 29.0672 68.3616 29.341 68.1899C29.6149 68.0182 29.8124 67.7479 29.8926 67.4348C30.5552 64.1879 32.3998 61.3027 35.0688 59.3386C37.7379 57.3744 41.0411 56.4713 44.3382 56.8043C47.6352 57.1373 50.6912 58.6827 52.9135 61.1408C55.1359 63.599 56.3664 66.7948 56.3664 70.1086C56.3664 73.4224 55.1359 76.6182 52.9135 79.0763C50.6912 81.5345 47.6352 83.0798 44.3382 83.4128C41.0411 83.7458 37.7379 82.8427 35.0688 80.8786C32.3998 78.9145 30.5552 76.0293 29.8926 72.7824C29.8124 72.4693 29.6149 72.1989 29.341 72.0273C29.0672 71.8556 28.7378 71.7957 28.421 71.8601C28.1042 71.9244 27.8243 72.1081 27.6391 72.373C27.4539 72.6379 27.3776 72.9639 27.4259 73.2835C27.8908 75.5696 28.8533 77.7254 30.245 79.5976C31.6368 81.4699 33.4237 83.0128 35.4789 84.1168C37.534 85.2208 39.807 85.8588 42.1365 85.9855C44.466 86.1121 46.7947 85.7244 48.9575 84.8498C51.1202 83.9751 53.0639 82.635 54.6505 80.9247C56.237 79.2144 57.4276 77.1757 58.1376 74.9535C58.8476 72.7312 59.0597 70.3799 58.7587 68.0665C58.4577 65.7531 57.6511 63.5343 56.3961 61.5677H84.7405C84.906 61.5678 85.0699 61.5353 85.2228 61.472C85.3757 61.4087 85.5147 61.3159 85.6317 61.1988C85.7487 61.0818 85.8416 60.9429 85.9048 60.7899C85.9681 60.637 86.0007 60.4731 86.0006 60.3076V52.4722C86.0045 52.3043 85.9749 52.1372 85.9134 51.9809C85.8519 51.8246 85.7597 51.6822 85.6423 51.562C85.525 51.4418 85.3847 51.3463 85.2299 51.2811C85.0751 51.2159 84.9088 51.1823 84.7408 51.1823C84.5728 51.1823 84.4066 51.2159 84.2517 51.2811C84.0969 51.3463 83.9567 51.4418 83.8393 51.562C83.722 51.6822 83.6298 51.8246 83.5683 51.9809C83.5068 52.1372 83.4771 52.3043 83.4811 52.4722V59.0482H65.1301V52.2826C65.1263 49.9165 64.4848 47.5952 63.2729 45.5629C62.0611 43.5307 60.3238 41.8627 58.244 40.7346C58.7302 39.8983 59.4274 39.2043 60.2659 38.722C61.1044 38.2397 62.0548 37.9859 63.0222 37.9861H77.953C79.4186 37.9877 80.8238 38.5707 81.8601 39.607C82.8965 40.6434 83.4794 42.0485 83.4811 43.5141V46.5981C83.481 46.7636 83.5135 46.9275 83.5768 47.0804C83.6401 47.2334 83.7329 47.3723 83.85 47.4893C83.967 47.6064 84.1059 47.6992 84.2589 47.7625C84.4118 47.8258 84.5757 47.8583 84.7412 47.8582L84.7405 47.8526ZM8.28843 28.2386C8.28844 26.8111 8.71146 25.4155 9.50406 24.2281C10.2967 23.0407 11.4233 22.1149 12.7418 21.5674C14.0602 21.0199 15.5113 20.8753 16.9118 21.1519C18.3124 21.4285 19.5996 22.1139 20.6108 23.1216C21.6221 24.1292 22.3122 25.4139 22.5938 26.8135C22.8755 28.213 22.7362 29.6646 22.1934 30.985C21.6507 32.3054 20.7288 33.4354 19.5443 34.2323C18.3598 35.0291 16.9658 35.4572 15.5382 35.4623H15.4868C13.576 35.4534 11.7464 34.6887 10.3977 33.3352C9.04895 31.9817 8.29065 30.1494 8.28843 28.2386ZM40.3264 43.758L39.1072 44.7742C38.8332 45.0025 38.5063 45.1584 38.1565 45.2278C37.8067 45.2971 37.4451 45.2777 37.1047 45.1713C36.7643 45.0649 36.456 44.8749 36.208 44.6187C35.96 44.3624 35.7801 44.0481 35.6849 43.7044L34.9463 41.0383L37.5539 40.3399C37.7662 41.065 38.1205 41.7406 38.5964 42.3274C39.0723 42.9142 39.6601 43.4005 40.3257 43.758H40.3264ZM48.4451 40.3399L51.0527 41.0383L50.3191 43.7044C50.224 44.0482 50.0442 44.3626 49.7962 44.619C49.5482 44.8754 49.2399 45.0655 48.8994 45.1719C48.559 45.2783 48.1973 45.2977 47.8475 45.2282C47.4976 45.1587 47.1707 45.0026 46.8968 44.7742L45.6776 43.758C46.3431 43.4005 46.9308 42.9142 47.4065 42.3273C47.8822 41.7405 48.2365 41.0649 48.4487 40.3399H48.4451ZM57.0142 20.9424C57.0138 21.3282 56.8604 21.6982 56.5875 21.971C56.3147 22.2439 55.9447 22.3973 55.5589 22.3977H54.1014V19.4871H55.5568C55.943 19.4869 56.3135 19.6401 56.5868 19.913C56.8601 20.1859 57.0138 20.5561 57.0142 20.9424ZM31.7038 13.6461C31.7038 10.6951 32.876 7.86503 34.9627 5.77839C37.0493 3.69175 39.8794 2.51948 42.8304 2.51948C45.7813 2.51948 48.6114 3.69175 50.6981 5.77839C52.7847 7.86503 53.957 10.6951 53.957 13.6461V16.9676H49.787C49.2212 16.967 48.6787 16.742 48.2786 16.3419C47.8786 15.9418 47.6535 15.3994 47.653 14.8336C47.657 14.6657 47.6273 14.4986 47.5658 14.3423C47.5043 14.186 47.4121 14.0435 47.2947 13.9234C47.1774 13.8032 47.0371 13.7077 46.8823 13.6425C46.7275 13.5773 46.5612 13.5437 46.3932 13.5437C46.2253 13.5437 46.059 13.5773 45.9041 13.6425C45.7493 13.7077 45.6091 13.8032 45.4917 13.9234C45.3744 14.0435 45.2822 14.186 45.2207 14.3423C45.1592 14.4986 45.1295 14.6657 45.1335 14.8336C45.1329 15.3994 44.9079 15.9418 44.5079 16.3419C44.1078 16.742 43.5653 16.967 42.9995 16.9676H31.7038V13.6461ZM28.9891 20.9424C28.9894 20.5564 29.143 20.1863 29.416 19.9135C29.689 19.6406 30.0591 19.4872 30.4451 19.4871H31.8997V22.397H30.4451C30.0592 22.3968 29.6892 22.2435 29.4162 21.9708C29.1433 21.6981 28.9896 21.3282 28.9891 20.9424ZM34.4157 24.6775V19.4871H43.0002C43.6366 19.4873 44.2662 19.3567 44.85 19.1033C45.4338 18.8499 45.9592 18.4792 46.3936 18.0141C46.828 18.4792 47.3534 18.8499 47.9372 19.1033C48.521 19.3566 49.1506 19.4873 49.787 19.4871H51.5813V24.6747C51.5608 26.9372 50.6476 29.1 49.0405 30.6926C47.4334 32.2852 45.2624 33.1787 42.9999 33.1787C40.7373 33.1787 38.5663 32.2852 36.9592 30.6926C35.3521 29.1 34.439 26.9372 34.4185 24.6747L34.4157 24.6775ZM43.0002 35.776C44.0674 35.7758 45.1289 35.6213 46.1519 35.3172V38.7613C46.1519 39.5972 45.8198 40.399 45.2287 40.9901C44.6376 41.5812 43.8358 41.9133 42.9999 41.9133C42.1639 41.9133 41.3622 41.5812 40.7711 40.9901C40.18 40.399 39.8479 39.5972 39.8479 38.7613V35.3179C40.8711 35.6218 41.9328 35.7761 43.0002 35.776ZM62.6106 52.2819V59.0475H54.4003C52.9216 57.5188 51.1506 56.3032 49.1926 55.473C47.2345 54.6428 45.1295 54.215 43.0027 54.215C40.8759 54.215 38.7709 54.6428 36.8128 55.473C34.8548 56.3032 33.0837 57.5188 31.6051 59.0475H23.3898V52.2819C23.3927 49.9457 24.1648 47.6755 25.5869 45.822C27.009 43.9684 29.0019 42.6348 31.2577 42.0271L32.5121 41.6909L33.2563 44.3774C33.4635 45.1274 33.8554 45.8134 34.3963 46.3727C34.9372 46.932 35.6097 47.3467 36.3523 47.5788C37.095 47.8109 37.884 47.853 38.6471 47.7012C39.4102 47.5495 40.123 47.2087 40.7203 46.7102L43.0002 44.8073L45.2801 46.7102C45.8774 47.2086 46.5902 47.5492 47.3532 47.7008C48.1162 47.8525 48.9051 47.8104 49.6476 47.5783C50.3902 47.3462 51.0626 46.9316 51.6034 46.3724C52.1443 45.8132 52.5362 45.1273 52.7434 44.3774L53.4904 41.6909L54.7449 42.0271C57.0003 42.6352 58.9927 43.969 60.4144 45.8225C61.836 47.676 62.6079 49.946 62.6106 52.2819ZM63.2639 28.2379C63.2639 26.8103 63.6869 25.4148 64.4795 24.2274C65.2721 23.04 66.3988 22.1142 67.7172 21.5667C69.0357 21.0192 70.4868 20.8746 71.8873 21.1512C73.2879 21.4278 74.575 22.1132 75.5863 23.1209C76.5976 24.1285 77.2876 25.4132 77.5693 26.8128C77.851 28.2123 77.7116 29.6639 77.1689 30.9843C76.6261 32.3047 75.7043 33.4347 74.5198 34.2316C73.3353 35.0284 71.9413 35.4565 70.5137 35.4616H70.4622C68.5516 35.4527 66.7221 34.6881 65.3734 33.3347C64.0247 31.9814 63.2663 30.1493 63.2639 28.2386V28.2379Z" fill="url(#paint0_linear)"/>
<path d="M41.2407 77.5733C41.7955 77.5748 42.345 77.4662 42.8576 77.2539C43.3701 77.0416 43.8355 76.7298 44.2267 76.3365L50.7104 69.8527C51.4901 69.0581 51.9245 67.9879 51.9192 66.8747C51.9139 65.7615 51.4694 64.6954 50.6822 63.9082C49.8951 63.121 48.829 62.6765 47.7158 62.6712C46.6026 62.6659 45.5323 63.1003 44.7377 63.88L41.2414 67.3763C40.4441 66.5986 39.3718 66.1673 38.2581 66.1764C37.1443 66.1855 36.0792 66.6341 35.2946 67.4246C34.5101 68.2152 34.0695 69.2836 34.0688 70.3974C34.0682 71.5112 34.5075 72.5801 35.2912 73.3716L38.2547 76.335C38.6458 76.7286 39.1111 77.0408 39.6237 77.2533C40.1362 77.4659 40.6858 77.5746 41.2407 77.5733ZM37.0721 69.1818C37.3919 68.8629 37.8252 68.6838 38.2769 68.6838C38.7286 68.6838 39.1618 68.8629 39.4816 69.1818L40.3499 70.0501C40.5862 70.2863 40.9066 70.4189 41.2407 70.4189C41.5748 70.4189 41.8952 70.2863 42.1315 70.0501L46.5186 65.663C46.8401 65.3531 47.2704 65.1817 47.7169 65.1857C48.1635 65.1898 48.5906 65.369 48.9064 65.6848C49.2221 66.0006 49.4013 66.4277 49.4054 66.8742C49.4095 67.3208 49.2381 67.7511 48.9281 68.0725L42.4444 74.5563C42.1249 74.8757 41.6915 75.0552 41.2397 75.0552C40.7878 75.0552 40.3544 74.8757 40.0349 74.5563L37.0714 71.5928C36.7523 71.273 36.5731 70.8398 36.5731 70.388C36.5731 69.9363 36.7523 69.503 37.0714 69.1832L37.0721 69.1818Z" fill="url(#paint1_linear)"/>
</g>
<defs>
<linearGradient id="paint0_linear" x1="43.0002" y1="0" x2="43.0002" y2="86.0089" gradientUnits="userSpaceOnUse">
<stop stop-color="#3C84F0"/>
<stop offset="1" stop-color="#A13CF0"/>
</linearGradient>
<linearGradient id="paint1_linear" x1="42.9941" y1="62.6712" x2="42.9941" y2="77.5733" gradientUnits="userSpaceOnUse">
<stop stop-color="#3C84F0"/>
<stop offset="1" stop-color="#A13CF0"/>
</linearGradient>
<clipPath id="clip0">
<rect width="86" height="86" fill="white"/>
</clipPath>
</defs>
</svg>
