<svg width="73" height="73" viewBox="0 0 73 73" fill="none" xmlns="http://www.w3.org/2000/svg">
<g clip-path="url(#clip0)">
<path d="M1.53913 28.3301C1.77625 28.4855 2.06548 28.5407 2.34331 28.4835C2.62114 28.4262 2.86487 28.2614 3.02098 28.025C3.45457 27.3669 4.02526 26.8099 4.69414 26.3918C5.36302 25.9737 6.11437 25.7044 6.89698 25.6024C7.67959 25.5003 8.47506 25.5677 9.22916 25.8002C9.98327 26.0326 10.6783 26.4246 11.2668 26.9493C11.8022 27.4256 12.2382 28.0024 12.55 28.647C12.8618 29.2915 13.0432 29.991 13.0839 30.7055C13.1788 32.131 13.795 33.4721 14.8156 34.4742C15.0574 34.7147 15.3848 34.8498 15.7262 34.8498C16.0676 34.8498 16.3951 34.7147 16.6369 34.4742L23.8993 27.2298C24.1128 27.0172 24.3977 26.8909 24.699 26.8754C25.0002 26.8599 25.2966 26.9562 25.531 27.1457C25.5605 27.1776 25.587 27.2112 25.6183 27.2418L32.2126 33.8226C31.6968 34.1572 31.1033 34.3537 30.4893 34.3931C29.2878 34.4637 28.12 34.8164 27.0809 35.4225C26.9568 35.492 26.8478 35.5855 26.7604 35.6975C26.6729 35.8095 26.6088 35.9378 26.5716 36.0749C26.5344 36.2119 26.525 36.355 26.5439 36.4957C26.5629 36.6364 26.6097 36.772 26.6817 36.8944C26.7538 37.0168 26.8496 37.1237 26.9635 37.2088C27.0774 37.2938 27.2072 37.3554 27.3452 37.3898C27.4833 37.4242 27.6268 37.4308 27.7674 37.4092C27.9081 37.3876 28.043 37.3382 28.1643 37.264C28.9112 36.8283 29.7508 36.5748 30.6145 36.524C32.0437 36.4292 33.3882 35.8139 34.3926 34.7949C34.5282 34.6431 34.6293 34.4638 34.689 34.2693C34.7487 34.0749 34.7655 33.8698 34.7382 33.6682C34.711 33.4667 34.6404 33.2734 34.5313 33.1016C34.4222 32.9298 34.2771 32.7836 34.1061 32.673L27.1368 25.7199C27.0223 25.609 26.9312 25.4764 26.8688 25.3298C26.8064 25.1833 26.7739 25.0258 26.7733 24.8665C26.7728 24.7073 26.8041 24.5496 26.8655 24.4026C26.9269 24.2556 27.0171 24.1223 27.1308 24.0106L33.7173 17.4383C34.0347 17.9417 34.2209 18.5163 34.259 19.1098C34.3148 20.1025 34.5662 21.0745 34.9987 21.9702C35.4313 22.866 36.0364 23.6679 36.7797 24.3301C38.1982 25.5827 40.0308 26.2676 41.9249 26.2532C43.819 26.2388 45.6408 25.526 47.0401 24.2521C48.1382 23.2407 48.9143 21.9297 49.2719 20.4818C49.6295 19.0339 49.5527 17.5132 49.0513 16.1085C48.5498 14.7038 47.6457 13.4771 46.4513 12.5809C45.2569 11.6847 43.8249 11.1586 42.3333 11.0678C41.7335 11.0297 41.1524 10.844 40.642 10.5273L47.2303 3.95434C47.3435 3.84127 47.478 3.75158 47.6259 3.69039C47.7739 3.6292 47.9326 3.5977 48.0928 3.5977C48.253 3.5977 48.4116 3.6292 48.5596 3.69039C48.7076 3.75158 48.842 3.84127 48.9553 3.95434L56.3711 11.3543C56.5718 11.5545 56.844 11.6669 57.1277 11.6669C57.4115 11.6669 57.6836 11.5545 57.8843 11.3543L58.1852 11.054C59.207 10.0465 59.8235 8.70046 59.9181 7.27022C59.9827 6.21759 60.3508 5.206 60.9779 4.35713C61.6051 3.50825 62.4646 2.85823 63.4532 2.48523C64.4418 2.11223 65.5173 2.03214 66.5504 2.25457C67.5835 2.47701 68.5302 2.99252 69.2767 3.7391C70.0232 4.48567 70.5376 5.43153 70.7582 6.46293C70.9788 7.49432 70.896 8.56734 70.52 9.55294C70.1439 10.5385 69.4905 11.3947 68.6384 12.0186C67.7863 12.6425 66.7717 13.0074 65.7166 13.0696C64.2874 13.1643 62.9429 13.7796 61.9386 14.7987L61.6376 15.099C61.437 15.2992 61.3244 15.5708 61.3244 15.8539C61.3244 16.1371 61.437 16.4086 61.6376 16.6089L69.0535 24.0088C69.2819 24.2373 69.4102 24.5468 69.4102 24.8695C69.4102 25.1922 69.2819 25.5017 69.0535 25.7301L67.4284 27.3517C67.2341 27.5533 67.1268 27.8228 67.1295 28.1024C67.1323 28.382 67.2448 28.6494 67.4429 28.8472C67.6411 29.0449 67.9091 29.1572 68.1893 29.1599C68.4695 29.1626 68.7396 29.0555 68.9416 28.8616L70.5667 27.24C71.1958 26.6108 71.5492 25.7583 71.5492 24.8695C71.5492 23.9806 71.1958 23.1281 70.5667 22.4989L63.9459 15.8924C64.4996 15.4881 65.1572 15.2496 65.8418 15.2047C66.8369 15.1486 67.8112 14.8973 68.7088 14.4651C69.6065 14.033 70.41 13.4286 71.0734 12.6864C72.3288 11.2708 73.0152 9.44201 73.0006 7.55184C72.986 5.66167 72.2716 3.84363 70.9946 2.44744C69.9809 1.35131 68.6667 0.576682 67.2154 0.219875C65.7641 -0.136931 64.2397 -0.060173 62.8317 0.440605C61.4238 0.941383 60.1944 1.84409 59.2965 3.03647C58.3985 4.22886 57.8717 5.65832 57.7814 7.1471C57.7357 7.83557 57.4962 8.49718 57.0904 9.0558L50.4696 2.44924C49.8391 1.82143 48.9847 1.46884 48.094 1.46884C47.2032 1.46884 46.3489 1.82143 45.7183 2.44924L38.4162 9.72966C38.3015 9.84396 38.2105 9.97971 38.1484 10.1291C38.0863 10.2786 38.0543 10.4388 38.0543 10.6005C38.0543 10.7623 38.0863 10.9225 38.1484 11.0719C38.2105 11.2213 38.3015 11.3571 38.4162 11.4714C39.4258 12.491 40.7748 13.1061 42.2081 13.2005C43.2632 13.2649 44.2772 13.6321 45.1281 14.258C45.979 14.8838 46.6306 15.7416 47.0045 16.7282C47.3784 17.7148 47.4587 18.7881 47.2358 19.8192C47.0129 20.8503 46.4962 21.7951 45.7479 22.5401C44.9996 23.2851 44.0515 23.7985 43.0177 24.0186C41.9839 24.2387 40.9084 24.1561 39.9206 23.7808C38.9327 23.4054 38.0746 22.7532 37.4494 21.9027C36.8241 21.0522 36.4584 20.0396 36.3963 18.9866C36.3012 17.5607 35.6845 16.2193 34.6634 15.2173C34.4319 14.9864 34.118 14.8567 33.7907 14.8567C33.4634 14.8567 33.1495 14.9864 32.918 15.2173L25.6177 22.5007C25.0193 23.0984 24.6704 23.9003 24.6414 24.7446C23.7927 24.7719 22.9862 25.1204 22.3855 25.7193L15.7906 32.3006C15.4553 31.786 15.2584 31.1938 15.2188 30.5811C15.1626 29.5882 14.9107 28.6161 14.4777 27.7203C14.0447 26.8245 13.4389 26.0228 12.6951 25.3608C11.8774 24.631 10.9116 24.0858 9.86354 23.7622C8.8155 23.4387 7.70986 23.3444 6.62201 23.4859C5.53415 23.6274 4.48966 24.0013 3.55974 24.5821C2.62982 25.1629 1.83633 25.9369 1.23337 26.8514C1.07748 27.088 1.02212 27.3767 1.07946 27.6539C1.13679 27.9312 1.30213 28.1744 1.53913 28.3301Z" fill="url(#paint0_linear)"/>
<path d="M65.7129 34.3937C65.094 34.3536 64.4955 34.1566 63.9741 33.8214L65.4481 32.3505C65.5506 32.2521 65.6325 32.1342 65.6888 32.0039C65.7452 31.8735 65.7749 31.7332 65.7763 31.5913C65.7777 31.4493 65.7507 31.3085 65.6969 31.1771C65.643 31.0456 65.5635 30.9262 65.4629 30.8258C65.3623 30.7254 65.2426 30.6461 65.1109 30.5924C64.9792 30.5387 64.8381 30.5117 64.6958 30.5131C64.5536 30.5145 64.413 30.5442 64.2823 30.6004C64.1517 30.6566 64.0336 30.7383 63.935 30.8406L61.6394 33.1313C61.5295 33.2457 61.4456 33.3824 61.3933 33.5321C61.3409 33.6817 61.3215 33.8408 61.3361 33.9986C61.3508 34.1564 61.3993 34.3092 61.4783 34.4467C61.5573 34.5842 61.665 34.7032 61.794 34.7955C62.8036 35.8151 64.1526 36.4303 65.5859 36.5246C66.641 36.5891 67.655 36.9563 68.5059 37.5821C69.3568 38.2079 70.0084 39.0657 70.3823 40.0523C70.7562 41.0389 70.8366 42.1123 70.6136 43.1433C70.3907 44.1744 69.874 45.1193 69.1257 45.8643C68.3774 46.6092 67.4294 47.1227 66.3956 47.3428C65.3618 47.5629 64.2863 47.4802 63.2984 47.1049C62.3106 46.7295 61.4524 46.0773 60.8272 45.2269C60.202 44.3764 59.8363 43.3637 59.7741 42.3108C59.679 40.8849 59.0624 39.5435 58.0413 38.5414C57.9487 38.4128 57.8295 38.3055 57.6917 38.2267C57.554 38.148 57.4009 38.0997 57.2428 38.0852C57.0847 38.0706 56.9254 38.0901 56.7755 38.1422C56.6256 38.1944 56.4887 38.2781 56.374 38.3877L48.9558 45.7876C48.7422 46.0004 48.4572 46.1268 48.1558 46.1423C47.8544 46.1579 47.5578 46.0614 47.3234 45.8717C47.294 45.8399 47.2675 45.8068 47.2368 45.7756L39.978 38.5324C39.7312 38.2967 39.4022 38.166 39.0606 38.1678C38.719 38.1696 38.3914 38.3038 38.1471 38.542C37.1253 39.5495 36.5088 40.8955 36.4142 42.3258C36.3681 43.0849 36.1639 43.8261 35.8146 44.502C35.4654 45.1779 34.9787 45.7738 34.3857 46.2516C33.7928 46.7293 33.1065 47.0785 32.3707 47.2768C31.635 47.4751 30.8658 47.5181 30.1125 47.4032C29.3591 47.2883 28.638 47.0179 27.9952 46.6093C27.3524 46.2007 26.802 45.6629 26.3792 45.0302C25.9563 44.3975 25.6703 43.6837 25.5394 42.9345C25.4085 42.1853 25.4355 41.4171 25.6188 40.679C25.68 40.4059 25.6313 40.1197 25.4832 39.882C25.3351 39.6444 25.0995 39.4742 24.8269 39.4082C24.5544 39.3421 24.2668 39.3855 24.026 39.5289C23.7851 39.6723 23.6104 39.9044 23.5392 40.1751C23.2654 41.2829 23.245 42.4381 23.4795 43.5549C23.714 44.6717 24.1975 45.7215 24.894 46.6265C25.5905 47.5315 26.4822 48.2684 27.503 48.7827C28.5238 49.2969 29.6475 49.5753 30.7908 49.5972H30.9443C32.8855 49.5967 34.7533 48.8572 36.1669 47.5297C37.5805 46.2022 38.4334 44.3865 38.5515 42.4531C38.5917 41.8355 38.7891 41.2383 39.1251 40.718L45.7194 47.2981C45.7525 47.3317 45.7868 47.3636 45.8217 47.3954C46.0057 47.6295 46.0975 47.9227 46.0798 48.2196C46.062 48.5166 45.936 48.7968 45.7254 49.0074L38.3078 56.405C38.1917 56.5368 38.1064 56.6928 38.0581 56.8616C38.0098 57.0304 37.9997 57.2077 38.0285 57.3809C38.0573 57.5541 38.1243 57.7187 38.2246 57.8628C38.325 58.007 38.4562 58.1271 38.6087 58.2145C39.6183 59.2341 40.9673 59.8493 42.4006 59.9437C43.4557 60.0081 44.4697 60.3753 45.3206 61.0011C46.1715 61.6269 46.8231 62.4847 47.197 63.4713C47.5709 64.4579 47.6512 65.5313 47.4283 66.5624C47.2054 67.5934 46.6887 68.5383 45.9404 69.2833C45.1921 70.0283 44.244 70.5417 43.2102 70.7618C42.1764 70.9819 41.1009 70.8993 40.1131 70.5239C39.1252 70.1485 38.2671 69.4964 37.6419 68.6459C37.0166 67.7954 36.6509 66.7828 36.5888 65.7298C36.494 64.3038 35.8773 62.9623 34.8559 61.9605C34.768 61.8088 34.6474 61.6784 34.503 61.5786C34.3585 61.4789 34.1938 61.4123 34.0205 61.3836C33.8472 61.3549 33.6697 61.3648 33.5007 61.4126C33.3317 61.4604 33.1754 61.545 33.0431 61.6602L25.6242 69.0631C25.3952 69.291 25.0851 69.419 24.7617 69.419C24.4383 69.419 24.1281 69.291 23.8992 69.0631L16.4833 61.6632C16.3683 61.5541 16.2313 61.4708 16.0814 61.419C15.9315 61.3671 15.7722 61.3479 15.6143 61.3625C15.4563 61.3771 15.3033 61.4252 15.1655 61.5037C15.0278 61.5822 14.9084 61.6892 14.8155 61.8175C13.7937 62.8249 13.1772 64.171 13.0826 65.6013C13.0179 66.6539 12.6499 67.6655 12.0228 68.5144C11.3956 69.3632 10.5361 70.0132 9.54748 70.3862C8.55891 70.7593 7.4834 70.8394 6.45029 70.6169C5.41718 70.3945 4.47046 69.879 3.72398 69.1324C2.9775 68.3858 2.46305 67.44 2.24249 66.4086C2.02193 65.3772 2.10465 64.3041 2.48071 63.3185C2.85676 62.333 3.51014 61.4767 4.36227 60.8529C5.2144 60.229 6.229 59.8641 7.28405 59.8019C8.71303 59.707 10.0573 59.0917 11.0615 58.0728C11.1905 57.9805 11.2981 57.8615 11.3771 57.7241C11.456 57.5866 11.5044 57.4338 11.5191 57.2761C11.5337 57.1183 11.5141 56.9593 11.4618 56.8097C11.4094 56.6601 11.3255 56.5235 11.2156 56.4092L3.79972 49.0068C3.57133 48.7784 3.44306 48.4688 3.44306 48.1462C3.44306 47.8235 3.57133 47.514 3.79972 47.2855L11.0615 40.0393C11.1812 39.92 11.2761 39.7783 11.3408 39.6223C11.4056 39.4663 11.4389 39.2991 11.4389 39.1303C11.4389 38.9615 11.4056 38.7943 11.3408 38.6383C11.2761 38.4824 11.1812 38.3407 11.0615 38.2213C10.0519 37.2017 8.70292 36.5866 7.2696 36.4922C6.10245 36.4209 4.98865 35.9794 4.09072 35.2319C3.19279 34.4845 2.55771 33.4703 2.27815 32.3373C2.24768 32.1981 2.18961 32.0664 2.10735 31.9499C2.02509 31.8334 1.92031 31.7346 1.79917 31.6592C1.67804 31.5837 1.543 31.5333 1.40201 31.5107C1.26103 31.4882 1.11694 31.494 0.978249 31.5278C0.839555 31.5617 0.709056 31.6229 0.594437 31.7079C0.479819 31.7929 0.3834 31.8999 0.31086 32.0226C0.23832 32.1453 0.191125 32.2813 0.172056 32.4225C0.152987 32.5637 0.162429 32.7073 0.199826 32.8448C0.588011 34.4206 1.47085 35.8313 2.71945 36.871C3.96805 37.9106 5.51702 38.5247 7.1402 38.6237C7.75917 38.6638 8.35766 38.8608 8.87905 39.1961L2.28657 45.7744C1.65755 46.4037 1.30431 47.2562 1.30431 48.145C1.30431 49.0337 1.65755 49.8862 2.28657 50.5155L8.88146 57.0962C8.36569 57.4309 7.77222 57.6274 7.15825 57.6668C6.16312 57.7235 5.18895 57.9755 4.29147 58.4082C3.394 58.841 2.59081 59.446 1.92785 60.1887C0.672503 61.6041 -0.0139771 63.4328 0.000467541 65.3228C0.0149122 67.2129 0.729261 69.0309 2.00609 70.427C3.01961 71.5229 4.3335 72.2973 5.78447 72.6541C7.23544 73.0109 8.7595 72.9343 10.1672 72.4339C11.5749 71.9335 12.8043 71.0314 13.7024 69.8395C14.6005 68.6477 15.1278 67.2188 15.2187 65.7304C15.2589 65.1127 15.4563 64.5156 15.7923 63.9953L22.386 70.573C23.0166 71.2007 23.871 71.5531 24.7617 71.5531C25.6524 71.5531 26.5067 71.2007 27.1373 70.573L33.7581 63.9664C34.1632 64.5189 34.4023 65.1752 34.4473 65.8583C34.5336 67.3219 35.0419 68.7294 35.9109 69.9115C36.7799 71.0937 37.9726 72.0002 39.3457 72.5219C40.7188 73.0437 42.2136 73.1585 43.6506 72.8526C45.0875 72.5466 46.4052 71.833 47.4453 70.7975C48.4854 69.7619 49.2035 68.4486 49.5133 67.0155C49.8231 65.5824 49.7114 64.0905 49.1916 62.7192C48.6718 61.3479 47.766 60.1557 46.5833 59.2859C45.4005 58.4161 43.9911 57.9058 42.5246 57.8163C41.8346 57.7708 41.1716 57.5318 40.6118 57.1269L47.2326 50.5203C47.8302 49.9236 48.179 49.1231 48.2088 48.2801C49.0583 48.2525 49.8652 47.9023 50.4647 47.3011L57.0596 40.7204C57.3949 41.2349 57.5918 41.8269 57.6314 42.4393C57.6877 43.4321 57.9396 44.4042 58.3726 45.2998C58.8057 46.1955 59.4114 46.9972 60.1551 47.6591C61.5736 48.9117 63.4062 49.5967 65.3003 49.5823C67.1944 49.5679 69.0163 48.8551 70.4155 47.581C71.5134 46.5695 72.2892 45.2585 72.6466 43.8107C73.004 42.3629 72.9273 40.8423 72.4258 39.4377C71.9244 38.0331 71.0204 36.8065 69.8262 35.9103C68.632 35.0141 67.2002 34.4877 65.7087 34.3967L65.7129 34.3937Z" fill="url(#paint1_linear)"/>
</g>
<defs>
<linearGradient id="paint0_linear" x1="37.0291" y1="-0.00102234" x2="37.0291" y2="37.4216" gradientUnits="userSpaceOnUse">
<stop stop-color="#3C84F0"/>
<stop offset="1" stop-color="#A13CF0"/>
</linearGradient>
<linearGradient id="paint1_linear" x1="36.4341" y1="30.5131" x2="36.4341" y2="73.0201" gradientUnits="userSpaceOnUse">
<stop stop-color="#3C84F0"/>
<stop offset="1" stop-color="#A13CF0"/>
</linearGradient>
<clipPath id="clip0">
<rect width="73" height="73" fill="white"/>
</clipPath>
</defs>
</svg>
