<svg width="100%" height="100%" viewBox="-670 0 1000 500" fill="none" xmlns="http://www.w3.org/2000/svg">
<ellipse cx="93.9767" cy="2.547" rx="2.61509" ry="2.547" fill="#7854F7"/>
<ellipse cx="132.331" cy="2.547" rx="2.61509" ry="2.547" fill="#7854F7"/>
<ellipse cx="170.686" cy="2.547" rx="2.61509" ry="2.547" fill="#7854F7"/>
<ellipse cx="209.041" cy="2.547" rx="2.61509" ry="2.547" fill="#7854F7"/>
<ellipse cx="247.395" cy="2.547" rx="2.61509" ry="2.547" fill="#7854F7"/>
<ellipse cx="93.9767" cy="40.072" rx="2.61509" ry="2.547" fill="#7854F7"/>
<ellipse cx="132.331" cy="40.072" rx="2.61509" ry="2.547" fill="#7854F7"/>
<ellipse cx="170.686" cy="40.072" rx="2.61509" ry="2.547" fill="#7854F7"/>
<ellipse cx="209.041" cy="40.072" rx="2.61509" ry="2.547" fill="#7854F7"/>
<ellipse cx="247.395" cy="40.072" rx="2.61509" ry="2.547" fill="#7854F7"/>
<ellipse cx="93.9767" cy="77.597" rx="2.61509" ry="2.547" fill="#7854F7"/>
<ellipse cx="132.331" cy="77.597" rx="2.61509" ry="2.547" fill="#7854F7"/>
<ellipse cx="170.686" cy="77.597" rx="2.61509" ry="2.547" fill="#7854F7"/>
<ellipse cx="209.041" cy="77.597" rx="2.61509" ry="2.547" fill="#7854F7"/>
<ellipse cx="247.395" cy="77.597" rx="2.61509" ry="2.547" fill="#7854F7"/>
<ellipse cx="93.9767" cy="115.122" rx="2.61509" ry="2.547" fill="#7854F7"/>
<ellipse cx="132.331" cy="115.122" rx="2.61509" ry="2.547" fill="#7854F7"/>
<ellipse cx="170.686" cy="115.122" rx="2.61509" ry="2.547" fill="#7854F7"/>
<ellipse cx="209.041" cy="115.122" rx="2.61509" ry="2.547" fill="#7854F7"/>
<ellipse cx="247.395" cy="115.122" rx="2.61509" ry="2.547" fill="#7854F7"/>
<ellipse cx="93.9767" cy="152.647" rx="2.61509" ry="2.547" fill="#7854F7"/>
<ellipse cx="132.331" cy="152.647" rx="2.61509" ry="2.547" fill="#7854F7"/>
<ellipse cx="170.686" cy="152.647" rx="2.61509" ry="2.547" fill="#7854F7"/>
<ellipse cx="209.041" cy="152.647" rx="2.61509" ry="2.547" fill="#7854F7"/>
<ellipse cx="247.395" cy="152.647" rx="2.61509" ry="2.547" fill="#7854F7"/>
<ellipse cx="93.9767" cy="190.172" rx="2.61509" ry="2.547" fill="#7854F7"/>
<ellipse cx="132.331" cy="190.172" rx="2.61509" ry="2.547" fill="#7854F7"/>
<ellipse cx="170.686" cy="190.172" rx="2.61509" ry="2.547" fill="#7854F7"/>
<ellipse cx="209.041" cy="190.172" rx="2.61509" ry="2.547" fill="#7854F7"/>
<ellipse cx="247.395" cy="190.172" rx="2.61509" ry="2.547" fill="#7854F7"/>
<ellipse cx="93.9767" cy="227.697" rx="2.61509" ry="2.547" fill="#7854F7"/>
<ellipse cx="132.331" cy="227.697" rx="2.61509" ry="2.547" fill="#7854F7"/>
<ellipse cx="170.686" cy="227.697" rx="2.61509" ry="2.547" fill="#7854F7"/>
<ellipse cx="209.041" cy="227.697" rx="2.61509" ry="2.547" fill="#7854F7"/>
<ellipse cx="247.395" cy="227.697" rx="2.61509" ry="2.547" fill="#7854F7"/>
<ellipse cx="93.9767" cy="265.222" rx="2.61509" ry="2.547" fill="#7854F7"/>
<ellipse cx="132.331" cy="265.222" rx="2.61509" ry="2.547" fill="#7854F7"/>
<ellipse cx="170.686" cy="265.222" rx="2.61509" ry="2.547" fill="#7854F7"/>
<ellipse cx="209.041" cy="265.222" rx="2.61509" ry="2.547" fill="#7854F7"/>
<ellipse cx="247.395" cy="265.222" rx="2.61509" ry="2.547" fill="#7854F7"/>
<ellipse cx="93.9767" cy="302.747" rx="2.61509" ry="2.547" fill="#7854F7"/>
<ellipse cx="132.331" cy="302.747" rx="2.61509" ry="2.547" fill="#7854F7"/>
<ellipse cx="170.686" cy="302.747" rx="2.61509" ry="2.547" fill="#7854F7"/>
<ellipse cx="209.041" cy="302.747" rx="2.61509" ry="2.547" fill="#7854F7"/>
<ellipse cx="247.395" cy="302.747" rx="2.61509" ry="2.547" fill="#7854F7"/>
<ellipse cx="93.9767" cy="340.272" rx="2.61509" ry="2.547" fill="#7854F7"/>
<ellipse cx="132.331" cy="340.272" rx="2.61509" ry="2.547" fill="#7854F7"/>
<ellipse cx="170.686" cy="340.272" rx="2.61509" ry="2.547" fill="#7854F7"/>
<ellipse cx="209.041" cy="340.272" rx="2.61509" ry="2.547" fill="#7854F7"/>
<ellipse cx="247.395" cy="340.272" rx="2.61509" ry="2.547" fill="#7854F7"/>
<path d="M319.795 161.539C319.795 246.938 248.699 316.257 160.888 316.257C73.0763 316.257 1.98087 246.938 1.98087 161.539C1.98087 76.1403 73.0763 6.82199 160.888 6.82199C248.699 6.82199 319.795 76.1403 319.795 161.539Z" stroke="#FFBA49" stroke-width="3.96173"/>
</svg>
