<svg width="141" height="111" viewBox="0 0 141 111" fill="none" xmlns="http://www.w3.org/2000/svg">
<path d="M20.2867 64.4043H24.3222V68.752H20.2867V75.9758H14.8688V68.752H0.844748L0.688678 65.4522L14.6904 43.5132H20.2867V64.4043ZM6.3741 64.4043H14.8688V50.8485L14.4675 51.5619L6.3741 64.4043Z" fill="white"/>
<path d="M127.292 48.1602C123.581 43.3252 120.052 38.7252 117.966 33.4462C119.231 32.8903 120.303 31.973 121.047 30.8096C121.792 29.6461 122.176 28.2885 122.152 26.9074C122.127 25.5262 121.694 24.1832 120.909 23.0471C120.123 21.911 119.019 21.0326 117.735 20.5222C118.302 19.5558 118.991 18.6659 119.784 17.8742C121.865 15.5812 124.455 12.7272 124.718 7.15024C124.736 6.76714 124.651 6.38625 124.472 6.04707C124.293 5.70788 124.026 5.42275 123.7 5.22124C122.854 4.71234 121.91 4.3861 120.93 4.26348C119.95 4.14086 118.956 4.22458 118.01 4.50924C116.914 4.77394 115.781 4.84936 114.66 4.73224C113.556 4.58004 112.531 4.07206 111.741 3.28524C110.33 1.99015 108.553 1.16333 106.654 0.918241C106.479 0.896719 106.301 0.896719 106.126 0.918241C104.226 1.16293 102.448 1.98978 101.037 3.28524C100.247 4.07218 99.2225 4.58018 98.118 4.73224C96.9968 4.84891 95.8639 4.77349 94.768 4.50924C93.8224 4.22451 92.8276 4.14077 91.8477 4.26339C90.8678 4.38601 89.9244 4.71228 89.078 5.22124C88.7524 5.42305 88.4867 5.70818 88.3082 6.04714C88.1298 6.38611 88.0451 6.76659 88.063 7.14924C88.326 12.7262 90.915 15.5802 92.997 17.8732C93.7902 18.6649 94.4788 19.5548 95.046 20.5212C93.7736 21.0273 92.6774 21.8952 91.8929 23.0175C91.1084 24.1399 90.67 25.4676 90.6319 26.8364C90.5938 28.2052 90.9577 29.5552 91.6786 30.7195C92.3994 31.8837 93.4457 32.8112 94.688 33.3872C93.5731 36.131 92.165 38.7462 90.488 41.1872C90.3261 41.4219 90.2124 41.6865 90.1536 41.9655C90.0949 42.2445 90.0922 42.5325 90.1458 42.8125C90.1994 43.0926 90.3082 43.3592 90.4658 43.5969C90.6234 43.8345 90.8267 44.0384 91.0639 44.1967C91.301 44.355 91.5673 44.4646 91.8472 44.519C92.1271 44.5734 92.4151 44.5716 92.6943 44.5137C92.9735 44.4557 93.2384 44.3428 93.4735 44.1816C93.7087 44.0203 93.9094 43.8138 94.064 43.5742C96.1081 40.6128 97.7794 37.4106 99.04 34.0402H113.6C115.869 40.3292 119.939 45.6342 123.885 50.7762C130.08 58.8462 136.485 67.1912 136.485 79.8542C136.485 104.04 115.441 106.654 106.393 106.654C97.345 106.654 76.301 104.043 76.301 79.8542C76.301 72.5712 78.288 66.2042 82.745 59.2072C83.0289 58.7266 83.1148 58.1544 82.9844 57.6116C82.8541 57.0688 82.5177 56.598 82.0465 56.2988C81.5753 55.9995 81.0061 55.8953 80.4594 56.0081C79.9127 56.1209 79.4313 56.4419 79.117 56.9032C74.195 64.6262 72 71.7032 72 79.8562C71.8925 84.9931 72.9651 90.086 75.135 94.7432C77.0265 98.6093 79.8516 101.943 83.355 104.443C90.823 109.821 100.004 110.95 106.391 110.95C112.778 110.95 121.959 109.821 129.427 104.443C132.93 101.943 135.756 98.6093 137.647 94.7432C139.817 90.086 140.889 84.993 140.782 79.8562C140.782 65.7342 133.925 56.8002 127.293 48.1562L127.292 48.1602ZM92.526 8.52524C93.0091 8.55638 93.4889 8.6256 93.961 8.73224C95.4968 9.08513 97.0812 9.1754 98.647 8.99924C100.547 8.75448 102.325 7.92765 103.736 6.63224C104.466 5.9149 105.388 5.42533 106.391 5.22324C107.394 5.42533 108.317 5.9149 109.046 6.63224C110.457 7.92916 112.235 8.75743 114.135 9.00324C115.701 9.17933 117.285 9.08905 118.821 8.73624C119.293 8.62972 119.773 8.5605 120.256 8.52924C119.738 11.5292 118.208 13.2192 116.601 14.9892C115.135 16.3926 114.014 18.1172 113.327 20.0272H99.454C98.7673 18.1172 97.6465 16.3926 96.18 14.9892C94.574 13.2152 93.043 11.5292 92.526 8.52524ZM97.638 24.3252H115.145C115.864 24.3235 116.554 24.6074 117.063 25.1144C117.573 25.6214 117.86 26.31 117.862 27.0287C117.863 27.7475 117.579 28.4375 117.072 28.9469C116.565 29.4563 115.877 29.7435 115.158 29.7452H97.637C96.9183 29.7452 96.229 29.4597 95.7208 28.9515C95.2125 28.4433 94.927 27.754 94.927 27.0352C94.927 26.3165 95.2125 25.6272 95.7208 25.119C96.229 24.6108 96.9183 24.3252 97.637 24.3252H97.638Z" fill="white"/>
<path d="M105.146 89.3475H107.633V86.2105C112.798 85.7515 115.633 82.1545 115.633 78.4435C115.633 73.0485 111.463 72.0155 107.633 71.0975V62.8335C108.436 63.0074 109.164 63.43 109.714 64.0412C110.263 64.6524 110.606 65.4212 110.694 66.2384H115.362C115.018 61.9154 112.033 59.5045 107.634 59.1225V56.0225H105.147V59.1595C100.403 59.5805 97.1131 62.5264 97.1131 66.8114C97.1131 72.2064 101.322 73.2775 105.147 74.2335V82.6505C104.232 82.5431 103.387 82.1081 102.768 81.4259C102.149 80.7437 101.798 79.8604 101.78 78.9395H97.1121C97.1121 83.2625 100.479 85.8265 105.146 86.2475V89.3475ZM111.229 78.6735C111.237 79.6672 110.871 80.6277 110.205 81.3647C109.538 82.1016 108.619 82.5612 107.629 82.6525V74.8855C109.699 75.5355 111.23 76.4925 111.23 78.6755L111.229 78.6735ZM101.549 66.5835C101.527 66.0922 101.603 65.6016 101.773 65.1402C101.943 64.6787 102.203 64.2558 102.538 63.896C102.873 63.5363 103.277 63.2469 103.725 63.0449C104.173 62.8429 104.658 62.7323 105.149 62.7195V70.4475C103.082 69.7965 101.55 68.8025 101.55 66.5835H101.549Z" fill="white"/>
</svg>
