<svg width="12" height="15" viewBox="0 0 12 15" fill="none" xmlns="http://www.w3.org/2000/svg">
<path d="M0.666656 14.6667C0.666656 13.2522 1.22856 11.8956 2.22875 10.8955C3.22895 9.89526 4.5855 9.33335 5.99999 9.33335C7.41448 9.33335 8.77103 9.89526 9.77123 10.8955C10.7714 11.8956 11.3333 13.2522 11.3333 14.6667H9.99999C9.99999 13.6058 9.57856 12.5884 8.82842 11.8383C8.07827 11.0881 7.06086 10.6667 5.99999 10.6667C4.93912 10.6667 3.92171 11.0881 3.17156 11.8383C2.42142 12.5884 1.99999 13.6058 1.99999 14.6667H0.666656ZM5.99999 8.66669C3.78999 8.66669 1.99999 6.87669 1.99999 4.66669C1.99999 2.45669 3.78999 0.666687 5.99999 0.666687C8.20999 0.666687 9.99999 2.45669 9.99999 4.66669C9.99999 6.87669 8.20999 8.66669 5.99999 8.66669ZM5.99999 7.33335C7.47332 7.33335 8.66666 6.14002 8.66666 4.66669C8.66666 3.19335 7.47332 2.00002 5.99999 2.00002C4.52666 2.00002 3.33332 3.19335 3.33332 4.66669C3.33332 6.14002 4.52666 7.33335 5.99999 7.33335Z" id="userIcon" fill="#7245B1"/>
</svg>
