<svg width="56" height="100%" viewBox="-10 -5 76 56" fill="none" xmlns="http://www.w3.org/2000/svg">
<path fill-rule="evenodd" clip-rule="evenodd" d="M28.171 4.94773C15.4058 4.94773 5.02104 15.3325 5.02104 28.0977C5.02104 40.8628 15.4058 51.2476 28.171 51.2476C40.9361 51.2476 51.3209 40.8628 51.3209 28.0977C51.3209 15.3325 40.9361 4.94773 28.171 4.94773ZM28.1717 55.3329C13.1542 55.3329 0.936523 43.1152 0.936523 28.0977C0.936523 13.0802 13.1542 0.862457 28.1717 0.862457C43.1892 0.862457 55.4069 13.0802 55.4069 28.0977C55.4069 43.1152 43.1892 55.3329 28.1717 55.3329Z" fill="white"/>
<path fill-rule="evenodd" clip-rule="evenodd" d="M37.5173 38.154C37.1606 38.154 36.8011 38.0614 36.4715 37.868L26.2038 31.7428C25.5883 31.3724 25.207 30.7052 25.207 29.9861V16.7825C25.207 15.655 26.1221 14.7399 27.2497 14.7399C28.3799 14.7399 29.2923 15.655 29.2923 16.7825V28.8259L38.5659 34.3547C39.5328 34.9348 39.8514 36.1876 39.274 37.1572C38.89 37.7972 38.2118 38.154 37.5173 38.154Z" fill="white"/>
</svg>
