<svg width="56" height="100%" viewBox="-10 -5 76 56" fill="none" xmlns="http://www.w3.org/2000/svg">
<path fill-rule="evenodd" clip-rule="evenodd" d="M35.4386 41.1938H15.6857C14.553 41.1938 13.6338 40.2745 13.6338 39.1419C13.6338 38.0092 14.553 37.09 15.6857 37.09H35.4386C36.5712 37.09 37.4905 38.0092 37.4905 39.1419C37.4905 40.2745 36.5712 41.1938 35.4386 41.1938Z" fill="white"/>
<path fill-rule="evenodd" clip-rule="evenodd" d="M35.4386 29.74H15.6857C14.553 29.74 13.6338 28.8207 13.6338 27.6881C13.6338 26.5554 14.553 25.6362 15.6857 25.6362H35.4386C36.5712 25.6362 37.4905 26.5554 37.4905 27.6881C37.4905 28.8207 36.5712 29.74 35.4386 29.74Z" fill="white"/>
<path fill-rule="evenodd" clip-rule="evenodd" d="M23.22 18.3129H15.6828C14.5501 18.3129 13.6309 17.3936 13.6309 16.261C13.6309 15.1284 14.5501 14.2091 15.6828 14.2091H23.22C24.3527 14.2091 25.2719 15.1284 25.2719 16.261C25.2719 17.3936 24.3527 18.3129 23.22 18.3129Z" fill="white"/>
<mask id="mask0" mask-type="alpha" maskUnits="userSpaceOnUse" x="0" y="0" width="51" height="55">
<path fill-rule="evenodd" clip-rule="evenodd" d="M0.648438 0.228333H50.3445V54.6988H0.648438V0.228333Z" fill="white"/>
</mask>
<g mask="url(#mask0)">
<path fill-rule="evenodd" clip-rule="evenodd" d="M35.9663 4.33154L14.9303 4.34248C8.5612 4.38079 4.75288 8.32043 4.75288 14.8838V40.0427C4.75288 46.6498 8.59676 50.5949 15.0288 50.5949L36.0648 50.5867C42.4339 50.5484 46.2422 46.6033 46.2422 40.0427V14.8838C46.2422 8.27665 42.4011 4.33154 35.9663 4.33154ZM15.0309 54.6991C6.42931 54.6991 0.648438 48.8088 0.648438 40.0431V14.8841C0.648438 6.03908 6.24874 0.291044 14.9159 0.239062L35.9629 0.228119H35.9657C44.5672 0.228119 50.3453 6.11842 50.3453 14.8841V40.0431C50.3453 48.8854 44.745 54.6362 36.0778 54.6909L15.0309 54.6991Z" fill="white"/>
</g>
</svg>
