<svg xmlns="http://www.w3.org/2000/svg" xmlns:xlink="http://www.w3.org/1999/xlink" width="97.499" height="84.203" viewBox="0 0 97.499 84.203">
  <defs>
    <linearGradient id="linear-gradient" x2="1" y2="2.864" gradientUnits="objectBoundingBox">
      <stop offset="0" stop-color="#0961aa"/>
      <stop offset="1" stop-color="#86d594"/>
    </linearGradient>
  </defs>
  <g id="briefcase" transform="translate(0 -34.909)">
    <g id="Groupe_1687" data-name="Groupe 1687" transform="translate(2.216 81.442)">
      <g id="Groupe_1686" data-name="Groupe 1686">
        <path id="Tracé_2256" data-name="Tracé 2256" d="M102.488,279.273a2.093,2.093,0,0,0-2.216,2.216V310.3a2.093,2.093,0,0,1-2.216,2.216H18.284a2.093,2.093,0,0,1-2.216-2.216V281.489a2.093,2.093,0,0,0-2.216-2.216,2.094,2.094,0,0,0-2.216,2.216V310.3a6.529,6.529,0,0,0,6.648,6.648H98.056A6.529,6.529,0,0,0,104.7,310.3V281.489A2.093,2.093,0,0,0,102.488,279.273Z" transform="translate(-11.637 -279.273)" fill="url(#linear-gradient)"/>
      </g>
    </g>
    <g id="Groupe_1689" data-name="Groupe 1689" transform="translate(0 50.42)">
      <g id="Groupe_1688" data-name="Groupe 1688">
        <path id="Tracé_2257" data-name="Tracé 2257" d="M90.851,116.364H6.648A6.529,6.529,0,0,0,0,123.012v14.182a6.652,6.652,0,0,0,5.1,6.426l34.789,7.756v7.091a2.093,2.093,0,0,0,2.216,2.216H55.4a2.093,2.093,0,0,0,2.216-2.216v-7.091L92.4,143.619a6.652,6.652,0,0,0,5.1-6.426V123.011A6.529,6.529,0,0,0,90.851,116.364ZM53.181,156.25H44.318v-8.863h8.863Zm39.886-19.057a2.158,2.158,0,0,1-1.773,2.216l-33.681,7.534V145.17a2.093,2.093,0,0,0-2.216-2.216H42.1a2.093,2.093,0,0,0-2.216,2.216v1.773L6.2,139.409a2.158,2.158,0,0,1-1.773-2.216V123.012A2.093,2.093,0,0,1,6.648,120.8h84.2a2.093,2.093,0,0,1,2.216,2.216Z" transform="translate(0 -116.364)" fill="url(#linear-gradient)"/>
      </g>
    </g>
    <g id="Groupe_1691" data-name="Groupe 1691" transform="translate(31.022 34.909)">
      <g id="Groupe_1690" data-name="Groupe 1690">
        <path id="Tracé_2258" data-name="Tracé 2258" d="M191.715,34.909H169.557a6.529,6.529,0,0,0-6.648,6.648v2.216a2.216,2.216,0,0,0,4.432,0V41.557a2.093,2.093,0,0,1,2.216-2.216h22.159a2.093,2.093,0,0,1,2.216,2.216v2.216a2.216,2.216,0,1,0,4.432,0V41.557A6.528,6.528,0,0,0,191.715,34.909Z" transform="translate(-162.909 -34.909)" fill="url(#linear-gradient)"/>
      </g>
    </g>
  </g>
</svg>
