<svg xmlns="http://www.w3.org/2000/svg" xmlns:xlink="http://www.w3.org/1999/xlink" width="105.378" height="84.596" viewBox="0 0 105.378 84.596">
  <defs>
    <linearGradient id="linear-gradient" x1="0.5" x2="1.239" y2="1" gradientUnits="objectBoundingBox">
      <stop offset="0" stop-color="#0961aa"/>
      <stop offset="1" stop-color="#86d594"/>
    </linearGradient>
  </defs>
  <g id="Groupe_1685" data-name="Groupe 1685" transform="translate(-6234.378 -2949.503)">
    <path id="Tracé_2255" data-name="Tracé 2255" d="M177.965,116.5l14.21-5.186a3.223,3.223,0,0,0,0-6.054l-46.862-17.1a10.83,10.83,0,0,0-7.417,0l-46.862,17.1a3.223,3.223,0,0,0,0,6.055l14.21,5.186v27.954a6.649,6.649,0,0,0,2.059,4.77,34.809,34.809,0,0,0,4.084,3.285h0a8.38,8.38,0,0,0-2.5,5.942v1.592a3.378,3.378,0,0,0,.6,1.924l-2.3,5.3a2.365,2.365,0,0,0,4.339,1.882l2.166-4.993q.464.149.937.255v5.324a2.365,2.365,0,0,0,4.73,0V164.41q.473-.106.937-.255l2.166,4.993a2.365,2.365,0,0,0,4.339-1.882l-2.3-5.3a3.379,3.379,0,0,0,.6-1.924v-1.221a60.747,60.747,0,0,0,16.5,2.246c12.075,0,25.606-3.644,34.3-11.846a6.67,6.67,0,0,0,2.059-4.77c0-3.162,0-24.749,0-27.954ZM139.517,92.6a6.094,6.094,0,0,1,4.174,0l42.982,15.687-42.982,15.686a6.1,6.1,0,0,1-4.174,0L123,117.945l13.667-6.75,1.231.449a10.832,10.832,0,0,0,7.417,0l2.181-.8a3.393,3.393,0,0,0,2.223-3.177v-1.742a8.153,8.153,0,0,0-7.959-8.112,7.987,7.987,0,0,0-5.764,2.321,8.38,8.38,0,0,0-2.5,5.942v1.408c-17.252,8.521-16.151,7.955-16.575,8.239l-20.381-7.438Zm-1.3,14.126v-.649a3.624,3.624,0,0,1,1.086-2.566,3.278,3.278,0,0,1,2.362-.967,3.4,3.4,0,0,1,3.318,3.383v.8l-1.3.473a6.1,6.1,0,0,1-4.173,0ZM114.63,137.76a30.45,30.45,0,0,1-4.082-3.213,1.834,1.834,0,0,1-.575-1.329V118.227l4.66,1.7C114.628,120.232,114.63,117.881,114.63,137.76ZM113.611,159.1a3.962,3.962,0,0,1,1.086-3.215,3.289,3.289,0,0,1,2.362-.967c2.428.046,3.318,1.762,3.318,4.182C117.536,160.138,117.027,160.348,113.611,159.1Zm1.018-10.106a30.808,30.808,0,0,1-3.718-2.879,2.117,2.117,0,0,1-.94-1.662V140.25a39.26,39.26,0,0,0,4.657,3.029Zm8.758,4.319a8.074,8.074,0,0,0-4.027-2.774v-4.97a56.4,56.4,0,0,0,16.511,4,2.365,2.365,0,0,0,.429-4.711,50.721,50.721,0,0,1-16.94-4.449v-18.76l18.536,6.765a10.831,10.831,0,0,0,7.417,0h0l27.923-10.19v14.992a1.834,1.834,0,0,1-.575,1.329c-5.945,5.607-15.331,9.367-25.752,10.314a2.365,2.365,0,0,0,.429,4.711c10.029-.912,19.259-4.261,25.9-9.323v4.205a1.851,1.851,0,0,1-.575,1.329c-7.857,7.411-20.223,10.557-31.056,10.557a54.749,54.749,0,0,1-18.216-3.026Z" transform="translate(6145.463 2862)" fill="url(#linear-gradient)"/>
  </g>
</svg>
 