<svg width="1439" height="826" viewBox="0 0 1439 826" fill="none" xmlns="http://www.w3.org/2000/svg">
<rect x="-1" y="-11" width="1440" height="840" fill="url(#paint0_linear)" fill-opacity="0.77"/>
<circle cx="1274.36" cy="152.363" r="2.36258" fill="white"/>
<circle cx="1309.01" cy="152.363" r="2.36258" fill="white"/>
<circle cx="1343.66" cy="152.363" r="2.36258" fill="white"/>
<circle cx="1378.32" cy="152.363" r="2.36258" fill="white"/>
<circle cx="1412.97" cy="152.363" r="2.36258" fill="white"/>
<circle cx="1274.36" cy="187.014" r="2.36258" fill="white"/>
<circle cx="1309.01" cy="187.014" r="2.36258" fill="white"/>
<circle cx="1343.66" cy="187.014" r="2.36258" fill="white"/>
<circle cx="1378.32" cy="187.014" r="2.36258" fill="white"/>
<circle cx="1412.97" cy="187.014" r="2.36258" fill="white"/>
<circle cx="1274.36" cy="221.665" r="2.36258" fill="white"/>
<circle cx="1309.01" cy="221.665" r="2.36258" fill="white"/>
<circle cx="1343.66" cy="221.665" r="2.36258" fill="white"/>
<circle cx="1378.32" cy="221.665" r="2.36258" fill="white"/>
<circle cx="1412.97" cy="221.665" r="2.36258" fill="white"/>
<circle cx="1274.36" cy="256.316" r="2.36258" fill="white"/>
<circle cx="1309.01" cy="256.316" r="2.36258" fill="white"/>
<circle cx="1343.66" cy="256.316" r="2.36258" fill="white"/>
<circle cx="1378.32" cy="256.316" r="2.36258" fill="white"/>
<circle cx="1412.97" cy="256.316" r="2.36258" fill="white"/>
<circle cx="1274.36" cy="290.967" r="2.36258" fill="white"/>
<circle cx="1309.01" cy="290.967" r="2.36258" fill="white"/>
<circle cx="1343.66" cy="290.967" r="2.36258" fill="white"/>
<circle cx="1378.32" cy="290.967" r="2.36258" fill="white"/>
<circle cx="1412.97" cy="290.967" r="2.36258" fill="white"/>
<circle cx="1274.36" cy="325.618" r="2.36258" fill="white"/>
<circle cx="1309.01" cy="325.618" r="2.36258" fill="white"/>
<circle cx="1343.66" cy="325.618" r="2.36258" fill="white"/>
<circle cx="1378.32" cy="325.618" r="2.36258" fill="white"/>
<circle cx="1412.97" cy="325.618" r="2.36258" fill="white"/>
<circle cx="1274.36" cy="360.269" r="2.36258" fill="white"/>
<circle cx="1309.01" cy="360.269" r="2.36258" fill="white"/>
<circle cx="1343.66" cy="360.269" r="2.36258" fill="white"/>
<circle cx="1378.32" cy="360.269" r="2.36258" fill="white"/>
<circle cx="1412.97" cy="360.269" r="2.36258" fill="white"/>
<circle cx="1274.36" cy="394.92" r="2.36258" fill="white"/>
<circle cx="1309.01" cy="394.92" r="2.36258" fill="white"/>
<circle cx="1343.66" cy="394.92" r="2.36258" fill="white"/>
<circle cx="1378.32" cy="394.92" r="2.36258" fill="white"/>
<circle cx="1412.97" cy="394.92" r="2.36258" fill="white"/>
<circle cx="1274.36" cy="429.571" r="2.36258" fill="white"/>
<circle cx="1309.01" cy="429.571" r="2.36258" fill="white"/>
<circle cx="1343.66" cy="429.571" r="2.36258" fill="white"/>
<circle cx="1378.32" cy="429.571" r="2.36258" fill="white"/>
<circle cx="1412.97" cy="429.571" r="2.36258" fill="white"/>
<circle cx="1274.36" cy="464.223" r="2.36258" fill="white"/>
<circle cx="1309.01" cy="464.223" r="2.36258" fill="white"/>
<circle cx="1343.66" cy="464.223" r="2.36258" fill="white"/>
<circle cx="1378.32" cy="464.223" r="2.36258" fill="white"/>
<circle cx="1412.97" cy="464.223" r="2.36258" fill="white"/>
<circle cx="78" cy="140.124" r="2.86813" fill="white" fill-opacity="0.2"/>
<circle cx="120.066" cy="140.124" r="2.86813" fill="white" fill-opacity="0.2"/>
<circle cx="35.934" cy="172.19" r="2.86813" fill="white" fill-opacity="0.2"/>
<circle cx="78" cy="182.19" r="2.86813" fill="white" fill-opacity="0.2"/>
<circle cx="120.066" cy="182.19" r="2.86813" fill="white" fill-opacity="0.2"/>
<circle cx="35.934" cy="214.256" r="2.86813" fill="white" fill-opacity="0.2"/>
<circle cx="78" cy="224.256" r="2.86813" fill="white" fill-opacity="0.2"/>
<circle cx="120.066" cy="224.256" r="2.86813" fill="white" fill-opacity="0.2"/>
<circle cx="35.934" cy="256.321" r="2.86813" fill="white" fill-opacity="0.2"/>
<circle cx="78" cy="266.321" r="2.86813" fill="white" fill-opacity="0.2"/>
<circle cx="120.066" cy="266.321" r="2.86813" fill="white" fill-opacity="0.2"/>
<circle cx="35.934" cy="298.387" r="2.86813" fill="white" fill-opacity="0.2"/>
<circle cx="78" cy="308.387" r="2.86813" fill="white" fill-opacity="0.2"/>
<circle cx="120.066" cy="308.387" r="2.86813" fill="white" fill-opacity="0.2"/>
<circle cx="35.934" cy="340.453" r="2.86813" fill="white" fill-opacity="0.2"/>
<circle cx="78" cy="350.453" r="2.86813" fill="white" fill-opacity="0.2"/>
<circle cx="120.066" cy="350.453" r="2.86813" fill="white" fill-opacity="0.2"/>
<circle cx="35.934" cy="382.519" r="2.86813" fill="white" fill-opacity="0.2"/>
<circle cx="78" cy="392.519" r="2.86813" fill="white" fill-opacity="0.2"/>
<circle cx="120.066" cy="392.519" r="2.86813" fill="white" fill-opacity="0.2"/>
<circle cx="35.934" cy="424.585" r="2.86813" fill="white" fill-opacity="0.2"/>
<circle cx="78" cy="434.585" r="2.86813" fill="white" fill-opacity="0.2"/>
<circle cx="120.066" cy="434.585" r="2.86813" fill="white" fill-opacity="0.2"/>
<circle cx="35.934" cy="466.651" r="2.86813" fill="white" fill-opacity="0.2"/>
<circle cx="78" cy="476.651" r="2.86813" fill="white" fill-opacity="0.2"/>
<circle cx="120.066" cy="476.651" r="2.86813" fill="white" fill-opacity="0.2"/>
<circle cx="35.934" cy="508.717" r="2.86813" fill="white" fill-opacity="0.2"/>
<circle cx="78" cy="518.717" r="2.86813" fill="white" fill-opacity="0.2"/>
<circle cx="120.066" cy="518.717" r="2.86813" fill="white" fill-opacity="0.2"/>
<defs>
<linearGradient id="paint0_linear" x1="60" y1="110.97" x2="1335.63" y2="742.768" gradientUnits="userSpaceOnUse">
<stop stop-color="#3C84F0"/>
<stop offset="1" stop-color="#A13CF0"/>
</linearGradient>
</defs>
</svg>
