<svg xmlns="http://www.w3.org/2000/svg" width="403.553" height="503.234" viewBox="0 0 403.553 503.234">
  <g id="Groupe_1399" data-name="Groupe 1399" transform="translate(1125 -323.619)">
    <g id="Groupe_1304" data-name="Groupe 1304" transform="translate(-979.408 387.058)">
      <path id="Rectangle_101" data-name="Rectangle 101" d="M22.353,0H198.326A22.354,22.354,0,0,1,220.68,22.354V211.512a22.353,22.353,0,0,1-22.353,22.353H22.353A22.353,22.353,0,0,1,0,211.512V22.353A22.353,22.353,0,0,1,22.353,0Z" transform="translate(220.68 233.866) rotate(180)" fill="#d9f4ec"/>
    </g>
    <g id="Groupe_1307" data-name="Groupe 1307" transform="translate(-841.837 406.475)">
      <g id="Groupe_1306" data-name="Groupe 1306" transform="translate(0 0)">
        <g id="Groupe_1305" data-name="Groupe 1305" transform="translate(0)">
          <rect id="Rectangle_102" data-name="Rectangle 102" width="56.759" height="5.357" transform="translate(56.759 5.357) rotate(180)" fill="#0961aa"/>
        </g>
      </g>
    </g>
    <g id="Groupe_1310" data-name="Groupe 1310" transform="translate(-826.751 418.245)">
      <g id="Groupe_1309" data-name="Groupe 1309" transform="translate(0 0)">
        <g id="Groupe_1308" data-name="Groupe 1308">
          <rect id="Rectangle_103" data-name="Rectangle 103" width="41.673" height="5.357" transform="translate(41.673 5.357) rotate(180)" fill="#f2fffc"/>
        </g>
      </g>
    </g>
    <g id="Groupe_1313" data-name="Groupe 1313" transform="translate(-887.536 430.015)">
      <g id="Groupe_1312" data-name="Groupe 1312" transform="translate(0 0)">
        <g id="Groupe_1311" data-name="Groupe 1311">
          <rect id="Rectangle_104" data-name="Rectangle 104" width="102.458" height="5.357" transform="translate(102.458 5.357) rotate(180)" fill="#f2fffc"/>
        </g>
      </g>
    </g>
    <g id="Groupe_1316" data-name="Groupe 1316" transform="translate(-953.379 463.866)">
      <g id="Groupe_1315" data-name="Groupe 1315" transform="translate(0 0)">
        <g id="Groupe_1314" data-name="Groupe 1314">
          <rect id="Rectangle_105" data-name="Rectangle 105" width="70.3" height="5.357" fill="#0961aa"/>
        </g>
      </g>
    </g>
    <g id="Groupe_1319" data-name="Groupe 1319" transform="translate(-953.379 475.636)">
      <g id="Groupe_1318" data-name="Groupe 1318" transform="translate(0 0)">
        <g id="Groupe_1317" data-name="Groupe 1317">
          <rect id="Rectangle_106" data-name="Rectangle 106" width="95.191" height="5.357" fill="#f2fffc"/>
        </g>
      </g>
    </g>
    <g id="Groupe_1322" data-name="Groupe 1322" transform="translate(-953.379 487.406)">
      <g id="Groupe_1321" data-name="Groupe 1321" transform="translate(0 0)">
        <g id="Groupe_1320" data-name="Groupe 1320">
          <rect id="Rectangle_107" data-name="Rectangle 107" width="126.903" height="5.357" fill="#f2fffc"/>
        </g>
      </g>
    </g>
    <g id="Groupe_1325" data-name="Groupe 1325" transform="translate(-953.379 521.281)">
      <g id="Groupe_1324" data-name="Groupe 1324" transform="translate(0)">
        <g id="Groupe_1323" data-name="Groupe 1323">
          <rect id="Rectangle_108" data-name="Rectangle 108" width="77.416" height="5.357" fill="#0961aa"/>
        </g>
      </g>
    </g>
    <g id="Groupe_1328" data-name="Groupe 1328" transform="translate(-953.379 533.051)">
      <g id="Groupe_1327" data-name="Groupe 1327" transform="translate(0)">
        <g id="Groupe_1326" data-name="Groupe 1326">
          <rect id="Rectangle_109" data-name="Rectangle 109" width="107.109" height="5.357" fill="#f2fffc"/>
        </g>
      </g>
    </g>
    <g id="Groupe_1331" data-name="Groupe 1331" transform="translate(-953.379 544.822)">
      <g id="Groupe_1330" data-name="Groupe 1330" transform="translate(0)">
        <g id="Groupe_1329" data-name="Groupe 1329">
          <rect id="Rectangle_110" data-name="Rectangle 110" width="102.867" height="5.356" fill="#f2fffc"/>
        </g>
      </g>
    </g>
    <g id="Groupe_1333" data-name="Groupe 1333" transform="translate(-849.622 806.665)">
      <path id="Tracé_1574" data-name="Tracé 1574" d="M1567.341,2929.737s-4.79,5.933-11.508,7.213-13.336,3.32-13.386,6.829,19.424,5.6,27.113,2.065c11.474-5.28,12.64-3.689,13.912-6.328s-1.528-9.7-1.445-10.538C1582.129,2927.941,1567.341,2929.737,1567.341,2929.737Z" transform="translate(-1542.447 -2928.656)" fill="#353a3d"/>
    </g>
    <g id="Groupe_1334" data-name="Groupe 1334" transform="translate(-824.741 803.096)">
      <path id="Tracé_1575" data-name="Tracé 1575" d="M1575.2,2924.836a21.611,21.611,0,0,0-.744,2.926c.13.061,15.139,1.541,14.685-.759-.368-1.864-.893-3.891-.893-3.891Z" transform="translate(-1574.445 -2923.112)" fill="#81807e"/>
    </g>
    <g id="Groupe_1335" data-name="Groupe 1335" transform="translate(-794.599 805.882)">
      <path id="Tracé_1576" data-name="Tracé 1576" d="M1633.593,2928.91s-3.417,5.675-9.253,7.607c-6.239,2.065-11.243,4.441-11.13,7.86s15.253,6.886,26.267.323c6.959-4.146,9.164-4.167,10.28-6.778s-1.938-9.4-1.9-10.217C1647.912,2926.69,1633.593,2928.91,1633.593,2928.91Z" transform="translate(-1613.209 -2927.439)" fill="#353a3d"/>
    </g>
    <g id="Groupe_1336" data-name="Groupe 1336" transform="translate(-774.385 802.201)">
      <path id="Tracé_1577" data-name="Tracé 1577" d="M1639.2,2923.926a22.952,22.952,0,0,0,.17,2.947c.129.054,14.636,1.044,14.268-1.207a16.267,16.267,0,0,0-1.408-3.946Z" transform="translate(-1639.205 -2921.721)" fill="#81807e"/>
    </g>
    <g id="Groupe_1337" data-name="Groupe 1337" transform="translate(-847.959 617.879)">
      <path id="Tracé_1578" data-name="Tracé 1578" d="M1564.97,2648.567s-13.478,49.215-16.556,64.205c-2.62,12.76-4.708,26.045-3.453,35.256,1.555,11.4,21.053,70.5,20.238,73.848s20.405.535,20.405.535-14.831-65.924-11.868-78.194c2.194-9.087,21.418-69.455,24.365-66.359s6.6,56.972,8.781,65.918,8.881,79.608,8.881,79.608,14.976,1.83,18.977-.973c0,0,1.821-60.34.431-77.107-.53-6.39,9.044-76.619-3.232-104.891C1625.45,2625.472,1564.97,2648.567,1564.97,2648.567Z" transform="translate(-1544.587 -2635.382)" fill="#2d3133"/>
    </g>
    <g id="Groupe_1338" data-name="Groupe 1338" transform="translate(-888.253 516.691)">
      <path id="Tracé_1579" data-name="Tracé 1579" d="M1494.781,2547.823c9.605-1.117,39.826,9.966,42.572,9.129,1.889-.574,6.32-12.529,9.485-21.577,1.873-5.352,3.3-9.688,3.5-10.045l.011-.019a44.33,44.33,0,0,0,.1,9.706c.04.349.086.7.135,1.059.014.094.028.186.042.281a39.966,39.966,0,0,0,1.361,6.056,46.211,46.211,0,0,1,1.583,11.358v.019c0,.033,0,.063.007.1,0,.1.009.2.009.293,0,.04,0,.08,0,.12.268,7.749-.378,16.1-.646,20.548-.423,6.888,2.314,9.988,2.393,10.077h0l2.895-.336,2.093-.245.026,0,2.795-.324,10.96-1.277,3.97-.461.938-.11,6.943-.809,19.578-2.281,2.147-.249.885-.1,7.383-.862,3.337-.387h.012s2.834-16.64,3.051-25.634c.2-8.262,5.539-25.035,6.409-27.717a.4.4,0,0,1,.019-.057.758.758,0,0,1,.023-.074c.016-.047.028-.084.04-.118a.441.441,0,0,1,.019-.058.031.031,0,0,1,0-.016.036.036,0,0,0,.005-.018.093.093,0,0,0,.007-.028s15.979,13.9,19.081,19.961c.945,1.84,3.836,6.844,7.515,12.937,2.517-3.976,4.094-6.741,4.094-7.432,0-.085,0-.176-.005-.27-.236-6-7.826-30.308-13.815-46.191-4.652-7.738-8.662-14-9.949-14.761-1.949-1.16-10.151-4.066-17.309-6.419l-.7-.229c-.667-.218-1.326-.431-1.966-.638l-.945-.3-.507-.159c-.138-.043-.273-.087-.409-.128h0a63.3,63.3,0,0,0-6.859-1.941c-.093-.006-.243,0-.447,0-.235,0-.541.016-.906.035-4.424.214-17.63,1.239-21.88,1.573-.773.061-1.252.1-1.323.1h-.01s-2.024.765-5.07,1.918l0,0-.282.106c-1.842.7-3.973,1.631-6.227,2.651-4.417,2-9.3,4.347-13.343,5.941-3.969,1.563-9.4,3.741-9.864,4.046l-20.105,48-34.879-5.277Z" transform="translate(-1492.766 -2478.188)" fill="#decbc4"/>
    </g>
    <g id="Groupe_1339" data-name="Groupe 1339" transform="translate(-827.575 615.984)">
      <path id="Tracé_1580" data-name="Tracé 1580" d="M1572.7,2639.883s-1.472,1.459-1.9,7.635c0,0,60.565-5.849,66.968-8.155,0,0,.25-6.806-1.108-6.925C1635.17,2632.309,1572.7,2639.883,1572.7,2639.883Z" transform="translate(-1570.801 -2632.438)" fill="#495055"/>
    </g>
    <g id="Groupe_1340" data-name="Groupe 1340" transform="translate(-798.762 497.036)">
      <path id="Tracé_1581" data-name="Tracé 1581" d="M1632.591,2465.612c-.188,7.869-18.592,12.174-18.592,12.174s-7.7-7.989-5.859-8.755c.723-.3,1.016-1.493,1.106-2.83a23.047,23.047,0,0,0-.1-3.569c-.055-.557-.106-.915-.106-.915s2.629-2.3,5.974-5.032c5.846-4.786,13.882-10.915,13.9-8.477a1.849,1.849,0,0,1-.068.462C1627.422,2454.157,1632.591,2465.612,1632.591,2465.612Z" transform="translate(-1607.855 -2447.655)" fill="#eea886"/>
    </g>
    <g id="Groupe_1341" data-name="Groupe 1341" transform="translate(-775.553 616.904)">
      <path id="Tracé_1582" data-name="Tracé 1582" d="M1637.7,2634.154s1.322,6.9,1.436,8.7l2.8-.464s-.771-7.3-1.225-8.524Z" transform="translate(-1637.703 -2633.867)" fill="#353a3d"/>
    </g>
    <g id="Groupe_1342" data-name="Groupe 1342" transform="translate(-821.71 622.296)">
      <path id="Tracé_1583" data-name="Tracé 1583" d="M1579.43,2642.571s-1.062,6.272-1.087,8.642l2.964-.319s.608-7.833.946-8.652Z" transform="translate(-1578.343 -2642.243)" fill="#353a3d"/>
    </g>
    <g id="Groupe_1343" data-name="Groupe 1343" transform="translate(-799.306 503.463)">
      <path id="Tracé_1584" data-name="Tracé 1584" d="M1625.347,2457.639h0c-.037.046-.817,1.013-2.149,2.4-2.825,2.941-8.137,7.775-14.108,9.717a22.985,22.985,0,0,0-.1-3.569,11.59,11.59,0,0,1-1.828-.182,47.816,47.816,0,0,1,4-4.852l3.694-.914Z" transform="translate(-1607.156 -2457.639)" fill="#a77860"/>
    </g>
    <g id="Groupe_1344" data-name="Groupe 1344" transform="translate(-811.717 471.25)">
      <path id="Tracé_1585" data-name="Tracé 1585" d="M1625.33,2434.042c-1.592,2.867-3.1,4.944-3.533,5.769h0a10.5,10.5,0,0,1-2.149,2.4c-3.034,2.7-8.671,6.272-14.213,6.148a11.585,11.585,0,0,1-1.828-.182c-2.238-.4-4.88-1.266-6.334-3.623-11.482-18.609-3.169-33.827-3.169-33.827s31.394-7.35,36.306.475C1633.856,2416.689,1629.07,2427.3,1625.33,2434.042Z" transform="translate(-1591.194 -2407.597)" fill="#eea886"/>
    </g>
    <g id="Groupe_1345" data-name="Groupe 1345" transform="translate(-812.643 458.325)">
      <path id="Tracé_1586" data-name="Tracé 1586" d="M1593.838,2403.573s-2.916-.134-3.637-4.709c-.712-4.522.728-5.774.728-5.774s12.961-4.492,17.615-5.076,16.1-1.145,18.781,1.394c0,0,6.517-1.254,8.294,7.7,2.817,14.21-9.6,28.009-9.6,28.009s.106-9.284-2.367-10.513-4.608,1.7-4.608,1.7l-5.059.75s7.684-13.735-1.533-14.244S1599.114,2404.369,1593.838,2403.573Z" transform="translate(-1590.003 -2387.518)" fill="#434343"/>
    </g>
    <g id="Groupe_1346" data-name="Groupe 1346" transform="translate(-783.625 479.492)">
      <path id="Tracé_1587" data-name="Tracé 1587" d="M1627.485,2424.317c.481-4.089,9.416-5.651,8.817-1.364s-5,8.406-7.031,8.26S1627.118,2427.435,1627.485,2424.317Z" transform="translate(-1627.322 -2420.4)" fill="#eea886"/>
    </g>
    <g id="Groupe_1347" data-name="Groupe 1347" transform="translate(-791.356 518.635)">
      <path id="Tracé_1588" data-name="Tracé 1588" d="M1687.289,2550.305c0-.085,0-.175,0-.271-.172-5.98-3.727-29.927-9.716-45.809-2.907-7.713-3.578-13.1-4.7-13.767-1.95-1.158-19.3-5.406-26.655-7.795l-.7-.228c-.668-.218-1.326-.431-1.966-.638l-.945-.3-.507-.159-.409-.128c-.011.009-.022.021-.039.033a104.7,104.7,0,0,0-8.126,8.595c-7.6,8.95-17.5,23.437-15.984,36.817.485,4.294,1.088,10.46,2.1,17.38.086.592.178,1.185.269,1.789.245,1.593.513,3.218.805,4.865q.262,1.481.554,2.983c2.013,10.373,8.321,17.445,13.922,25.9.049.071.1.142.144.214.026.041.054.081.079.121.119.18.239.362.358.544.191.295.382.6.574.894.11.173.217.344.325.518,1.072,1.7,2.12,3.445,3.138,5.194q.987,1.694,1.936,3.391c.065.118.13.234.2.351,0,0,1.031,1.983,2.354,4.531l1.538,2.963c.362.7.727,1.4,1.076,2.081.311.595.61,1.175.9,1.724.635,1.228,1.19,2.3,1.576,3.054.287.561.481.941.544,1.07,1.926,3.992,3.318,7.072,3.96,8.513.257.579.392.892.392.892l19.375-8.853c3.678-1.525,1.756-9.734.374-12.938a67.824,67.824,0,0,0-4.591-8.478c-.747-1.208-1.527-2.432-2.325-3.665,6.063-8.769,12.2-17.813,16.1-23.96C1685.712,2553.762,1687.289,2551,1687.289,2550.305Zm-30.806-25.1a.32.32,0,0,1,.019-.056.6.6,0,0,1,.022-.073c.012-.041.026-.08.04-.118a.423.423,0,0,1,.019-.057.035.035,0,0,1,0-.016.032.032,0,0,0,.006-.017s9.425,12.2,8.714,22.788c-.11,1.65-2.09,5.817-4.974,11.159,0,0,0,.006,0,.01-1.049,1.946-2.219,4.046-3.461,6.24-.047-.091-.091-.184-.138-.274-1.8-3.642-2.975-7.059-2.975-10.043C1653.755,2554.749,1654.551,2531.5,1656.483,2525.207Z" transform="translate(-1617.38 -2481.209)" fill="#2c61a5"/>
    </g>
    <g id="Groupe_1348" data-name="Groupe 1348" transform="translate(-903.059 520.435)">
      <path id="Tracé_1589" data-name="Tracé 1589" d="M1477.671,2533.631l43.871,7.909,20.912-45.274c.463-.3,6.459-2.974,10.428-4.538,4.132-1.629,9.362-3.639,14-5.412,2.216-.85,4.3-1.641,6.066-2.312l.145.095s-2.589,7.137-5.94,24.955l0,.006c-.114.6-.226,1.208-.342,1.831-.011.071-.026.145-.039.216-.075.412-.152.829-.227,1.253-.009.051-.019.1-.028.148-.051.285-.1.571-.151.861q-.189,1.055-.378,2.151c-1.495,8.674-3.592,23.432-5.607,38.333v.005c-1.593,11.745-5.221,23.8-6.374,32.79,0,.007,0,.012,0,.018a52.447,52.447,0,0,1-1.508,6.761c-.081.3-.168.6-.255.911-3.245,11.352-9.547,27.419-9.547,27.419l-1.834-1.4-5.436-4.154a3.247,3.247,0,0,1-1.221-3.763c3.014-8.051,13.259-36.541,15.136-56.573a.047.047,0,0,0,0-.019c.589-6.293-1.634-12.221-2.923-17.842-.023.048-.044.1-.065.146-1.079,2.483-2.275,5.184-3.479,7.813v0c-3.234,7.059-6.543,13.6-7.92,14.017-3.066.933-60.831-12.141-61.23-14.018Z" transform="translate(-1473.725 -2484.004)" fill="#2c61a5"/>
    </g>
    <g id="Groupe_1349" data-name="Groupe 1349" transform="translate(-791.356 518.633)">
      <path id="Tracé_1590" data-name="Tracé 1590" d="M1636.575,2500.736l-8.954,4.18,3.826,3.23-10.185,45.526c-2.077-10.671-3.022-20.8-3.726-27.02-2.342-20.684,22.6-44.017,24.148-45.446,1.2.376,2.492.792,3.829,1.229Z" transform="translate(-1617.38 -2481.206)" fill="#164e96"/>
    </g>
    <g id="Groupe_1350" data-name="Groupe 1350" transform="translate(-818.488 520.328)">
      <path id="Tracé_1591" data-name="Tracé 1591" d="M1597.424,2483.839s-3.345,9.044-7.244,31.621c-1.495,8.672-3.592,23.434-5.608,38.333l-2.085-42.637,4.266-3.825-3.791-3.923,8.113-17.15c2.216-.848,4.3-1.641,6.067-2.312Z" transform="translate(-1582.487 -2483.839)" fill="#164e96"/>
    </g>
    <g id="Groupe_1351" data-name="Groupe 1351" transform="translate(-792.619 514.993)">
      <path id="Tracé_1592" data-name="Tracé 1592" d="M1641.771,2479.283l-7.424-3.732s-.208,3.37-18.592,12.173l5.221,12.175Z" transform="translate(-1615.756 -2475.551)" fill="#f5e2d9"/>
    </g>
    <g id="Groupe_1352" data-name="Groupe 1352" transform="translate(-803.551 516.691)">
      <path id="Tracé_1593" data-name="Tracé 1593" d="M1607.738,2478.188s.289,3.638,4.891,10.476l-10.191,11-.742-17.834Z" transform="translate(-1601.696 -2478.188)" fill="#f5e2d9"/>
    </g>
    <g id="Groupe_1353" data-name="Groupe 1353" transform="translate(-798.791 527.166)">
      <path id="Tracé_1594" data-name="Tracé 1594" d="M1614.018,2494.461s1.975,6.539,1.264,8.37c0,0-4.342,1.308-7.464-.327A28.39,28.39,0,0,1,1614.018,2494.461Z" transform="translate(-1607.818 -2494.461)" fill="#0d3a74"/>
    </g>
    <g id="Groupe_1355" data-name="Groupe 1355" transform="translate(-803.303 602.449)">
      <g id="Groupe_1354" data-name="Groupe 1354" transform="translate(0 0)">
        <path id="Tracé_1595" data-name="Tracé 1595" d="M1602.519,2630.436c-1.1-4.612-.053-18.438-.008-19.025l.946.051c-.011.143-1.089,14.309-.008,18.822Z" transform="translate(-1602.015 -2611.41)" fill="#ad9f99"/>
      </g>
    </g>
    <g id="Groupe_1356" data-name="Groupe 1356" transform="translate(-806.926 619.346)">
      <path id="Tracé_1596" data-name="Tracé 1596" d="M1609.214,2637.661s-8.911.881-11.858,1.49l.386,8.268,11.67-1.03Z" transform="translate(-1597.356 -2637.661)" fill="#69737a"/>
    </g>
    <g id="Groupe_1357" data-name="Groupe 1357" transform="translate(-805.515 533.706)">
      <path id="Tracé_1597" data-name="Tracé 1597" d="M1607.668,2505.537s-9.939,20.778-8.318,44.037c1.681,24.115,4.438,32.858,4.438,32.858l6.129,6.362,2.7-7.82s-8.224-30.744-2.915-60.66c.963-5.421,2.391-15.694,2.391-15.694Z" transform="translate(-1599.171 -2504.62)" fill="#0d3a74"/>
    </g>
    <g id="Groupe_1358" data-name="Groupe 1358" transform="translate(-776.66 632.723)">
      <path id="Tracé_1598" data-name="Tracé 1598" d="M1645.788,2658.471s-2.133,3.531-4.266,4.121-5.242,3.457-5.242,3.457l15.017,6.547s4-6.474,4.176-10.594S1645.788,2658.471,1645.788,2658.471Z" transform="translate(-1636.28 -2658.442)" fill="#eea886"/>
    </g>
    <g id="Groupe_1359" data-name="Groupe 1359" transform="translate(-769.572 633.083)">
      <path id="Tracé_1599" data-name="Tracé 1599" d="M1646.389,2659l-.994,1.656s9.538,5.774,12.109,6.142l.883-2.206Z" transform="translate(-1645.395 -2659.001)" fill="#decbc4"/>
    </g>
    <g id="Groupe_1360" data-name="Groupe 1360" transform="translate(-769.572 593.343)">
      <path id="Tracé_1600" data-name="Tracé 1600" d="M1645.395,2637.078s7.148,4.894,13.17,7.149l20.258-30.165-10.5-16.8S1645.869,2634.135,1645.395,2637.078Z" transform="translate(-1645.395 -2597.265)" fill="#164e96"/>
    </g>
    <g id="Groupe_1361" data-name="Groupe 1361" transform="translate(-834.212 550.028)">
      <path id="Tracé_1601" data-name="Tracé 1601" d="M1566.395,2543.843c-.331,5.579-.282,10.535-.282,10.535v0c0,.027-.009.178-.023.427l-.042-.28c-1.079,2.483-2.274,5.183-3.479,7.813a69.532,69.532,0,0,1-.271-8.514c.484-15.646,6.428-23.851,6.428-23.851C1567.362,2532.7,1566.708,2538.553,1566.395,2543.843Z" transform="translate(-1562.266 -2529.976)" fill="#2f4363"/>
    </g>
    <g id="Groupe_1362" data-name="Groupe 1362" transform="translate(-755.529 619.124)">
      <path id="Tracé_1602" data-name="Tracé 1602" d="M1679.672,2640.98l-16.217,16.214,13.892-19.879C1678.146,2638.547,1678.926,2639.772,1679.672,2640.98Z" transform="translate(-1663.455 -2637.315)" fill="#2f4363"/>
    </g>
    <g id="Groupe_1363" data-name="Groupe 1363" transform="translate(-916.352 537.664)">
      <path id="Tracé_1603" data-name="Tracé 1603" d="M1515.9,2575.564h-37.442a5.458,5.458,0,0,1-5.4-3.519l-16.263-55.59c-.848-2.9,1.8-5.686,5.4-5.686h37.443a5.459,5.459,0,0,1,5.4,3.519l16.263,55.59C1522.148,2572.774,1519.5,2575.564,1515.9,2575.564Z" transform="translate(-1456.629 -2510.769)" fill="#323657"/>
    </g>
    <g id="Groupe_1365" data-name="Groupe 1365" transform="translate(-909.378 567.236)">
      <g id="Groupe_1364" data-name="Groupe 1364">
        <path id="Tracé_1604" data-name="Tracé 1604" d="M1472.095,2576.478c1.832-1.4,5.367-2.219,8.393-3.893s.5-3.4.5-3.4c3.11-.884,2.775-2.059,2.377-2.861-.538-1.081-3.934-.775-3.934-.775a38.922,38.922,0,0,0,4.3-1.016c1.252-.458.827-2.266-1.1-2.838s-9.779,1.032-9.779,1.032,1.28-.52,5.152-2.129,4.723-3.073,2.439-3.774c-1.587-.489-4.706.535-10.694,3.865-4.508,2.507-4.141,2.833-4.141,2.833S1469.907,2578.155,1472.095,2576.478Z" transform="translate(-1465.599 -2556.709)" fill="#eea886"/>
      </g>
    </g>
    <g id="Groupe_1376" data-name="Groupe 1376" transform="translate(-1100.609 439.359)">
      <path id="Tracé_1609" data-name="Tracé 1609" d="M1333.982,2400.026H1219.667v-1.881H1331.71v-40.091h2.272Z" transform="translate(-1219.667 -2358.054)" fill="#0961aa"/>
    </g>
    <g id="Groupe_1388" data-name="Groupe 1388" transform="translate(-1102.92 459.873)">
      <path id="Tracé_1614" data-name="Tracé 1614" d="M1239.3,2390.01s-14.922-.415-19.683,9.71-1.167,17.89.191,21.578c3.546,9.631,3.837,13.129,2.12,18.941-1.522,5.152-2.922,7.813-4.677,12.63s1.171,4.281,1.426,4.633,58.435,4.8,58.435,4.8-1.555-10.432-5.652-12.855-8.146-2.913-5.029-13.237,5.093-15.117,3.347-22.6c-2.025-8.676-3.3-14.1-13.152-19.786A30.817,30.817,0,0,0,1239.3,2390.01Z" transform="translate(-1216.696 -2389.923)" fill="#3b3b40"/>
    </g>
    <path id="Tracé_1615" data-name="Tracé 1615" d="M1220.081,2918.968s8.207,10.089,11.514,12.523c0,0,7.349,2.231,8.085,6.49s.612,7.1-8.085,7.3-14.4-1.09-15.99-5.451a19.642,19.642,0,0,0-5.078-7.328v9.125h-1.96s-.49-8.821-.613-10.444-1.407-7.859,2.726-10.623S1220.081,2918.968,1220.081,2918.968Z" transform="translate(-2317.608 -2118.452)" fill="#123972"/>
    <path id="Tracé_1616" data-name="Tracé 1616" d="M1272.281,2905.309a28.345,28.345,0,0,0,4.1,5.678c1.968,2.125,8.085,10.85,10.779,11.458s11.025,1.825,11.76,5.679,1.1,6.591-7.106,6.895-13.594.709-17.515-4.056a40.551,40.551,0,0,0-10.167-8.213v12.435h-3.184s-1.469-12.941-2.327-13.854-3.062-10.85,4.532-16.022S1272.281,2905.309,1272.281,2905.309Z" transform="translate(-2328.727 -2112.854)" fill="#123972"/>
    <path id="Tracé_1617" data-name="Tracé 1617" d="M1211.441,2614.586s-9.222,11.351-12.033,24.584.52,57.449.4,63.989-7.471,22.815-6,35.135,13.75,72.627,13.75,72.627l9.4-1.6s-.918-62.514,0-67.685,2.762-24.021,3.13-26.151,23.327-58.045,23.327-67.585S1236.428,2599.021,1211.441,2614.586Z" transform="translate(-2314.481 -2008.81)" fill="#eea886"/>
    <path id="Tracé_1618" data-name="Tracé 1618" d="M1273.3,2621.807s17.025,53.793,19.046,61.247,4.949,13.6,4.949,16.764c0,7.343-3.295,19.132-3.295,19.132l-26.163,85.177-10.851,1.411s6.275-52.342,6.585-62.384c.309-10.065,9.668-24.356,7.829-28.616s-29.58-53.387-29.58-53.387S1220.812,2606.191,1273.3,2621.807Z" transform="translate(-2324.28 -2011.671)" fill="#eea886"/>
    <path id="Tracé_1619" data-name="Tracé 1619" d="M1232.456,2931.626s-8.4,3.89-13.815-1.1a34.353,34.353,0,0,1-7.1-9.822l9.4-1.6Z" transform="translate(-2318.469 -2118.588)" fill="#eea886"/>
    <path id="Tracé_1620" data-name="Tracé 1620" d="M1288.241,2922.96s-7.348,1.521-10.166,0-12.395-14.922-15.566-15.725c0,0,3.073-5.164,10.852-1.412C1273.361,2905.824,1286.16,2920.73,1288.241,2922.96Z" transform="translate(-2329.805 -2113.369)" fill="#eea886"/>
    <path id="Tracé_1621" data-name="Tracé 1621" d="M1286.313,2699.134s-39.38,14-98.013,14c0,0,6.176-73.548,14.7-89.386s60.675,1.6,60.675,1.6S1286.313,2685.864,1286.313,2699.134Z" transform="translate(-2313.3 -2010.987)" fill="#0961aa"/>
    <g id="Groupe_1389" data-name="Groupe 1389" transform="translate(-1065.631 518.892)">
      <path id="Tracé_1622" data-name="Tracé 1622" d="M1347.59,2544.31s-35.917,2.559-44.8-.718c-4.449-1.638-10.476-8.433-16.044-15.887-.944-1.268-1.878-2.555-2.787-3.836-6.807-9.6-12.307-19.036-12.307-19.036s-16.43-17.111,1.058-23.225c0,0,6.791,1.563,11.008,6.969s7.522,13.515,8.355,16.189,14.894,26.185,15.777,26.848,9.719.22,16.531.752c11.114.868,22.837,1.375,22.837,1.375Z" transform="translate(-1264.65 -2481.608)" fill="#0961aa"/>
    </g>
    <g id="Groupe_1390" data-name="Groupe 1390" transform="translate(-1117.853 514.25)">
      <path id="Tracé_1623" data-name="Tracé 1623" d="M1270.464,2517.863c-4.419,8.467-.252,11.292-2.273,19.758s-2.743,32.59-2.365,37.294-50.369,9.539-62.115.967c0,0,3.914-18.3,11.1-29.676,1.367-2.159.713-10.674-.675-13.6-.428-.9-2.128-4.357-4.285-8.733l-.006-.008c-2.246-4.548-4.982-10.085-7.291-14.748-2.733-5.524-4.867-9.829-4.867-9.829s-1.752-13.622,5.082-18.015c5.936-3.816,22.112-5.175,25.016-6.014s11.354-1.2,17.29-.468c0,0,9.092,3.554,12.25,4.079s15.406,13.694,17.554,18.5S1274.884,2509.393,1270.464,2517.863Z" transform="translate(-1197.491 -2474.396)" fill="#0961aa"/>
    </g>
    <g id="Groupe_1391" data-name="Groupe 1391" transform="translate(-1086.765 495.656)">
      <path id="Tracé_1624" data-name="Tracé 1624" d="M1258.312,2455.813s-1.813,13.809-1.435,18.3c0,0-7.6,7.645-18.345-9.342,0,0,2.674-6.809-.729-16.349S1258.312,2455.813,1258.312,2455.813Z" transform="translate(-1237.471 -2445.51)" fill="#eea886"/>
    </g>
    <path id="Tracé_1625" data-name="Tracé 1625" d="M1227.123,2476.625s6.5,15.892,24.344,14.723,8.46-13.419,8.46-13.419a43.245,43.245,0,0,0-5.7-2.31c-1.251-.2-17.708-.776-17.708-.776Z" transform="translate(-2321.935 -1960.305)" fill="#eea886"/>
    <rect id="Rectangle_112" data-name="Rectangle 112" width="49.294" height="58.297" rx="4.606" transform="translate(-1025.786 529.292)" fill="#434343"/>
    <rect id="Rectangle_113" data-name="Rectangle 113" width="42.592" height="50.37" transform="translate(-1022.435 533.256)" fill="#d9f4ec"/>
    <path id="Tracé_1626" data-name="Tracé 1626" d="M1299.313,2567.4a5.754,5.754,0,0,0,2.67-.635c1.828-1.141,2.489-3.953,5.714-3.748s4.725,8.584,3.916,10.17-5.29,2.379-11.915,1.286S1299.313,2567.4,1299.313,2567.4Z" transform="translate(-2337.399 -1991.715)" fill="#eea886"/>
    <path id="Tracé_1627" data-name="Tracé 1627" d="M1309.08,2561.4s4.639-1.309,9.994-2.268c4.7-.841,10.312-1.115,10.858-.442.609.751-4.576,1.4-9.18,2.483-4.239,1-3.228,1.363-3.228,1.363s-.281-.118,4.558-.492c5.2-.4,10.563-.394,11.091.468.256.418.076.7-1.8,1.094,1.127-.042,1.286.2,1.329.574.223,1.941-7.366,3.485-10.38,4.1,2.319-.458,4.069-.6,3.234.7-.954,1.488-11.784,3.286-15.6,4.226C1305.789,2574.228,1309.08,2561.4,1309.08,2561.4Z" transform="translate(-2339.889 -1990.044)" fill="#eea886"/>
    <g id="Groupe_1392" data-name="Groupe 1392" transform="translate(-982.199 540.159)">
      <path id="Tracé_1628" data-name="Tracé 1628" d="M1372.035,2514.971s7.006-1.349,9.26,1.445a9.314,9.314,0,0,1,1.775,8.055c-.562,1.663-2.38,5.945-4.749,5.065C1370.715,2526.712,1372.035,2514.971,1372.035,2514.971Z" transform="translate(-1371.948 -2514.646)" fill="#eea886"/>
    </g>
    <g id="Groupe_1393" data-name="Groupe 1393" transform="translate(-978.948 537.219)">
      <path id="Tracé_1629" data-name="Tracé 1629" d="M1379.9,2513.4s-.982-3.919-2.876-3.25-.184,3.257-.184,3.257Z" transform="translate(-1376.13 -2510.077)" fill="#eea886"/>
    </g>
    <g id="Groupe_1394" data-name="Groupe 1394" transform="translate(-982.112 539.509)">
      <path id="Tracé_1630" data-name="Tracé 1630" d="M1372.06,2514.611s.113-2.24,5.013.065S1372.06,2514.611,1372.06,2514.611Z" transform="translate(-1372.06 -2513.635)" fill="#eea886"/>
    </g>
    <path id="Tracé_1631" data-name="Tracé 1631" d="M1289.478,2540.123s5.342-10.51,5.572-12.879c-.048,1.4-.43,9.909-2.786,16.72-.944-1.267-1.878-2.553-2.787-3.836Z" transform="translate(-2335.804 -1978.975)" fill="#123972"/>
    <path id="Tracé_1632" data-name="Tracé 1632" d="M1296.644,2527.135c0-.13.006-.2.006-.2A1.64,1.64,0,0,1,1296.644,2527.135Z" transform="translate(-2337.397 -1978.866)" fill="#d1c0ba"/>
    <path id="Tracé_1633" data-name="Tracé 1633" d="M1255.053,2551.891l-22.249-32.426s7.772,32.347,13.657,33.435S1255.053,2551.891,1255.053,2551.891Z" transform="translate(-2323.199 -1976.203)" fill="#123972"/>
    <g id="Groupe_1395" data-name="Groupe 1395" transform="translate(-1119.394 520.32)">
      <path id="Tracé_1634" data-name="Tracé 1634" d="M1203.274,2484.04s-10.672,4.4-6.992,15.781,7.34,14.656,10.854,18.914c3.32,4.02,10.092,14.844,10.921,16.058s8.989,18.883,16.474,20.891c7.525,2.019,44.58-7.753,45.416-6.686s-.048-10.763-.048-10.763-17.219,1.051-21.018.837c-6.172-.346-16.072,1.743-18.454-2.682-2.8-5.2-12.826-22.282-13.881-25.1S1213.172,2481.148,1203.274,2484.04Z" transform="translate(-1195.509 -2483.826)" fill="#0961aa"/>
    </g>
    <g id="Groupe_1396" data-name="Groupe 1396" transform="translate(-1093.609 464.156)">
      <path id="Tracé_1635" data-name="Tracé 1635" d="M1253.6,2398.862s16.461,8.9,11.111,30.4-24.785,9.681-26.9,8.462-8.636-14.677-8.891-20.547C1228.686,2411.646,1225.2,2389.484,1253.6,2398.862Z" transform="translate(-1228.67 -2396.577)" fill="#eea987"/>
    </g>
    <g id="Groupe_1397" data-name="Groupe 1397" transform="translate(-1095.074 462.154)">
      <path id="Tracé_1636" data-name="Tracé 1636" d="M1252.051,2402.069c-1.718-.42-7.51,8.852-10.629,11.138s-8.853,8.03-9.416,14.322-6.974-13.749-4.755-21.185,5.18-18.341,25.241-9.693,14.873,24.111,14.873,24.111S1260.726,2404.191,1252.051,2402.069Z" transform="translate(-1226.786 -2393.467)" fill="#3b3b40"/>
    </g>
    <g id="Groupe_1398" data-name="Groupe 1398" transform="translate(-1090.925 482.649)">
      <path id="Tracé_1637" data-name="Tracé 1637" d="M1239.337,2428.256c-.53-2.545-7.314-4.7-7.214-.874s3.846,8.237,5.962,7.958S1239.828,2430.6,1239.337,2428.256Z" transform="translate(-1232.122 -2425.305)" fill="#eea987"/>
    </g>
    <path id="Tracé_1638" data-name="Tracé 1638" d="M1242.469,2461.882c.121.19,4.036,6.42,16.02,7.991.267-2.432.64-5.41.64-5.41A22.717,22.717,0,0,1,1242.469,2461.882Z" transform="translate(-2325.348 -1955.688)" fill="#a87860"/>
  </g>
  <g id="Groupe_1960" data-name="Groupe 1960" transform="translate(-1337.223 -112.297)">
    <path id="Tracé_1613" data-name="Tracé 1613" d="M1464.164,2228.168a30.21,30.21,0,0,1-5.168-7.624l7.652-3.061a22.633,22.633,0,0,0,3.874,5.719Z" transform="translate(-94.284 -2006.012)" fill="#4dafff"/>
    <path id="Tracé_1611" data-name="Tracé 1611" d="M1465.347,2185.561l-7.966-2.285c3.017-8.854,10.361-16.348,20.6-19.714a35.975,35.975,0,0,1,10.231-1.783l.249,7.664a26.96,26.96,0,0,0-7.671,1.338A23.9,23.9,0,0,0,1465.347,2185.561Z" transform="translate(-93.925 -1990.1)" fill="#0d3a74"/>
    <path id="Tracé_1612" data-name="Tracé 1612" d="M1465.854,2210.167l-7.652,3.061q-.443-.937-.821-1.91a28.155,28.155,0,0,1-.435-19.446l7.967,2.285a21.108,21.108,0,0,0,.326,14.578Q1465.521,2209.466,1465.854,2210.167Z" transform="translate(-93.49 -1998.695)" fill="#2273b5"/>
    <path id="Tracé_1610" data-name="Tracé 1610" d="M1520.173,2182.085c-4.992-12.823-18.333-20.7-32.393-20.312a35.972,35.972,0,0,0-10.232,1.783c-10.241,3.365-17.586,10.86-20.6,19.714a28.154,28.154,0,0,0,.435,19.446q.378.971.821,1.91a30.168,30.168,0,0,0,5.168,7.624c8.725,9.425,23.2,13.407,36.636,8.995C1517.345,2215.547,1526.374,2198.016,1520.173,2182.085Zm-22.979,31.941a26.462,26.462,0,0,1-27.467-6.742,22.642,22.642,0,0,1-3.874-5.718c-.221-.467-.427-.945-.616-1.432a21.108,21.108,0,0,1-.326-14.578,23.9,23.9,0,0,1,15.446-14.78,27.012,27.012,0,0,1,7.671-1.338c10.54-.292,20.544,5.614,24.288,15.228C1516.966,2196.61,1510.2,2209.754,1497.195,2214.026Z" transform="translate(-93.49 -1990.081)" fill="#0961aa"/>
  </g>
  <g id="Groupe_1950" data-name="Groupe 1950" transform="translate(-1121.223 -202.386)">
    <path id="Tracé_1605" data-name="Tracé 1605" d="M1399.536,2219.548c-24.6-10.709-53.052-5.016-70.757,12.282a56.3,56.3,0,0,0-10.763,14.538,52.237,52.237,0,0,0,1.111,50.235,59.007,59.007,0,0,0,28.044,24.761c1.243.542,2.5,1.043,3.765,1.5a65.322,65.322,0,0,0,17.486,3.739c24.645,1.832,49.069-10.284,60.271-32.062C1443.152,2266.428,1430.1,2232.853,1399.536,2219.548Zm15.306,68.967c-8.4,16.33-26.709,25.412-45.186,24.042a49.01,49.01,0,0,1-13.109-2.807q-1.422-.516-2.824-1.126a44.227,44.227,0,0,1-21.023-18.564,39.157,39.157,0,0,1-.835-37.663,42.273,42.273,0,0,1,8.067-10.9c13.271-12.97,34.6-17.238,53.051-9.209C1415.9,2242.262,1425.683,2267.435,1414.842,2288.515Z" transform="translate(-94.616 -2011.738)" fill="#0961aa"/>
    <g id="Groupe_1961" data-name="Groupe 1961">
      <path id="Tracé_1606" data-name="Tracé 1606" d="M1332.7,2297.1l-13.572,6.544a52.236,52.236,0,0,1-1.111-50.234,56.307,56.307,0,0,1,10.763-14.539l11.153,9.667a42.267,42.267,0,0,0-8.067,10.9A39.157,39.157,0,0,0,1332.7,2297.1Z" transform="translate(-94.616 -2018.783)" fill="#0d3a74"/>
    </g>
    <path id="Tracé_1607" data-name="Tracé 1607" d="M1358.551,2339.965l-5.611,13.119c-1.263-.459-2.521-.961-3.764-1.5a59.008,59.008,0,0,1-28.044-24.761l13.572-6.544a44.24,44.24,0,0,0,21.023,18.564Q1357.128,2339.449,1358.551,2339.965Z" transform="translate(-96.621 -2041.954)" fill="#0961aa"/>
    <path id="Tracé_1608" data-name="Tracé 1608" d="M1379.525,2364.657a65.358,65.358,0,0,1-17.486-3.738l5.611-13.118a48.973,48.973,0,0,0,13.109,2.807Z" transform="translate(-105.72 -2049.789)" fill="#0961aa"/>
  </g>
</svg>
